<?xml version="1.0" encoding="utf-8" standalone="no"?>
<!DOCTYPE svg PUBLIC "-//W3C//DTD SVG 1.1//EN"
  "http://www.w3.org/Graphics/SVG/1.1/DTD/svg11.dtd">
<svg xmlns:xlink="http://www.w3.org/1999/xlink" width="576pt" height="432pt" viewBox="0 0 576 432" xmlns="http://www.w3.org/2000/svg" version="1.1">
 <metadata>
  <rdf:RDF xmlns:dc="http://purl.org/dc/elements/1.1/" xmlns:cc="http://creativecommons.org/ns#" xmlns:rdf="http://www.w3.org/1999/02/22-rdf-syntax-ns#">
   <cc:Work>
    <dc:type rdf:resource="http://purl.org/dc/dcmitype/StillImage"/>
    <dc:date>2022-06-14T14:55:54.502846</dc:date>
    <dc:format>image/svg+xml</dc:format>
    <dc:creator>
     <cc:Agent>
      <dc:title>Matplotlib v3.5.1, https://matplotlib.org/</dc:title>
     </cc:Agent>
    </dc:creator>
   </cc:Work>
  </rdf:RDF>
 </metadata>
 <defs>
  <style type="text/css">*{stroke-linejoin: round; stroke-linecap: butt}</style>
 </defs>
 <g id="figure_1">
  <g id="patch_1">
   <path d="M 0 432 
L 576 432 
L 576 0 
L 0 0 
L 0 432 
z
" style="fill: none"/>
  </g>
  <g id="axes_1">
   <g id="patch_2">
    <path d="M 72 378 
L 518.4 378 
L 518.4 51.84 
L 72 51.84 
z
" style="fill: #ffffff"/>
   </g>
   <g id="matplotlib.axis_1">
    <g id="xtick_1">
     <g id="line2d_1">
      <defs>
       <path id="m64a8b90d75" d="M 0 0 
L 0 3.5 
" style="stroke: #000000; stroke-width: 0.8"/>
      </defs>
      <g>
       <use xlink:href="#m64a8b90d75" x="72" y="378" style="stroke: #000000; stroke-width: 0.8"/>
      </g>
     </g>
     <g id="text_1">
      <!-- 0 -->
      <g transform="translate(68.1825 394.118125)scale(0.12 -0.12)">
       <defs>
        <path id="DejaVuSans-30" d="M 2034 4250 
Q 1547 4250 1301 3770 
Q 1056 3291 1056 2328 
Q 1056 1369 1301 889 
Q 1547 409 2034 409 
Q 2525 409 2770 889 
Q 3016 1369 3016 2328 
Q 3016 3291 2770 3770 
Q 2525 4250 2034 4250 
z
M 2034 4750 
Q 2819 4750 3233 4129 
Q 3647 3509 3647 2328 
Q 3647 1150 3233 529 
Q 2819 -91 2034 -91 
Q 1250 -91 836 529 
Q 422 1150 422 2328 
Q 422 3509 836 4129 
Q 1250 4750 2034 4750 
z
" transform="scale(0.015625)"/>
       </defs>
       <use xlink:href="#DejaVuSans-30"/>
      </g>
     </g>
    </g>
    <g id="xtick_2">
     <g id="line2d_2">
      <g>
       <use xlink:href="#m64a8b90d75" x="131.52" y="378" style="stroke: #000000; stroke-width: 0.8"/>
      </g>
     </g>
     <g id="text_2">
      <!-- 2 -->
      <g transform="translate(127.7025 394.118125)scale(0.12 -0.12)">
       <defs>
        <path id="DejaVuSans-32" d="M 1228 531 
L 3431 531 
L 3431 0 
L 469 0 
L 469 531 
Q 828 903 1448 1529 
Q 2069 2156 2228 2338 
Q 2531 2678 2651 2914 
Q 2772 3150 2772 3378 
Q 2772 3750 2511 3984 
Q 2250 4219 1831 4219 
Q 1534 4219 1204 4116 
Q 875 4013 500 3803 
L 500 4441 
Q 881 4594 1212 4672 
Q 1544 4750 1819 4750 
Q 2544 4750 2975 4387 
Q 3406 4025 3406 3419 
Q 3406 3131 3298 2873 
Q 3191 2616 2906 2266 
Q 2828 2175 2409 1742 
Q 1991 1309 1228 531 
z
" transform="scale(0.015625)"/>
       </defs>
       <use xlink:href="#DejaVuSans-32"/>
      </g>
     </g>
    </g>
    <g id="xtick_3">
     <g id="line2d_3">
      <g>
       <use xlink:href="#m64a8b90d75" x="191.04" y="378" style="stroke: #000000; stroke-width: 0.8"/>
      </g>
     </g>
     <g id="text_3">
      <!-- 4 -->
      <g transform="translate(187.2225 394.118125)scale(0.12 -0.12)">
       <defs>
        <path id="DejaVuSans-34" d="M 2419 4116 
L 825 1625 
L 2419 1625 
L 2419 4116 
z
M 2253 4666 
L 3047 4666 
L 3047 1625 
L 3713 1625 
L 3713 1100 
L 3047 1100 
L 3047 0 
L 2419 0 
L 2419 1100 
L 313 1100 
L 313 1709 
L 2253 4666 
z
" transform="scale(0.015625)"/>
       </defs>
       <use xlink:href="#DejaVuSans-34"/>
      </g>
     </g>
    </g>
    <g id="xtick_4">
     <g id="line2d_4">
      <g>
       <use xlink:href="#m64a8b90d75" x="250.56" y="378" style="stroke: #000000; stroke-width: 0.8"/>
      </g>
     </g>
     <g id="text_4">
      <!-- 6 -->
      <g transform="translate(246.7425 394.118125)scale(0.12 -0.12)">
       <defs>
        <path id="DejaVuSans-36" d="M 2113 2584 
Q 1688 2584 1439 2293 
Q 1191 2003 1191 1497 
Q 1191 994 1439 701 
Q 1688 409 2113 409 
Q 2538 409 2786 701 
Q 3034 994 3034 1497 
Q 3034 2003 2786 2293 
Q 2538 2584 2113 2584 
z
M 3366 4563 
L 3366 3988 
Q 3128 4100 2886 4159 
Q 2644 4219 2406 4219 
Q 1781 4219 1451 3797 
Q 1122 3375 1075 2522 
Q 1259 2794 1537 2939 
Q 1816 3084 2150 3084 
Q 2853 3084 3261 2657 
Q 3669 2231 3669 1497 
Q 3669 778 3244 343 
Q 2819 -91 2113 -91 
Q 1303 -91 875 529 
Q 447 1150 447 2328 
Q 447 3434 972 4092 
Q 1497 4750 2381 4750 
Q 2619 4750 2861 4703 
Q 3103 4656 3366 4563 
z
" transform="scale(0.015625)"/>
       </defs>
       <use xlink:href="#DejaVuSans-36"/>
      </g>
     </g>
    </g>
    <g id="xtick_5">
     <g id="line2d_5">
      <g>
       <use xlink:href="#m64a8b90d75" x="310.08" y="378" style="stroke: #000000; stroke-width: 0.8"/>
      </g>
     </g>
     <g id="text_5">
      <!-- 8 -->
      <g transform="translate(306.2625 394.118125)scale(0.12 -0.12)">
       <defs>
        <path id="DejaVuSans-38" d="M 2034 2216 
Q 1584 2216 1326 1975 
Q 1069 1734 1069 1313 
Q 1069 891 1326 650 
Q 1584 409 2034 409 
Q 2484 409 2743 651 
Q 3003 894 3003 1313 
Q 3003 1734 2745 1975 
Q 2488 2216 2034 2216 
z
M 1403 2484 
Q 997 2584 770 2862 
Q 544 3141 544 3541 
Q 544 4100 942 4425 
Q 1341 4750 2034 4750 
Q 2731 4750 3128 4425 
Q 3525 4100 3525 3541 
Q 3525 3141 3298 2862 
Q 3072 2584 2669 2484 
Q 3125 2378 3379 2068 
Q 3634 1759 3634 1313 
Q 3634 634 3220 271 
Q 2806 -91 2034 -91 
Q 1263 -91 848 271 
Q 434 634 434 1313 
Q 434 1759 690 2068 
Q 947 2378 1403 2484 
z
M 1172 3481 
Q 1172 3119 1398 2916 
Q 1625 2713 2034 2713 
Q 2441 2713 2670 2916 
Q 2900 3119 2900 3481 
Q 2900 3844 2670 4047 
Q 2441 4250 2034 4250 
Q 1625 4250 1398 4047 
Q 1172 3844 1172 3481 
z
" transform="scale(0.015625)"/>
       </defs>
       <use xlink:href="#DejaVuSans-38"/>
      </g>
     </g>
    </g>
    <g id="xtick_6">
     <g id="line2d_6">
      <g>
       <use xlink:href="#m64a8b90d75" x="369.6" y="378" style="stroke: #000000; stroke-width: 0.8"/>
      </g>
     </g>
     <g id="text_6">
      <!-- 10 -->
      <g transform="translate(361.965 394.118125)scale(0.12 -0.12)">
       <defs>
        <path id="DejaVuSans-31" d="M 794 531 
L 1825 531 
L 1825 4091 
L 703 3866 
L 703 4441 
L 1819 4666 
L 2450 4666 
L 2450 531 
L 3481 531 
L 3481 0 
L 794 0 
L 794 531 
z
" transform="scale(0.015625)"/>
       </defs>
       <use xlink:href="#DejaVuSans-31"/>
       <use xlink:href="#DejaVuSans-30" x="63.623047"/>
      </g>
     </g>
    </g>
    <g id="xtick_7">
     <g id="line2d_7">
      <g>
       <use xlink:href="#m64a8b90d75" x="429.12" y="378" style="stroke: #000000; stroke-width: 0.8"/>
      </g>
     </g>
     <g id="text_7">
      <!-- 12 -->
      <g transform="translate(421.485 394.118125)scale(0.12 -0.12)">
       <use xlink:href="#DejaVuSans-31"/>
       <use xlink:href="#DejaVuSans-32" x="63.623047"/>
      </g>
     </g>
    </g>
    <g id="xtick_8">
     <g id="line2d_8">
      <g>
       <use xlink:href="#m64a8b90d75" x="488.64" y="378" style="stroke: #000000; stroke-width: 0.8"/>
      </g>
     </g>
     <g id="text_8">
      <!-- 14 -->
      <g transform="translate(481.005 394.118125)scale(0.12 -0.12)">
       <use xlink:href="#DejaVuSans-31"/>
       <use xlink:href="#DejaVuSans-34" x="63.623047"/>
      </g>
     </g>
    </g>
    <g id="text_9">
     <!-- t -->
     <g transform="translate(292.847812 409.731875)scale(0.12 -0.12)">
      <defs>
       <path id="DejaVuSans-74" d="M 1172 4494 
L 1172 3500 
L 2356 3500 
L 2356 3053 
L 1172 3053 
L 1172 1153 
Q 1172 725 1289 603 
Q 1406 481 1766 481 
L 2356 481 
L 2356 0 
L 1766 0 
Q 1100 0 847 248 
Q 594 497 594 1153 
L 594 3053 
L 172 3053 
L 172 3500 
L 594 3500 
L 594 4494 
L 1172 4494 
z
" transform="scale(0.015625)"/>
      </defs>
      <use xlink:href="#DejaVuSans-74"/>
     </g>
    </g>
   </g>
   <g id="matplotlib.axis_2">
    <g id="ytick_1">
     <g id="line2d_9">
      <defs>
       <path id="mbe49fcbc59" d="M 0 0 
L -3.5 0 
" style="stroke: #000000; stroke-width: 0.8"/>
      </defs>
      <g>
       <use xlink:href="#mbe49fcbc59" x="72" y="378" style="stroke: #000000; stroke-width: 0.8"/>
      </g>
     </g>
     <g id="text_10">
      <!-- 0 -->
      <g transform="translate(57.365 382.559062)scale(0.12 -0.12)">
       <use xlink:href="#DejaVuSans-30"/>
      </g>
     </g>
    </g>
    <g id="ytick_2">
     <g id="line2d_10">
      <g>
       <use xlink:href="#mbe49fcbc59" x="72" y="334.512" style="stroke: #000000; stroke-width: 0.8"/>
      </g>
     </g>
     <g id="text_11">
      <!-- 20 -->
      <g transform="translate(49.73 339.071062)scale(0.12 -0.12)">
       <use xlink:href="#DejaVuSans-32"/>
       <use xlink:href="#DejaVuSans-30" x="63.623047"/>
      </g>
     </g>
    </g>
    <g id="ytick_3">
     <g id="line2d_11">
      <g>
       <use xlink:href="#mbe49fcbc59" x="72" y="291.024" style="stroke: #000000; stroke-width: 0.8"/>
      </g>
     </g>
     <g id="text_12">
      <!-- 40 -->
      <g transform="translate(49.73 295.583062)scale(0.12 -0.12)">
       <use xlink:href="#DejaVuSans-34"/>
       <use xlink:href="#DejaVuSans-30" x="63.623047"/>
      </g>
     </g>
    </g>
    <g id="ytick_4">
     <g id="line2d_12">
      <g>
       <use xlink:href="#mbe49fcbc59" x="72" y="247.536" style="stroke: #000000; stroke-width: 0.8"/>
      </g>
     </g>
     <g id="text_13">
      <!-- 60 -->
      <g transform="translate(49.73 252.095062)scale(0.12 -0.12)">
       <use xlink:href="#DejaVuSans-36"/>
       <use xlink:href="#DejaVuSans-30" x="63.623047"/>
      </g>
     </g>
    </g>
    <g id="ytick_5">
     <g id="line2d_13">
      <g>
       <use xlink:href="#mbe49fcbc59" x="72" y="204.048" style="stroke: #000000; stroke-width: 0.8"/>
      </g>
     </g>
     <g id="text_14">
      <!-- 80 -->
      <g transform="translate(49.73 208.607062)scale(0.12 -0.12)">
       <use xlink:href="#DejaVuSans-38"/>
       <use xlink:href="#DejaVuSans-30" x="63.623047"/>
      </g>
     </g>
    </g>
    <g id="ytick_6">
     <g id="line2d_14">
      <g>
       <use xlink:href="#mbe49fcbc59" x="72" y="160.56" style="stroke: #000000; stroke-width: 0.8"/>
      </g>
     </g>
     <g id="text_15">
      <!-- 100 -->
      <g transform="translate(42.095 165.119062)scale(0.12 -0.12)">
       <use xlink:href="#DejaVuSans-31"/>
       <use xlink:href="#DejaVuSans-30" x="63.623047"/>
       <use xlink:href="#DejaVuSans-30" x="127.246094"/>
      </g>
     </g>
    </g>
    <g id="ytick_7">
     <g id="line2d_15">
      <g>
       <use xlink:href="#mbe49fcbc59" x="72" y="117.072" style="stroke: #000000; stroke-width: 0.8"/>
      </g>
     </g>
     <g id="text_16">
      <!-- 120 -->
      <g transform="translate(42.095 121.631062)scale(0.12 -0.12)">
       <use xlink:href="#DejaVuSans-31"/>
       <use xlink:href="#DejaVuSans-32" x="63.623047"/>
       <use xlink:href="#DejaVuSans-30" x="127.246094"/>
      </g>
     </g>
    </g>
    <g id="ytick_8">
     <g id="line2d_16">
      <g>
       <use xlink:href="#mbe49fcbc59" x="72" y="73.584" style="stroke: #000000; stroke-width: 0.8"/>
      </g>
     </g>
     <g id="text_17">
      <!-- 140 -->
      <g transform="translate(42.095 78.143062)scale(0.12 -0.12)">
       <use xlink:href="#DejaVuSans-31"/>
       <use xlink:href="#DejaVuSans-34" x="63.623047"/>
       <use xlink:href="#DejaVuSans-30" x="127.246094"/>
      </g>
     </g>
    </g>
    <g id="text_18">
     <!-- MSD -->
     <g transform="translate(35.599375 228.525937)rotate(-90)scale(0.12 -0.12)">
      <defs>
       <path id="DejaVuSans-4d" d="M 628 4666 
L 1569 4666 
L 2759 1491 
L 3956 4666 
L 4897 4666 
L 4897 0 
L 4281 0 
L 4281 4097 
L 3078 897 
L 2444 897 
L 1241 4097 
L 1241 0 
L 628 0 
L 628 4666 
z
" transform="scale(0.015625)"/>
       <path id="DejaVuSans-53" d="M 3425 4513 
L 3425 3897 
Q 3066 4069 2747 4153 
Q 2428 4238 2131 4238 
Q 1616 4238 1336 4038 
Q 1056 3838 1056 3469 
Q 1056 3159 1242 3001 
Q 1428 2844 1947 2747 
L 2328 2669 
Q 3034 2534 3370 2195 
Q 3706 1856 3706 1288 
Q 3706 609 3251 259 
Q 2797 -91 1919 -91 
Q 1588 -91 1214 -16 
Q 841 59 441 206 
L 441 856 
Q 825 641 1194 531 
Q 1563 422 1919 422 
Q 2459 422 2753 634 
Q 3047 847 3047 1241 
Q 3047 1584 2836 1778 
Q 2625 1972 2144 2069 
L 1759 2144 
Q 1053 2284 737 2584 
Q 422 2884 422 3419 
Q 422 4038 858 4394 
Q 1294 4750 2059 4750 
Q 2388 4750 2728 4690 
Q 3069 4631 3425 4513 
z
" transform="scale(0.015625)"/>
       <path id="DejaVuSans-44" d="M 1259 4147 
L 1259 519 
L 2022 519 
Q 2988 519 3436 956 
Q 3884 1394 3884 2338 
Q 3884 3275 3436 3711 
Q 2988 4147 2022 4147 
L 1259 4147 
z
M 628 4666 
L 1925 4666 
Q 3281 4666 3915 4102 
Q 4550 3538 4550 2338 
Q 4550 1131 3912 565 
Q 3275 0 1925 0 
L 628 0 
L 628 4666 
z
" transform="scale(0.015625)"/>
      </defs>
      <use xlink:href="#DejaVuSans-4d"/>
      <use xlink:href="#DejaVuSans-53" x="86.279297"/>
      <use xlink:href="#DejaVuSans-44" x="149.755859"/>
     </g>
    </g>
   </g>
   <g id="line2d_17">
    <path d="M 72.2976 377.863378 
L 174.672 330.986676 
L 197.5872 320.765972 
L 216.336 312.642175 
L 233.2992 305.53431 
L 249.072 299.164986 
L 264.2496 293.274319 
L 279.1296 287.738061 
L 293.712 282.548299 
L 308.2944 277.594129 
L 322.8768 272.874635 
L 337.4592 268.386498 
L 352.3392 264.039906 
L 367.5168 259.841866 
L 382.6944 255.873275 
L 398.1696 252.053635 
L 414.24 248.318623 
L 430.608 244.745098 
L 447.2736 241.33316 
L 464.5344 238.026827 
L 482.3904 234.835516 
L 500.8416 231.76704 
L 518.4 229.049328 
L 518.4 229.049328 
" clip-path="url(#pe2b0ca5e3a)" style="fill: none; stroke: #1f77b4; stroke-width: 1.5; stroke-linecap: square"/>
   </g>
   <g id="line2d_18">
    <path d="M 72.2976 377.995708 
L 73.7856 377.845485 
L 75.2736 377.480657 
L 76.7616 376.901224 
L 78.2496 376.107187 
L 80.0352 374.871064 
L 81.8208 373.32591 
L 83.6064 371.471726 
L 85.392 369.308511 
L 87.4752 366.394179 
L 89.5584 363.059222 
L 91.6416 359.30364 
L 93.7248 355.127433 
L 96.1056 349.839574 
L 98.4864 344.002327 
L 100.8672 337.615692 
L 103.5456 329.774037 
L 106.224 321.237063 
L 109.2 310.936038 
L 112.176 299.776593 
L 115.152 287.758723 
L 118.4256 273.547553 
L 121.6992 258.297537 
L 124.9728 242.008398 
L 128.544 223.053393 
L 132.1152 202.867685 
L 135.984 179.655008 
L 140.448 151.404937 
L 147.2928 107.887469 
L 149.376 95.99044 
L 151.1616 86.967008 
L 152.6496 80.565119 
L 153.84 76.331617 
L 155.0304 72.996232 
L 155.9232 71.134077 
L 156.816 69.848807 
L 157.4112 69.32049 
L 158.0064 69.057404 
L 158.6016 69.058889 
L 159.1968 69.321712 
L 159.792 69.839975 
L 160.3872 70.605059 
L 161.28 72.18996 
L 162.1728 74.254769 
L 163.3632 77.646156 
L 164.8512 82.660645 
L 170.8032 103.883484 
L 172.2912 107.937117 
L 173.7792 111.253688 
L 175.2672 113.962594 
L 177.9456 118.158393 
L 179.4336 120.701661 
L 180.624 123.11628 
L 181.8144 125.99024 
L 183.0048 129.375982 
L 184.4928 134.302994 
L 186.576 142.171025 
L 190.4448 157.055886 
L 191.9328 161.933388 
L 193.4208 166.078335 
L 194.9088 169.535121 
L 196.6944 173.055494 
L 199.6704 178.76126 
L 201.1584 182.138484 
L 202.6464 186.068497 
L 204.432 191.445502 
L 209.1936 206.219554 
L 210.6816 209.899231 
L 211.872 212.336053 
L 213.0624 214.356204 
L 214.5504 216.444874 
L 218.4192 221.533313 
L 219.9072 224.021828 
L 221.6928 227.547258 
L 226.1568 236.838506 
L 227.3472 238.756114 
L 228.5376 240.254476 
L 229.728 241.330264 
L 230.9184 242.04265 
L 232.4064 242.592296 
L 235.0848 243.445326 
L 236.2752 244.054199 
L 237.4656 244.883132 
L 238.9536 246.186744 
L 242.2272 249.167785 
L 243.4176 249.879517 
L 244.3104 250.175272 
L 245.2032 250.243352 
L 246.096 250.083262 
L 246.9888 249.713679 
L 248.1792 248.958398 
L 250.2624 247.256548 
L 252.3456 245.64199 
L 253.8336 244.781781 
L 255.6192 244.064428 
L 258 243.163664 
L 259.1904 242.458517 
L 260.3808 241.432962 
L 261.5712 240.022575 
L 262.7616 238.219308 
L 264.2496 235.493576 
L 266.928 229.91013 
L 269.3088 225.145598 
L 271.0944 222.027771 
L 276.1536 213.670089 
L 277.6416 210.547598 
L 279.1296 206.918529 
L 280.9152 201.974177 
L 283.8912 192.924309 
L 288.0576 179.635819 
L 290.1408 172.210912 
L 291.9264 164.948299 
L 293.712 156.750232 
L 299.664 128.247306 
L 300.8544 123.992238 
L 301.7472 121.411247 
L 302.64 119.393824 
L 303.5328 117.947244 
L 304.128 117.291725 
L 304.7232 116.870659 
L 305.3184 116.668701 
L 305.9136 116.667287 
L 306.5088 116.845451 
L 307.4016 117.399931 
L 308.2944 118.229528 
L 309.4848 119.633676 
L 311.8656 122.912633 
L 315.1392 127.372798 
L 317.8176 130.635804 
L 320.496 133.543178 
L 323.472 136.411129 
L 326.448 139.326104 
L 327.936 141.070895 
L 329.424 143.132046 
L 331.2096 146.018148 
L 335.0784 152.498911 
L 336.2688 153.977277 
L 337.1616 154.775492 
L 338.0544 155.272793 
L 338.9472 155.464944 
L 339.84 155.3763 
L 340.7328 155.060401 
L 342.5184 154.089746 
L 343.7088 153.543074 
L 344.6016 153.385016 
L 345.1968 153.461243 
L 345.792 153.715495 
L 346.3872 154.170105 
L 346.9824 154.841201 
L 347.8752 156.2718 
L 348.768 158.207857 
L 349.9584 161.504057 
L 351.4464 166.496733 
L 355.6128 181.128348 
L 356.8032 184.368555 
L 357.9936 186.947722 
L 359.184 188.905749 
L 360.3744 190.379938 
L 362.4576 192.431002 
L 363.9456 194.057841 
L 365.136 195.74017 
L 366.3264 197.874627 
L 367.5168 200.4772 
L 369.0048 204.286453 
L 374.9568 220.328758 
L 376.4448 223.392382 
L 377.9328 225.965674 
L 379.7184 228.560282 
L 382.0992 231.553709 
L 385.968 236.010912 
L 388.3488 238.455701 
L 390.1344 240.003874 
L 391.92 241.247268 
L 393.408 242.039546 
L 394.896 242.613503 
L 396.384 242.974208 
L 397.872 243.123405 
L 399.36 243.060029 
L 400.848 242.784135 
L 402.336 242.300322 
L 404.1216 241.457245 
L 405.9072 240.33661 
L 407.6928 238.924269 
L 409.1808 237.490925 
L 410.6688 235.78365 
L 412.1568 233.770972 
L 413.9424 230.950722 
L 416.0256 227.212845 
L 421.0848 217.89863 
L 424.0608 213.08965 
L 426.4416 209.08123 
L 427.9296 206.142399 
L 429.4176 202.704781 
L 430.9056 198.741463 
L 432.9888 192.494143 
L 442.2144 163.182856 
L 443.7024 157.293024 
L 445.1904 150.513167 
L 446.976 141.323444 
L 450.8448 120.992944 
L 452.0352 115.99686 
L 452.928 112.997037 
L 453.8208 110.739079 
L 454.416 109.671297 
L 455.0112 108.958587 
L 455.6064 108.595298 
L 456.2016 108.567224 
L 456.7968 108.85227 
L 457.392 109.421429 
L 458.2848 110.730827 
L 459.1776 112.467244 
L 460.6656 115.923934 
L 463.344 122.251432 
L 464.832 125.139752 
L 466.0224 127.012702 
L 467.2128 128.536149 
L 468.7008 130.068808 
L 470.4864 131.555216 
L 472.272 132.749947 
L 473.4624 133.336093 
L 474.6528 133.675968 
L 475.5456 133.728564 
L 476.4384 133.588604 
L 477.3312 133.257557 
L 478.5216 132.563134 
L 482.0928 130.212513 
L 482.9856 130.031421 
L 483.5808 130.092457 
L 484.176 130.319874 
L 484.7712 130.725006 
L 485.664 131.673671 
L 486.5568 133.014085 
L 487.7472 135.311509 
L 489.8304 140.05465 
L 491.3184 143.233182 
L 492.2112 144.769394 
L 493.104 145.906606 
L 493.6992 146.413323 
L 494.2944 146.710619 
L 494.8896 146.801802 
L 495.4848 146.69951 
L 496.3776 146.232793 
L 497.568 145.200215 
L 499.6512 143.243999 
L 500.544 142.762944 
L 501.1392 142.671298 
L 501.7344 142.804161 
L 502.3296 143.188798 
L 502.9248 143.84419 
L 503.52 144.780448 
L 504.4128 146.711272 
L 505.3056 149.240769 
L 506.496 153.412838 
L 507.984 159.537251 
L 512.1504 177.219019 
L 513.6384 182.380968 
L 515.1264 186.711767 
L 516.6144 190.367331 
L 518.4 194.239083 
L 518.4 194.239083 
" clip-path="url(#pe2b0ca5e3a)" style="fill: none; stroke: #ff7f0e; stroke-width: 1.5; stroke-linecap: square"/>
   </g>
   <g id="patch_3">
    <path d="M 72 378 
L 72 51.84 
" style="fill: none; stroke: #000000; stroke-width: 0.8; stroke-linejoin: miter; stroke-linecap: square"/>
   </g>
   <g id="patch_4">
    <path d="M 518.4 378 
L 518.4 51.84 
" style="fill: none; stroke: #000000; stroke-width: 0.8; stroke-linejoin: miter; stroke-linecap: square"/>
   </g>
   <g id="patch_5">
    <path d="M 72 378 
L 518.4 378 
" style="fill: none; stroke: #000000; stroke-width: 0.8; stroke-linejoin: miter; stroke-linecap: square"/>
   </g>
   <g id="patch_6">
    <path d="M 72 51.84 
L 518.4 51.84 
" style="fill: none; stroke: #000000; stroke-width: 0.8; stroke-linejoin: miter; stroke-linecap: square"/>
   </g>
   <g id="legend_1">
    <g id="patch_7">
     <path d="M 336.1425 372 
L 510 372 
Q 512.4 372 512.4 369.6 
L 512.4 335.5725 
Q 512.4 333.1725 510 333.1725 
L 336.1425 333.1725 
Q 333.7425 333.1725 333.7425 335.5725 
L 333.7425 369.6 
Q 333.7425 372 336.1425 372 
z
" style="fill: #ffffff; opacity: 0.8; stroke: #cccccc; stroke-linejoin: miter"/>
    </g>
    <g id="line2d_19">
     <path d="M 338.5425 342.890625 
L 350.5425 342.890625 
L 362.5425 342.890625 
" style="fill: none; stroke: #1f77b4; stroke-width: 1.5; stroke-linecap: square"/>
    </g>
    <g id="text_19">
     <!-- Circular random walk -->
     <g transform="translate(372.1425 347.090625)scale(0.12 -0.12)">
      <defs>
       <path id="DejaVuSans-43" d="M 4122 4306 
L 4122 3641 
Q 3803 3938 3442 4084 
Q 3081 4231 2675 4231 
Q 1875 4231 1450 3742 
Q 1025 3253 1025 2328 
Q 1025 1406 1450 917 
Q 1875 428 2675 428 
Q 3081 428 3442 575 
Q 3803 722 4122 1019 
L 4122 359 
Q 3791 134 3420 21 
Q 3050 -91 2638 -91 
Q 1578 -91 968 557 
Q 359 1206 359 2328 
Q 359 3453 968 4101 
Q 1578 4750 2638 4750 
Q 3056 4750 3426 4639 
Q 3797 4528 4122 4306 
z
" transform="scale(0.015625)"/>
       <path id="DejaVuSans-69" d="M 603 3500 
L 1178 3500 
L 1178 0 
L 603 0 
L 603 3500 
z
M 603 4863 
L 1178 4863 
L 1178 4134 
L 603 4134 
L 603 4863 
z
" transform="scale(0.015625)"/>
       <path id="DejaVuSans-72" d="M 2631 2963 
Q 2534 3019 2420 3045 
Q 2306 3072 2169 3072 
Q 1681 3072 1420 2755 
Q 1159 2438 1159 1844 
L 1159 0 
L 581 0 
L 581 3500 
L 1159 3500 
L 1159 2956 
Q 1341 3275 1631 3429 
Q 1922 3584 2338 3584 
Q 2397 3584 2469 3576 
Q 2541 3569 2628 3553 
L 2631 2963 
z
" transform="scale(0.015625)"/>
       <path id="DejaVuSans-63" d="M 3122 3366 
L 3122 2828 
Q 2878 2963 2633 3030 
Q 2388 3097 2138 3097 
Q 1578 3097 1268 2742 
Q 959 2388 959 1747 
Q 959 1106 1268 751 
Q 1578 397 2138 397 
Q 2388 397 2633 464 
Q 2878 531 3122 666 
L 3122 134 
Q 2881 22 2623 -34 
Q 2366 -91 2075 -91 
Q 1284 -91 818 406 
Q 353 903 353 1747 
Q 353 2603 823 3093 
Q 1294 3584 2113 3584 
Q 2378 3584 2631 3529 
Q 2884 3475 3122 3366 
z
" transform="scale(0.015625)"/>
       <path id="DejaVuSans-75" d="M 544 1381 
L 544 3500 
L 1119 3500 
L 1119 1403 
Q 1119 906 1312 657 
Q 1506 409 1894 409 
Q 2359 409 2629 706 
Q 2900 1003 2900 1516 
L 2900 3500 
L 3475 3500 
L 3475 0 
L 2900 0 
L 2900 538 
Q 2691 219 2414 64 
Q 2138 -91 1772 -91 
Q 1169 -91 856 284 
Q 544 659 544 1381 
z
M 1991 3584 
L 1991 3584 
z
" transform="scale(0.015625)"/>
       <path id="DejaVuSans-6c" d="M 603 4863 
L 1178 4863 
L 1178 0 
L 603 0 
L 603 4863 
z
" transform="scale(0.015625)"/>
       <path id="DejaVuSans-61" d="M 2194 1759 
Q 1497 1759 1228 1600 
Q 959 1441 959 1056 
Q 959 750 1161 570 
Q 1363 391 1709 391 
Q 2188 391 2477 730 
Q 2766 1069 2766 1631 
L 2766 1759 
L 2194 1759 
z
M 3341 1997 
L 3341 0 
L 2766 0 
L 2766 531 
Q 2569 213 2275 61 
Q 1981 -91 1556 -91 
Q 1019 -91 701 211 
Q 384 513 384 1019 
Q 384 1609 779 1909 
Q 1175 2209 1959 2209 
L 2766 2209 
L 2766 2266 
Q 2766 2663 2505 2880 
Q 2244 3097 1772 3097 
Q 1472 3097 1187 3025 
Q 903 2953 641 2809 
L 641 3341 
Q 956 3463 1253 3523 
Q 1550 3584 1831 3584 
Q 2591 3584 2966 3190 
Q 3341 2797 3341 1997 
z
" transform="scale(0.015625)"/>
       <path id="DejaVuSans-20" transform="scale(0.015625)"/>
       <path id="DejaVuSans-6e" d="M 3513 2113 
L 3513 0 
L 2938 0 
L 2938 2094 
Q 2938 2591 2744 2837 
Q 2550 3084 2163 3084 
Q 1697 3084 1428 2787 
Q 1159 2491 1159 1978 
L 1159 0 
L 581 0 
L 581 3500 
L 1159 3500 
L 1159 2956 
Q 1366 3272 1645 3428 
Q 1925 3584 2291 3584 
Q 2894 3584 3203 3211 
Q 3513 2838 3513 2113 
z
" transform="scale(0.015625)"/>
       <path id="DejaVuSans-64" d="M 2906 2969 
L 2906 4863 
L 3481 4863 
L 3481 0 
L 2906 0 
L 2906 525 
Q 2725 213 2448 61 
Q 2172 -91 1784 -91 
Q 1150 -91 751 415 
Q 353 922 353 1747 
Q 353 2572 751 3078 
Q 1150 3584 1784 3584 
Q 2172 3584 2448 3432 
Q 2725 3281 2906 2969 
z
M 947 1747 
Q 947 1113 1208 752 
Q 1469 391 1925 391 
Q 2381 391 2643 752 
Q 2906 1113 2906 1747 
Q 2906 2381 2643 2742 
Q 2381 3103 1925 3103 
Q 1469 3103 1208 2742 
Q 947 2381 947 1747 
z
" transform="scale(0.015625)"/>
       <path id="DejaVuSans-6f" d="M 1959 3097 
Q 1497 3097 1228 2736 
Q 959 2375 959 1747 
Q 959 1119 1226 758 
Q 1494 397 1959 397 
Q 2419 397 2687 759 
Q 2956 1122 2956 1747 
Q 2956 2369 2687 2733 
Q 2419 3097 1959 3097 
z
M 1959 3584 
Q 2709 3584 3137 3096 
Q 3566 2609 3566 1747 
Q 3566 888 3137 398 
Q 2709 -91 1959 -91 
Q 1206 -91 779 398 
Q 353 888 353 1747 
Q 353 2609 779 3096 
Q 1206 3584 1959 3584 
z
" transform="scale(0.015625)"/>
       <path id="DejaVuSans-6d" d="M 3328 2828 
Q 3544 3216 3844 3400 
Q 4144 3584 4550 3584 
Q 5097 3584 5394 3201 
Q 5691 2819 5691 2113 
L 5691 0 
L 5113 0 
L 5113 2094 
Q 5113 2597 4934 2840 
Q 4756 3084 4391 3084 
Q 3944 3084 3684 2787 
Q 3425 2491 3425 1978 
L 3425 0 
L 2847 0 
L 2847 2094 
Q 2847 2600 2669 2842 
Q 2491 3084 2119 3084 
Q 1678 3084 1418 2786 
Q 1159 2488 1159 1978 
L 1159 0 
L 581 0 
L 581 3500 
L 1159 3500 
L 1159 2956 
Q 1356 3278 1631 3431 
Q 1906 3584 2284 3584 
Q 2666 3584 2933 3390 
Q 3200 3197 3328 2828 
z
" transform="scale(0.015625)"/>
       <path id="DejaVuSans-77" d="M 269 3500 
L 844 3500 
L 1563 769 
L 2278 3500 
L 2956 3500 
L 3675 769 
L 4391 3500 
L 4966 3500 
L 4050 0 
L 3372 0 
L 2619 2869 
L 1863 0 
L 1184 0 
L 269 3500 
z
" transform="scale(0.015625)"/>
       <path id="DejaVuSans-6b" d="M 581 4863 
L 1159 4863 
L 1159 1991 
L 2875 3500 
L 3609 3500 
L 1753 1863 
L 3688 0 
L 2938 0 
L 1159 1709 
L 1159 0 
L 581 0 
L 581 4863 
z
" transform="scale(0.015625)"/>
      </defs>
      <use xlink:href="#DejaVuSans-43"/>
      <use xlink:href="#DejaVuSans-69" x="69.824219"/>
      <use xlink:href="#DejaVuSans-72" x="97.607422"/>
      <use xlink:href="#DejaVuSans-63" x="136.470703"/>
      <use xlink:href="#DejaVuSans-75" x="191.451172"/>
      <use xlink:href="#DejaVuSans-6c" x="254.830078"/>
      <use xlink:href="#DejaVuSans-61" x="282.613281"/>
      <use xlink:href="#DejaVuSans-72" x="343.892578"/>
      <use xlink:href="#DejaVuSans-20" x="385.005859"/>
      <use xlink:href="#DejaVuSans-72" x="416.792969"/>
      <use xlink:href="#DejaVuSans-61" x="457.90625"/>
      <use xlink:href="#DejaVuSans-6e" x="519.185547"/>
      <use xlink:href="#DejaVuSans-64" x="582.564453"/>
      <use xlink:href="#DejaVuSans-6f" x="646.041016"/>
      <use xlink:href="#DejaVuSans-6d" x="707.222656"/>
      <use xlink:href="#DejaVuSans-20" x="804.634766"/>
      <use xlink:href="#DejaVuSans-77" x="836.421875"/>
      <use xlink:href="#DejaVuSans-61" x="918.208984"/>
      <use xlink:href="#DejaVuSans-6c" x="979.488281"/>
      <use xlink:href="#DejaVuSans-6b" x="1007.271484"/>
     </g>
    </g>
    <g id="line2d_20">
     <path d="M 338.5425 360.504375 
L 350.5425 360.504375 
L 362.5425 360.504375 
" style="fill: none; stroke: #ff7f0e; stroke-width: 1.5; stroke-linecap: square"/>
    </g>
    <g id="text_20">
     <!-- Circular quantum walk -->
     <g transform="translate(372.1425 364.704375)scale(0.12 -0.12)">
      <defs>
       <path id="DejaVuSans-71" d="M 947 1747 
Q 947 1113 1208 752 
Q 1469 391 1925 391 
Q 2381 391 2643 752 
Q 2906 1113 2906 1747 
Q 2906 2381 2643 2742 
Q 2381 3103 1925 3103 
Q 1469 3103 1208 2742 
Q 947 2381 947 1747 
z
M 2906 525 
Q 2725 213 2448 61 
Q 2172 -91 1784 -91 
Q 1150 -91 751 415 
Q 353 922 353 1747 
Q 353 2572 751 3078 
Q 1150 3584 1784 3584 
Q 2172 3584 2448 3432 
Q 2725 3281 2906 2969 
L 2906 3500 
L 3481 3500 
L 3481 -1331 
L 2906 -1331 
L 2906 525 
z
" transform="scale(0.015625)"/>
      </defs>
      <use xlink:href="#DejaVuSans-43"/>
      <use xlink:href="#DejaVuSans-69" x="69.824219"/>
      <use xlink:href="#DejaVuSans-72" x="97.607422"/>
      <use xlink:href="#DejaVuSans-63" x="136.470703"/>
      <use xlink:href="#DejaVuSans-75" x="191.451172"/>
      <use xlink:href="#DejaVuSans-6c" x="254.830078"/>
      <use xlink:href="#DejaVuSans-61" x="282.613281"/>
      <use xlink:href="#DejaVuSans-72" x="343.892578"/>
      <use xlink:href="#DejaVuSans-20" x="385.005859"/>
      <use xlink:href="#DejaVuSans-71" x="416.792969"/>
      <use xlink:href="#DejaVuSans-75" x="480.269531"/>
      <use xlink:href="#DejaVuSans-61" x="543.648438"/>
      <use xlink:href="#DejaVuSans-6e" x="604.927734"/>
      <use xlink:href="#DejaVuSans-74" x="668.306641"/>
      <use xlink:href="#DejaVuSans-75" x="707.515625"/>
      <use xlink:href="#DejaVuSans-6d" x="770.894531"/>
      <use xlink:href="#DejaVuSans-20" x="868.306641"/>
      <use xlink:href="#DejaVuSans-77" x="900.09375"/>
      <use xlink:href="#DejaVuSans-61" x="981.880859"/>
      <use xlink:href="#DejaVuSans-6c" x="1043.160156"/>
      <use xlink:href="#DejaVuSans-6b" x="1070.943359"/>
     </g>
    </g>
   </g>
  </g>
 </g>
 <defs>
  <clipPath id="pe2b0ca5e3a">
   <rect x="72" y="51.84" width="446.4" height="326.16"/>
  </clipPath>
 </defs>
</svg>
