<?xml version="1.0" encoding="utf-8" standalone="no"?>
<!DOCTYPE svg PUBLIC "-//W3C//DTD SVG 1.1//EN"
  "http://www.w3.org/Graphics/SVG/1.1/DTD/svg11.dtd">
<svg xmlns:xlink="http://www.w3.org/1999/xlink" width="576pt" height="432pt" viewBox="0 0 576 432" xmlns="http://www.w3.org/2000/svg" version="1.1">
 <metadata>
  <rdf:RDF xmlns:dc="http://purl.org/dc/elements/1.1/" xmlns:cc="http://creativecommons.org/ns#" xmlns:rdf="http://www.w3.org/1999/02/22-rdf-syntax-ns#">
   <cc:Work>
    <dc:type rdf:resource="http://purl.org/dc/dcmitype/StillImage"/>
    <dc:date>2022-06-14T15:05:27.011959</dc:date>
    <dc:format>image/svg+xml</dc:format>
    <dc:creator>
     <cc:Agent>
      <dc:title>Matplotlib v3.5.1, https://matplotlib.org/</dc:title>
     </cc:Agent>
    </dc:creator>
   </cc:Work>
  </rdf:RDF>
 </metadata>
 <defs>
  <style type="text/css">*{stroke-linejoin: round; stroke-linecap: butt}</style>
 </defs>
 <g id="figure_1">
  <g id="patch_1">
   <path d="M 0 432 
L 576 432 
L 576 0 
L 0 0 
L 0 432 
z
" style="fill: none"/>
  </g>
  <g id="axes_1">
   <g id="patch_2">
    <path d="M 72 378 
L 518.4 378 
L 518.4 51.84 
L 72 51.84 
z
" style="fill: #ffffff"/>
   </g>
   <g id="matplotlib.axis_1">
    <g id="xtick_1">
     <g id="line2d_1">
      <defs>
       <path id="m0ce833f8b6" d="M 0 0 
L 0 3.5 
" style="stroke: #000000; stroke-width: 0.8"/>
      </defs>
      <g>
       <use xlink:href="#m0ce833f8b6" x="72" y="378" style="stroke: #000000; stroke-width: 0.8"/>
      </g>
     </g>
     <g id="text_1">
      <!-- 0 -->
      <g transform="translate(68.1825 394.118125)scale(0.12 -0.12)">
       <defs>
        <path id="DejaVuSans-30" d="M 2034 4250 
Q 1547 4250 1301 3770 
Q 1056 3291 1056 2328 
Q 1056 1369 1301 889 
Q 1547 409 2034 409 
Q 2525 409 2770 889 
Q 3016 1369 3016 2328 
Q 3016 3291 2770 3770 
Q 2525 4250 2034 4250 
z
M 2034 4750 
Q 2819 4750 3233 4129 
Q 3647 3509 3647 2328 
Q 3647 1150 3233 529 
Q 2819 -91 2034 -91 
Q 1250 -91 836 529 
Q 422 1150 422 2328 
Q 422 3509 836 4129 
Q 1250 4750 2034 4750 
z
" transform="scale(0.015625)"/>
       </defs>
       <use xlink:href="#DejaVuSans-30"/>
      </g>
     </g>
    </g>
    <g id="xtick_2">
     <g id="line2d_2">
      <g>
       <use xlink:href="#m0ce833f8b6" x="131.52" y="378" style="stroke: #000000; stroke-width: 0.8"/>
      </g>
     </g>
     <g id="text_2">
      <!-- 2 -->
      <g transform="translate(127.7025 394.118125)scale(0.12 -0.12)">
       <defs>
        <path id="DejaVuSans-32" d="M 1228 531 
L 3431 531 
L 3431 0 
L 469 0 
L 469 531 
Q 828 903 1448 1529 
Q 2069 2156 2228 2338 
Q 2531 2678 2651 2914 
Q 2772 3150 2772 3378 
Q 2772 3750 2511 3984 
Q 2250 4219 1831 4219 
Q 1534 4219 1204 4116 
Q 875 4013 500 3803 
L 500 4441 
Q 881 4594 1212 4672 
Q 1544 4750 1819 4750 
Q 2544 4750 2975 4387 
Q 3406 4025 3406 3419 
Q 3406 3131 3298 2873 
Q 3191 2616 2906 2266 
Q 2828 2175 2409 1742 
Q 1991 1309 1228 531 
z
" transform="scale(0.015625)"/>
       </defs>
       <use xlink:href="#DejaVuSans-32"/>
      </g>
     </g>
    </g>
    <g id="xtick_3">
     <g id="line2d_3">
      <g>
       <use xlink:href="#m0ce833f8b6" x="191.04" y="378" style="stroke: #000000; stroke-width: 0.8"/>
      </g>
     </g>
     <g id="text_3">
      <!-- 4 -->
      <g transform="translate(187.2225 394.118125)scale(0.12 -0.12)">
       <defs>
        <path id="DejaVuSans-34" d="M 2419 4116 
L 825 1625 
L 2419 1625 
L 2419 4116 
z
M 2253 4666 
L 3047 4666 
L 3047 1625 
L 3713 1625 
L 3713 1100 
L 3047 1100 
L 3047 0 
L 2419 0 
L 2419 1100 
L 313 1100 
L 313 1709 
L 2253 4666 
z
" transform="scale(0.015625)"/>
       </defs>
       <use xlink:href="#DejaVuSans-34"/>
      </g>
     </g>
    </g>
    <g id="xtick_4">
     <g id="line2d_4">
      <g>
       <use xlink:href="#m0ce833f8b6" x="250.56" y="378" style="stroke: #000000; stroke-width: 0.8"/>
      </g>
     </g>
     <g id="text_4">
      <!-- 6 -->
      <g transform="translate(246.7425 394.118125)scale(0.12 -0.12)">
       <defs>
        <path id="DejaVuSans-36" d="M 2113 2584 
Q 1688 2584 1439 2293 
Q 1191 2003 1191 1497 
Q 1191 994 1439 701 
Q 1688 409 2113 409 
Q 2538 409 2786 701 
Q 3034 994 3034 1497 
Q 3034 2003 2786 2293 
Q 2538 2584 2113 2584 
z
M 3366 4563 
L 3366 3988 
Q 3128 4100 2886 4159 
Q 2644 4219 2406 4219 
Q 1781 4219 1451 3797 
Q 1122 3375 1075 2522 
Q 1259 2794 1537 2939 
Q 1816 3084 2150 3084 
Q 2853 3084 3261 2657 
Q 3669 2231 3669 1497 
Q 3669 778 3244 343 
Q 2819 -91 2113 -91 
Q 1303 -91 875 529 
Q 447 1150 447 2328 
Q 447 3434 972 4092 
Q 1497 4750 2381 4750 
Q 2619 4750 2861 4703 
Q 3103 4656 3366 4563 
z
" transform="scale(0.015625)"/>
       </defs>
       <use xlink:href="#DejaVuSans-36"/>
      </g>
     </g>
    </g>
    <g id="xtick_5">
     <g id="line2d_5">
      <g>
       <use xlink:href="#m0ce833f8b6" x="310.08" y="378" style="stroke: #000000; stroke-width: 0.8"/>
      </g>
     </g>
     <g id="text_5">
      <!-- 8 -->
      <g transform="translate(306.2625 394.118125)scale(0.12 -0.12)">
       <defs>
        <path id="DejaVuSans-38" d="M 2034 2216 
Q 1584 2216 1326 1975 
Q 1069 1734 1069 1313 
Q 1069 891 1326 650 
Q 1584 409 2034 409 
Q 2484 409 2743 651 
Q 3003 894 3003 1313 
Q 3003 1734 2745 1975 
Q 2488 2216 2034 2216 
z
M 1403 2484 
Q 997 2584 770 2862 
Q 544 3141 544 3541 
Q 544 4100 942 4425 
Q 1341 4750 2034 4750 
Q 2731 4750 3128 4425 
Q 3525 4100 3525 3541 
Q 3525 3141 3298 2862 
Q 3072 2584 2669 2484 
Q 3125 2378 3379 2068 
Q 3634 1759 3634 1313 
Q 3634 634 3220 271 
Q 2806 -91 2034 -91 
Q 1263 -91 848 271 
Q 434 634 434 1313 
Q 434 1759 690 2068 
Q 947 2378 1403 2484 
z
M 1172 3481 
Q 1172 3119 1398 2916 
Q 1625 2713 2034 2713 
Q 2441 2713 2670 2916 
Q 2900 3119 2900 3481 
Q 2900 3844 2670 4047 
Q 2441 4250 2034 4250 
Q 1625 4250 1398 4047 
Q 1172 3844 1172 3481 
z
" transform="scale(0.015625)"/>
       </defs>
       <use xlink:href="#DejaVuSans-38"/>
      </g>
     </g>
    </g>
    <g id="xtick_6">
     <g id="line2d_6">
      <g>
       <use xlink:href="#m0ce833f8b6" x="369.6" y="378" style="stroke: #000000; stroke-width: 0.8"/>
      </g>
     </g>
     <g id="text_6">
      <!-- 10 -->
      <g transform="translate(361.965 394.118125)scale(0.12 -0.12)">
       <defs>
        <path id="DejaVuSans-31" d="M 794 531 
L 1825 531 
L 1825 4091 
L 703 3866 
L 703 4441 
L 1819 4666 
L 2450 4666 
L 2450 531 
L 3481 531 
L 3481 0 
L 794 0 
L 794 531 
z
" transform="scale(0.015625)"/>
       </defs>
       <use xlink:href="#DejaVuSans-31"/>
       <use xlink:href="#DejaVuSans-30" x="63.623047"/>
      </g>
     </g>
    </g>
    <g id="xtick_7">
     <g id="line2d_7">
      <g>
       <use xlink:href="#m0ce833f8b6" x="429.12" y="378" style="stroke: #000000; stroke-width: 0.8"/>
      </g>
     </g>
     <g id="text_7">
      <!-- 12 -->
      <g transform="translate(421.485 394.118125)scale(0.12 -0.12)">
       <use xlink:href="#DejaVuSans-31"/>
       <use xlink:href="#DejaVuSans-32" x="63.623047"/>
      </g>
     </g>
    </g>
    <g id="xtick_8">
     <g id="line2d_8">
      <g>
       <use xlink:href="#m0ce833f8b6" x="488.64" y="378" style="stroke: #000000; stroke-width: 0.8"/>
      </g>
     </g>
     <g id="text_8">
      <!-- 14 -->
      <g transform="translate(481.005 394.118125)scale(0.12 -0.12)">
       <use xlink:href="#DejaVuSans-31"/>
       <use xlink:href="#DejaVuSans-34" x="63.623047"/>
      </g>
     </g>
    </g>
    <g id="text_9">
     <!-- t -->
     <g transform="translate(292.847812 409.731875)scale(0.12 -0.12)">
      <defs>
       <path id="DejaVuSans-74" d="M 1172 4494 
L 1172 3500 
L 2356 3500 
L 2356 3053 
L 1172 3053 
L 1172 1153 
Q 1172 725 1289 603 
Q 1406 481 1766 481 
L 2356 481 
L 2356 0 
L 1766 0 
Q 1100 0 847 248 
Q 594 497 594 1153 
L 594 3053 
L 172 3053 
L 172 3500 
L 594 3500 
L 594 4494 
L 1172 4494 
z
" transform="scale(0.015625)"/>
      </defs>
      <use xlink:href="#DejaVuSans-74"/>
     </g>
    </g>
   </g>
   <g id="matplotlib.axis_2">
    <g id="ytick_1">
     <g id="line2d_9">
      <defs>
       <path id="mab72f3fc56" d="M 0 0 
L -3.5 0 
" style="stroke: #000000; stroke-width: 0.8"/>
      </defs>
      <g>
       <use xlink:href="#mab72f3fc56" x="72" y="378" style="stroke: #000000; stroke-width: 0.8"/>
      </g>
     </g>
     <g id="text_10">
      <!-- 0 -->
      <g transform="translate(57.365 382.559062)scale(0.12 -0.12)">
       <use xlink:href="#DejaVuSans-30"/>
      </g>
     </g>
    </g>
    <g id="ytick_2">
     <g id="line2d_10">
      <g>
       <use xlink:href="#mab72f3fc56" x="72" y="323.64" style="stroke: #000000; stroke-width: 0.8"/>
      </g>
     </g>
     <g id="text_11">
      <!-- 10 -->
      <g transform="translate(49.73 328.199062)scale(0.12 -0.12)">
       <use xlink:href="#DejaVuSans-31"/>
       <use xlink:href="#DejaVuSans-30" x="63.623047"/>
      </g>
     </g>
    </g>
    <g id="ytick_3">
     <g id="line2d_11">
      <g>
       <use xlink:href="#mab72f3fc56" x="72" y="269.28" style="stroke: #000000; stroke-width: 0.8"/>
      </g>
     </g>
     <g id="text_12">
      <!-- 20 -->
      <g transform="translate(49.73 273.839063)scale(0.12 -0.12)">
       <use xlink:href="#DejaVuSans-32"/>
       <use xlink:href="#DejaVuSans-30" x="63.623047"/>
      </g>
     </g>
    </g>
    <g id="ytick_4">
     <g id="line2d_12">
      <g>
       <use xlink:href="#mab72f3fc56" x="72" y="214.92" style="stroke: #000000; stroke-width: 0.8"/>
      </g>
     </g>
     <g id="text_13">
      <!-- 30 -->
      <g transform="translate(49.73 219.479063)scale(0.12 -0.12)">
       <defs>
        <path id="DejaVuSans-33" d="M 2597 2516 
Q 3050 2419 3304 2112 
Q 3559 1806 3559 1356 
Q 3559 666 3084 287 
Q 2609 -91 1734 -91 
Q 1441 -91 1130 -33 
Q 819 25 488 141 
L 488 750 
Q 750 597 1062 519 
Q 1375 441 1716 441 
Q 2309 441 2620 675 
Q 2931 909 2931 1356 
Q 2931 1769 2642 2001 
Q 2353 2234 1838 2234 
L 1294 2234 
L 1294 2753 
L 1863 2753 
Q 2328 2753 2575 2939 
Q 2822 3125 2822 3475 
Q 2822 3834 2567 4026 
Q 2313 4219 1838 4219 
Q 1578 4219 1281 4162 
Q 984 4106 628 3988 
L 628 4550 
Q 988 4650 1302 4700 
Q 1616 4750 1894 4750 
Q 2613 4750 3031 4423 
Q 3450 4097 3450 3541 
Q 3450 3153 3228 2886 
Q 3006 2619 2597 2516 
z
" transform="scale(0.015625)"/>
       </defs>
       <use xlink:href="#DejaVuSans-33"/>
       <use xlink:href="#DejaVuSans-30" x="63.623047"/>
      </g>
     </g>
    </g>
    <g id="ytick_5">
     <g id="line2d_13">
      <g>
       <use xlink:href="#mab72f3fc56" x="72" y="160.56" style="stroke: #000000; stroke-width: 0.8"/>
      </g>
     </g>
     <g id="text_14">
      <!-- 40 -->
      <g transform="translate(49.73 165.119062)scale(0.12 -0.12)">
       <use xlink:href="#DejaVuSans-34"/>
       <use xlink:href="#DejaVuSans-30" x="63.623047"/>
      </g>
     </g>
    </g>
    <g id="ytick_6">
     <g id="line2d_14">
      <g>
       <use xlink:href="#mab72f3fc56" x="72" y="106.2" style="stroke: #000000; stroke-width: 0.8"/>
      </g>
     </g>
     <g id="text_15">
      <!-- 50 -->
      <g transform="translate(49.73 110.759062)scale(0.12 -0.12)">
       <defs>
        <path id="DejaVuSans-35" d="M 691 4666 
L 3169 4666 
L 3169 4134 
L 1269 4134 
L 1269 2991 
Q 1406 3038 1543 3061 
Q 1681 3084 1819 3084 
Q 2600 3084 3056 2656 
Q 3513 2228 3513 1497 
Q 3513 744 3044 326 
Q 2575 -91 1722 -91 
Q 1428 -91 1123 -41 
Q 819 9 494 109 
L 494 744 
Q 775 591 1075 516 
Q 1375 441 1709 441 
Q 2250 441 2565 725 
Q 2881 1009 2881 1497 
Q 2881 1984 2565 2268 
Q 2250 2553 1709 2553 
Q 1456 2553 1204 2497 
Q 953 2441 691 2322 
L 691 4666 
z
" transform="scale(0.015625)"/>
       </defs>
       <use xlink:href="#DejaVuSans-35"/>
       <use xlink:href="#DejaVuSans-30" x="63.623047"/>
      </g>
     </g>
    </g>
    <g id="ytick_7">
     <g id="line2d_15">
      <g>
       <use xlink:href="#mab72f3fc56" x="72" y="51.84" style="stroke: #000000; stroke-width: 0.8"/>
      </g>
     </g>
     <g id="text_16">
      <!-- 60 -->
      <g transform="translate(49.73 56.399063)scale(0.12 -0.12)">
       <use xlink:href="#DejaVuSans-36"/>
       <use xlink:href="#DejaVuSans-30" x="63.623047"/>
      </g>
     </g>
    </g>
    <g id="text_17">
     <!-- MSD -->
     <g transform="translate(43.234375 228.525937)rotate(-90)scale(0.12 -0.12)">
      <defs>
       <path id="DejaVuSans-4d" d="M 628 4666 
L 1569 4666 
L 2759 1491 
L 3956 4666 
L 4897 4666 
L 4897 0 
L 4281 0 
L 4281 4097 
L 3078 897 
L 2444 897 
L 1241 4097 
L 1241 0 
L 628 0 
L 628 4666 
z
" transform="scale(0.015625)"/>
       <path id="DejaVuSans-53" d="M 3425 4513 
L 3425 3897 
Q 3066 4069 2747 4153 
Q 2428 4238 2131 4238 
Q 1616 4238 1336 4038 
Q 1056 3838 1056 3469 
Q 1056 3159 1242 3001 
Q 1428 2844 1947 2747 
L 2328 2669 
Q 3034 2534 3370 2195 
Q 3706 1856 3706 1288 
Q 3706 609 3251 259 
Q 2797 -91 1919 -91 
Q 1588 -91 1214 -16 
Q 841 59 441 206 
L 441 856 
Q 825 641 1194 531 
Q 1563 422 1919 422 
Q 2459 422 2753 634 
Q 3047 847 3047 1241 
Q 3047 1584 2836 1778 
Q 2625 1972 2144 2069 
L 1759 2144 
Q 1053 2284 737 2584 
Q 422 2884 422 3419 
Q 422 4038 858 4394 
Q 1294 4750 2059 4750 
Q 2388 4750 2728 4690 
Q 3069 4631 3425 4513 
z
" transform="scale(0.015625)"/>
       <path id="DejaVuSans-44" d="M 1259 4147 
L 1259 519 
L 2022 519 
Q 2988 519 3436 956 
Q 3884 1394 3884 2338 
Q 3884 3275 3436 3711 
Q 2988 4147 2022 4147 
L 1259 4147 
z
M 628 4666 
L 1925 4666 
Q 3281 4666 3915 4102 
Q 4550 3538 4550 2338 
Q 4550 1131 3912 565 
Q 3275 0 1925 0 
L 628 0 
L 628 4666 
z
" transform="scale(0.015625)"/>
      </defs>
      <use xlink:href="#DejaVuSans-4d"/>
      <use xlink:href="#DejaVuSans-53" x="86.279297"/>
      <use xlink:href="#DejaVuSans-44" x="149.755859"/>
     </g>
    </g>
   </g>
   <g id="line2d_16">
    <path d="M 72.2976 377.642624 
L 73.488 375.92127 
L 74.6784 373.794287 
L 76.1664 370.673927 
L 77.952 366.418409 
L 80.6304 359.390059 
L 88.6656 337.837592 
L 91.6416 330.640045 
L 94.32 324.706701 
L 96.9984 319.307823 
L 99.6768 314.433947 
L 102.3552 310.060201 
L 105.0336 306.153379 
L 107.712 302.676425 
L 110.3904 299.591247 
L 113.0688 296.860434 
L 115.7472 294.448281 
L 118.4256 292.321354 
L 121.4016 290.255158 
L 124.3776 288.464499 
L 127.6512 286.771874 
L 130.9248 285.330153 
L 134.496 284.001782 
L 138.3648 282.80569 
L 142.5312 281.752239 
L 147.2928 280.790471 
L 152.6496 279.952894 
L 158.6016 279.25496 
L 165.744 278.655273 
L 174.3744 278.171361 
L 185.088 277.805556 
L 199.6704 277.544623 
L 222.288 277.385944 
L 270.4992 277.32144 
L 518.4 277.315826 
L 518.4 277.315826 
" clip-path="url(#p693101e4e8)" style="fill: none; stroke: #1f77b4; stroke-width: 1.5; stroke-linecap: square"/>
   </g>
   <g id="line2d_17">
    <path d="M 72.2976 377.989264 
L 73.1904 377.826744 
L 74.0832 377.459659 
L 74.976 376.867488 
L 75.8688 376.020988 
L 76.7616 374.885006 
L 77.6544 373.421703 
L 78.5472 371.593807 
L 79.7376 368.531877 
L 80.928 364.69907 
L 82.1184 360.055944 
L 83.3088 354.588456 
L 84.7968 346.610752 
L 86.2848 337.418288 
L 88.0704 324.90444 
L 90.1536 308.462096 
L 92.2368 290.233916 
L 94.6176 267.382704 
L 97.296 239.383011 
L 102.3552 185.344247 
L 103.8432 172.103605 
L 105.0336 163.538023 
L 105.9264 158.602502 
L 106.8192 155.117443 
L 107.4144 153.65342 
L 108.0096 152.897077 
L 108.3072 152.78559 
L 108.6048 152.850862 
L 108.9024 153.091025 
L 109.4976 154.084175 
L 110.0928 155.732809 
L 110.688 157.991648 
L 111.5808 162.396429 
L 112.7712 169.794544 
L 114.5568 182.852263 
L 117.5328 204.756813 
L 119.0208 214.037472 
L 120.5088 221.81111 
L 121.9968 228.229476 
L 123.4848 233.618742 
L 125.2704 239.175614 
L 127.056 244.01785 
L 128.544 247.494124 
L 129.7344 249.814127 
L 130.9248 251.631915 
L 131.8176 252.620736 
L 132.7104 253.26296 
L 133.6032 253.544385 
L 134.1984 253.52792 
L 134.7936 253.34751 
L 135.6864 252.771347 
L 136.5792 251.835487 
L 137.472 250.554419 
L 138.6624 248.353197 
L 140.1504 244.953145 
L 144.6144 234.052216 
L 145.5072 232.542359 
L 146.4 231.460108 
L 146.9952 230.992698 
L 147.5904 230.727889 
L 148.1856 230.655283 
L 148.7808 230.756126 
L 149.6736 231.173622 
L 150.864 232.047573 
L 152.6496 233.426775 
L 153.5424 233.901995 
L 154.4352 234.13316 
L 155.328 234.091758 
L 156.2208 233.786772 
L 157.1136 233.256445 
L 158.304 232.292534 
L 160.0896 230.522869 
L 161.8752 228.427555 
L 163.0656 226.680787 
L 164.256 224.440823 
L 165.4464 221.541809 
L 166.6368 217.921486 
L 168.1248 212.555629 
L 170.8032 202.612758 
L 171.696 199.990824 
L 172.5888 198.045438 
L 173.184 197.193717 
L 173.7792 196.727494 
L 174.3744 196.655076 
L 174.9696 196.969297 
L 175.5648 197.648052 
L 176.16 198.65572 
L 177.0528 200.678807 
L 178.2432 204.02662 
L 181.2192 212.723561 
L 182.4096 215.42244 
L 183.6 217.475336 
L 184.4928 218.629858 
L 185.6832 219.775111 
L 187.1712 220.812057 
L 189.2544 221.934763 
L 190.7424 222.541641 
L 191.9328 222.796677 
L 192.8256 222.778459 
L 193.7184 222.530657 
L 194.6112 222.019956 
L 195.504 221.227624 
L 196.3968 220.149919 
L 197.5872 218.286918 
L 198.7776 215.984148 
L 200.2656 212.599729 
L 202.6464 206.502097 
L 204.7296 201.385445 
L 205.92 199.086373 
L 206.8128 197.890557 
L 207.408 197.41562 
L 208.0032 197.237621 
L 208.5984 197.383903 
L 209.1936 197.874267 
L 209.7888 198.719363 
L 210.384 199.919441 
L 211.2768 202.35817 
L 212.1696 205.484107 
L 213.36 210.478588 
L 217.824 230.287241 
L 219.0144 234.150098 
L 220.2048 237.180206 
L 221.3952 239.574056 
L 224.3712 245.121788 
L 225.264 247.323397 
L 226.1568 249.989416 
L 227.3472 254.349446 
L 228.5376 259.603466 
L 230.3232 268.764663 
L 234.192 289.341759 
L 235.68 295.880986 
L 236.8704 300.223239 
L 238.0608 303.772468 
L 239.2512 306.619726 
L 240.4416 308.917095 
L 241.9296 311.29071 
L 249.3696 322.025614 
L 250.56 323.372846 
L 251.4528 324.127113 
L 252.3456 324.609853 
L 253.2384 324.786465 
L 254.1312 324.636516 
L 255.024 324.155282 
L 255.9168 323.354206 
L 256.8096 322.260415 
L 258 320.420229 
L 259.7856 317.119874 
L 262.7616 311.535353 
L 263.952 309.721095 
L 265.1424 308.303116 
L 266.0352 307.518203 
L 266.928 306.958692 
L 268.1184 306.499949 
L 269.904 306.139204 
L 271.392 305.752809 
L 272.2848 305.318793 
L 273.1776 304.645323 
L 274.0704 303.673152 
L 274.9632 302.355945 
L 275.856 300.659939 
L 276.7488 298.561866 
L 277.9392 295.111641 
L 279.1296 290.887077 
L 280.32 285.851887 
L 281.5104 279.955355 
L 282.9984 271.273394 
L 284.4864 261.012189 
L 285.9744 249.095724 
L 287.76 232.714432 
L 290.1408 208.348162 
L 292.8192 181.025014 
L 294.3072 168.119578 
L 295.2 161.810551 
L 296.0928 156.864709 
L 296.688 154.420149 
L 297.2832 152.708854 
L 297.8784 151.760388 
L 298.176 151.577652 
L 298.4736 151.590327 
L 298.7712 151.798063 
L 299.0688 152.199584 
L 299.664 153.574274 
L 300.2592 155.686142 
L 301.152 160.141769 
L 302.0448 165.971094 
L 303.2352 175.474766 
L 304.7232 189.274036 
L 311.2704 252.744001 
L 313.6512 272.582468 
L 315.4368 285.857808 
L 316.9248 295.563717 
L 318.4128 303.748677 
L 319.6032 309.076068 
L 320.7936 313.301611 
L 321.6864 315.787281 
L 322.5792 317.745751 
L 323.472 319.243284 
L 324.3648 320.347691 
L 325.2576 321.118126 
L 326.1504 321.59683 
L 327.0432 321.804303 
L 327.936 321.738695 
L 328.8288 321.379334 
L 329.7216 320.693575 
L 330.6144 319.645446 
L 331.5072 318.204285 
L 332.4 316.351598 
L 333.5904 313.238992 
L 334.7808 309.427568 
L 336.2688 303.781591 
L 337.7568 297.267222 
L 339.5424 288.343066 
L 341.0304 279.871822 
L 342.5184 270.28369 
L 344.304 257.13081 
L 346.0896 242.205807 
L 348.1728 222.90245 
L 350.5536 198.802828 
L 352.9344 172.292295 
L 355.0176 146.629563 
L 359.7792 86.404343 
L 360.9696 75.004348 
L 361.8624 68.590682 
L 362.4576 65.518817 
L 363.0528 63.4967 
L 363.3504 62.895354 
L 363.648 62.572558 
L 363.9456 62.5303 
L 364.2432 62.768883 
L 364.5408 63.286923 
L 365.136 65.147505 
L 365.7312 68.068301 
L 366.3264 71.981595 
L 367.2192 79.514024 
L 368.4096 92.076248 
L 370.1952 114.303845 
L 374.064 163.786941 
L 375.8496 183.679831 
L 377.6352 201.225354 
L 379.4208 216.592077 
L 380.9088 227.757535 
L 382.3968 237.304412 
L 383.5872 243.646007 
L 384.7776 248.735288 
L 385.6704 251.695722 
L 386.5632 253.915881 
L 387.456 255.409437 
L 388.0512 256.016068 
L 388.6464 256.326359 
L 389.2416 256.356502 
L 389.8368 256.125587 
L 390.432 255.655552 
L 391.3248 254.557201 
L 392.2176 253.073477 
L 393.7056 250.05394 
L 395.7888 245.729347 
L 396.6816 244.254107 
L 397.5744 243.219052 
L 398.1696 242.838032 
L 398.7648 242.741727 
L 399.36 242.954452 
L 399.9552 243.4922 
L 400.5504 244.361707 
L 401.1456 245.559884 
L 402.0384 247.942195 
L 402.9312 250.948487 
L 404.1216 255.706245 
L 409.1808 277.106908 
L 410.3712 280.873363 
L 411.5616 284.004968 
L 413.0496 287.240755 
L 415.4304 291.69965 
L 420.4896 300.835019 
L 421.68 302.464634 
L 422.5728 303.389329 
L 423.4656 304.028509 
L 424.3584 304.381488 
L 425.2512 304.473306 
L 426.144 304.352152 
L 427.632 303.861133 
L 429.7152 303.165732 
L 430.9056 303.061418 
L 431.7984 303.203641 
L 432.6912 303.550469 
L 433.8816 304.308467 
L 435.3696 305.596935 
L 437.7504 307.708431 
L 438.6432 308.2449 
L 439.536 308.509214 
L 440.1312 308.495859 
L 440.7264 308.307268 
L 441.3216 307.926435 
L 441.9168 307.339661 
L 442.8096 306.052339 
L 443.7024 304.262015 
L 444.5952 301.970565 
L 445.7856 298.174396 
L 446.976 293.622442 
L 448.464 287.084422 
L 450.8448 275.470534 
L 453.8208 261.027213 
L 455.3088 254.698373 
L 456.4992 250.38634 
L 457.6896 246.914179 
L 458.5824 244.939805 
L 459.4752 243.549652 
L 460.0704 242.959137 
L 460.6656 242.640377 
L 461.2608 242.591203 
L 461.856 242.805281 
L 462.4512 243.272118 
L 463.0464 243.977203 
L 463.9392 245.440657 
L 464.832 247.322949 
L 466.0224 250.330012 
L 468.4032 257.171992 
L 470.4864 262.873573 
L 471.6768 265.582378 
L 472.8672 267.70455 
L 473.76 268.846156 
L 474.6528 269.566744 
L 475.248 269.803524 
L 475.8432 269.842227 
L 476.4384 269.683056 
L 477.0336 269.328973 
L 477.9264 268.446083 
L 478.8192 267.171518 
L 480.0096 264.950503 
L 481.4976 261.573607 
L 484.7712 253.890043 
L 485.9616 251.801958 
L 486.8544 250.705092 
L 487.4496 250.233262 
L 488.0448 249.982542 
L 488.64 249.957552 
L 489.2352 250.156359 
L 489.8304 250.570484 
L 490.7232 251.561577 
L 491.616 252.929856 
L 492.8064 255.175921 
L 496.9728 263.496795 
L 498.1632 265.288782 
L 499.3536 266.721315 
L 500.544 267.842329 
L 502.032 268.897759 
L 503.2224 269.500303 
L 504.4128 269.852419 
L 505.3056 269.895708 
L 506.1984 269.689315 
L 507.0912 269.177581 
L 507.984 268.317076 
L 508.8768 267.088966 
L 509.7696 265.508769 
L 510.96 262.955015 
L 514.5312 254.88476 
L 515.424 253.513246 
L 516.0192 252.865936 
L 516.6144 252.453246 
L 517.2096 252.282179 
L 517.8048 252.349657 
L 518.4 252.642861 
L 518.4 252.642861 
" clip-path="url(#p693101e4e8)" style="fill: none; stroke: #ff7f0e; stroke-width: 1.5; stroke-linecap: square"/>
   </g>
   <g id="patch_3">
    <path d="M 72 378 
L 72 51.84 
" style="fill: none; stroke: #000000; stroke-width: 0.8; stroke-linejoin: miter; stroke-linecap: square"/>
   </g>
   <g id="patch_4">
    <path d="M 518.4 378 
L 518.4 51.84 
" style="fill: none; stroke: #000000; stroke-width: 0.8; stroke-linejoin: miter; stroke-linecap: square"/>
   </g>
   <g id="patch_5">
    <path d="M 72 378 
L 518.4 378 
" style="fill: none; stroke: #000000; stroke-width: 0.8; stroke-linejoin: miter; stroke-linecap: square"/>
   </g>
   <g id="patch_6">
    <path d="M 72 51.84 
L 518.4 51.84 
" style="fill: none; stroke: #000000; stroke-width: 0.8; stroke-linejoin: miter; stroke-linecap: square"/>
   </g>
   <g id="legend_1">
    <g id="patch_7">
     <path d="M 357.3525 372 
L 510 372 
Q 512.4 372 512.4 369.6 
L 512.4 335.5725 
Q 512.4 333.1725 510 333.1725 
L 357.3525 333.1725 
Q 354.9525 333.1725 354.9525 335.5725 
L 354.9525 369.6 
Q 354.9525 372 357.3525 372 
z
" style="fill: #ffffff; opacity: 0.8; stroke: #cccccc; stroke-linejoin: miter"/>
    </g>
    <g id="line2d_18">
     <path d="M 359.7525 342.890625 
L 371.7525 342.890625 
L 383.7525 342.890625 
" style="fill: none; stroke: #1f77b4; stroke-width: 1.5; stroke-linecap: square"/>
    </g>
    <g id="text_18">
     <!-- Tree random walk -->
     <g transform="translate(393.3525 347.090625)scale(0.12 -0.12)">
      <defs>
       <path id="DejaVuSans-54" d="M -19 4666 
L 3928 4666 
L 3928 4134 
L 2272 4134 
L 2272 0 
L 1638 0 
L 1638 4134 
L -19 4134 
L -19 4666 
z
" transform="scale(0.015625)"/>
       <path id="DejaVuSans-72" d="M 2631 2963 
Q 2534 3019 2420 3045 
Q 2306 3072 2169 3072 
Q 1681 3072 1420 2755 
Q 1159 2438 1159 1844 
L 1159 0 
L 581 0 
L 581 3500 
L 1159 3500 
L 1159 2956 
Q 1341 3275 1631 3429 
Q 1922 3584 2338 3584 
Q 2397 3584 2469 3576 
Q 2541 3569 2628 3553 
L 2631 2963 
z
" transform="scale(0.015625)"/>
       <path id="DejaVuSans-65" d="M 3597 1894 
L 3597 1613 
L 953 1613 
Q 991 1019 1311 708 
Q 1631 397 2203 397 
Q 2534 397 2845 478 
Q 3156 559 3463 722 
L 3463 178 
Q 3153 47 2828 -22 
Q 2503 -91 2169 -91 
Q 1331 -91 842 396 
Q 353 884 353 1716 
Q 353 2575 817 3079 
Q 1281 3584 2069 3584 
Q 2775 3584 3186 3129 
Q 3597 2675 3597 1894 
z
M 3022 2063 
Q 3016 2534 2758 2815 
Q 2500 3097 2075 3097 
Q 1594 3097 1305 2825 
Q 1016 2553 972 2059 
L 3022 2063 
z
" transform="scale(0.015625)"/>
       <path id="DejaVuSans-20" transform="scale(0.015625)"/>
       <path id="DejaVuSans-61" d="M 2194 1759 
Q 1497 1759 1228 1600 
Q 959 1441 959 1056 
Q 959 750 1161 570 
Q 1363 391 1709 391 
Q 2188 391 2477 730 
Q 2766 1069 2766 1631 
L 2766 1759 
L 2194 1759 
z
M 3341 1997 
L 3341 0 
L 2766 0 
L 2766 531 
Q 2569 213 2275 61 
Q 1981 -91 1556 -91 
Q 1019 -91 701 211 
Q 384 513 384 1019 
Q 384 1609 779 1909 
Q 1175 2209 1959 2209 
L 2766 2209 
L 2766 2266 
Q 2766 2663 2505 2880 
Q 2244 3097 1772 3097 
Q 1472 3097 1187 3025 
Q 903 2953 641 2809 
L 641 3341 
Q 956 3463 1253 3523 
Q 1550 3584 1831 3584 
Q 2591 3584 2966 3190 
Q 3341 2797 3341 1997 
z
" transform="scale(0.015625)"/>
       <path id="DejaVuSans-6e" d="M 3513 2113 
L 3513 0 
L 2938 0 
L 2938 2094 
Q 2938 2591 2744 2837 
Q 2550 3084 2163 3084 
Q 1697 3084 1428 2787 
Q 1159 2491 1159 1978 
L 1159 0 
L 581 0 
L 581 3500 
L 1159 3500 
L 1159 2956 
Q 1366 3272 1645 3428 
Q 1925 3584 2291 3584 
Q 2894 3584 3203 3211 
Q 3513 2838 3513 2113 
z
" transform="scale(0.015625)"/>
       <path id="DejaVuSans-64" d="M 2906 2969 
L 2906 4863 
L 3481 4863 
L 3481 0 
L 2906 0 
L 2906 525 
Q 2725 213 2448 61 
Q 2172 -91 1784 -91 
Q 1150 -91 751 415 
Q 353 922 353 1747 
Q 353 2572 751 3078 
Q 1150 3584 1784 3584 
Q 2172 3584 2448 3432 
Q 2725 3281 2906 2969 
z
M 947 1747 
Q 947 1113 1208 752 
Q 1469 391 1925 391 
Q 2381 391 2643 752 
Q 2906 1113 2906 1747 
Q 2906 2381 2643 2742 
Q 2381 3103 1925 3103 
Q 1469 3103 1208 2742 
Q 947 2381 947 1747 
z
" transform="scale(0.015625)"/>
       <path id="DejaVuSans-6f" d="M 1959 3097 
Q 1497 3097 1228 2736 
Q 959 2375 959 1747 
Q 959 1119 1226 758 
Q 1494 397 1959 397 
Q 2419 397 2687 759 
Q 2956 1122 2956 1747 
Q 2956 2369 2687 2733 
Q 2419 3097 1959 3097 
z
M 1959 3584 
Q 2709 3584 3137 3096 
Q 3566 2609 3566 1747 
Q 3566 888 3137 398 
Q 2709 -91 1959 -91 
Q 1206 -91 779 398 
Q 353 888 353 1747 
Q 353 2609 779 3096 
Q 1206 3584 1959 3584 
z
" transform="scale(0.015625)"/>
       <path id="DejaVuSans-6d" d="M 3328 2828 
Q 3544 3216 3844 3400 
Q 4144 3584 4550 3584 
Q 5097 3584 5394 3201 
Q 5691 2819 5691 2113 
L 5691 0 
L 5113 0 
L 5113 2094 
Q 5113 2597 4934 2840 
Q 4756 3084 4391 3084 
Q 3944 3084 3684 2787 
Q 3425 2491 3425 1978 
L 3425 0 
L 2847 0 
L 2847 2094 
Q 2847 2600 2669 2842 
Q 2491 3084 2119 3084 
Q 1678 3084 1418 2786 
Q 1159 2488 1159 1978 
L 1159 0 
L 581 0 
L 581 3500 
L 1159 3500 
L 1159 2956 
Q 1356 3278 1631 3431 
Q 1906 3584 2284 3584 
Q 2666 3584 2933 3390 
Q 3200 3197 3328 2828 
z
" transform="scale(0.015625)"/>
       <path id="DejaVuSans-77" d="M 269 3500 
L 844 3500 
L 1563 769 
L 2278 3500 
L 2956 3500 
L 3675 769 
L 4391 3500 
L 4966 3500 
L 4050 0 
L 3372 0 
L 2619 2869 
L 1863 0 
L 1184 0 
L 269 3500 
z
" transform="scale(0.015625)"/>
       <path id="DejaVuSans-6c" d="M 603 4863 
L 1178 4863 
L 1178 0 
L 603 0 
L 603 4863 
z
" transform="scale(0.015625)"/>
       <path id="DejaVuSans-6b" d="M 581 4863 
L 1159 4863 
L 1159 1991 
L 2875 3500 
L 3609 3500 
L 1753 1863 
L 3688 0 
L 2938 0 
L 1159 1709 
L 1159 0 
L 581 0 
L 581 4863 
z
" transform="scale(0.015625)"/>
      </defs>
      <use xlink:href="#DejaVuSans-54"/>
      <use xlink:href="#DejaVuSans-72" x="46.333984"/>
      <use xlink:href="#DejaVuSans-65" x="85.197266"/>
      <use xlink:href="#DejaVuSans-65" x="146.720703"/>
      <use xlink:href="#DejaVuSans-20" x="208.244141"/>
      <use xlink:href="#DejaVuSans-72" x="240.03125"/>
      <use xlink:href="#DejaVuSans-61" x="281.144531"/>
      <use xlink:href="#DejaVuSans-6e" x="342.423828"/>
      <use xlink:href="#DejaVuSans-64" x="405.802734"/>
      <use xlink:href="#DejaVuSans-6f" x="469.279297"/>
      <use xlink:href="#DejaVuSans-6d" x="530.460938"/>
      <use xlink:href="#DejaVuSans-20" x="627.873047"/>
      <use xlink:href="#DejaVuSans-77" x="659.660156"/>
      <use xlink:href="#DejaVuSans-61" x="741.447266"/>
      <use xlink:href="#DejaVuSans-6c" x="802.726562"/>
      <use xlink:href="#DejaVuSans-6b" x="830.509766"/>
     </g>
    </g>
    <g id="line2d_19">
     <path d="M 359.7525 360.504375 
L 371.7525 360.504375 
L 383.7525 360.504375 
" style="fill: none; stroke: #ff7f0e; stroke-width: 1.5; stroke-linecap: square"/>
    </g>
    <g id="text_19">
     <!-- Tree quantum walk -->
     <g transform="translate(393.3525 364.704375)scale(0.12 -0.12)">
      <defs>
       <path id="DejaVuSans-71" d="M 947 1747 
Q 947 1113 1208 752 
Q 1469 391 1925 391 
Q 2381 391 2643 752 
Q 2906 1113 2906 1747 
Q 2906 2381 2643 2742 
Q 2381 3103 1925 3103 
Q 1469 3103 1208 2742 
Q 947 2381 947 1747 
z
M 2906 525 
Q 2725 213 2448 61 
Q 2172 -91 1784 -91 
Q 1150 -91 751 415 
Q 353 922 353 1747 
Q 353 2572 751 3078 
Q 1150 3584 1784 3584 
Q 2172 3584 2448 3432 
Q 2725 3281 2906 2969 
L 2906 3500 
L 3481 3500 
L 3481 -1331 
L 2906 -1331 
L 2906 525 
z
" transform="scale(0.015625)"/>
       <path id="DejaVuSans-75" d="M 544 1381 
L 544 3500 
L 1119 3500 
L 1119 1403 
Q 1119 906 1312 657 
Q 1506 409 1894 409 
Q 2359 409 2629 706 
Q 2900 1003 2900 1516 
L 2900 3500 
L 3475 3500 
L 3475 0 
L 2900 0 
L 2900 538 
Q 2691 219 2414 64 
Q 2138 -91 1772 -91 
Q 1169 -91 856 284 
Q 544 659 544 1381 
z
M 1991 3584 
L 1991 3584 
z
" transform="scale(0.015625)"/>
      </defs>
      <use xlink:href="#DejaVuSans-54"/>
      <use xlink:href="#DejaVuSans-72" x="46.333984"/>
      <use xlink:href="#DejaVuSans-65" x="85.197266"/>
      <use xlink:href="#DejaVuSans-65" x="146.720703"/>
      <use xlink:href="#DejaVuSans-20" x="208.244141"/>
      <use xlink:href="#DejaVuSans-71" x="240.03125"/>
      <use xlink:href="#DejaVuSans-75" x="303.507812"/>
      <use xlink:href="#DejaVuSans-61" x="366.886719"/>
      <use xlink:href="#DejaVuSans-6e" x="428.166016"/>
      <use xlink:href="#DejaVuSans-74" x="491.544922"/>
      <use xlink:href="#DejaVuSans-75" x="530.753906"/>
      <use xlink:href="#DejaVuSans-6d" x="594.132812"/>
      <use xlink:href="#DejaVuSans-20" x="691.544922"/>
      <use xlink:href="#DejaVuSans-77" x="723.332031"/>
      <use xlink:href="#DejaVuSans-61" x="805.119141"/>
      <use xlink:href="#DejaVuSans-6c" x="866.398438"/>
      <use xlink:href="#DejaVuSans-6b" x="894.181641"/>
     </g>
    </g>
   </g>
  </g>
 </g>
 <defs>
  <clipPath id="p693101e4e8">
   <rect x="72" y="51.84" width="446.4" height="326.16"/>
  </clipPath>
 </defs>
</svg>
