<?xml version="1.0" encoding="utf-8" standalone="no"?>
<!DOCTYPE svg PUBLIC "-//W3C//DTD SVG 1.1//EN"
  "http://www.w3.org/Graphics/SVG/1.1/DTD/svg11.dtd">
<svg xmlns:xlink="http://www.w3.org/1999/xlink" width="576pt" height="432pt" viewBox="0 0 576 432" xmlns="http://www.w3.org/2000/svg" version="1.1">
 <metadata>
  <rdf:RDF xmlns:dc="http://purl.org/dc/elements/1.1/" xmlns:cc="http://creativecommons.org/ns#" xmlns:rdf="http://www.w3.org/1999/02/22-rdf-syntax-ns#">
   <cc:Work>
    <dc:type rdf:resource="http://purl.org/dc/dcmitype/StillImage"/>
    <dc:date>2022-06-14T16:00:27.081300</dc:date>
    <dc:format>image/svg+xml</dc:format>
    <dc:creator>
     <cc:Agent>
      <dc:title>Matplotlib v3.5.1, https://matplotlib.org/</dc:title>
     </cc:Agent>
    </dc:creator>
   </cc:Work>
  </rdf:RDF>
 </metadata>
 <defs>
  <style type="text/css">*{stroke-linejoin: round; stroke-linecap: butt}</style>
 </defs>
 <g id="figure_1">
  <g id="patch_1">
   <path d="M 0 432 
L 576 432 
L 576 0 
L 0 0 
L 0 432 
z
" style="fill: none"/>
  </g>
  <g id="axes_1">
   <g id="patch_2">
    <path d="M 72 378 
L 518.4 378 
L 518.4 51.84 
L 72 51.84 
z
" style="fill: #ffffff"/>
   </g>
   <g id="matplotlib.axis_1">
    <g id="xtick_1">
     <g id="line2d_1">
      <defs>
       <path id="m85f86a2353" d="M 0 0 
L 0 3.5 
" style="stroke: #000000; stroke-width: 0.8"/>
      </defs>
      <g>
       <use xlink:href="#m85f86a2353" x="72" y="378" style="stroke: #000000; stroke-width: 0.8"/>
      </g>
     </g>
     <g id="text_1">
      <!-- $\mathdefault{10^{-1}}$ -->
      <g transform="translate(57.9 394.118125)scale(0.12 -0.12)">
       <defs>
        <path id="DejaVuSans-31" d="M 794 531 
L 1825 531 
L 1825 4091 
L 703 3866 
L 703 4441 
L 1819 4666 
L 2450 4666 
L 2450 531 
L 3481 531 
L 3481 0 
L 794 0 
L 794 531 
z
" transform="scale(0.015625)"/>
        <path id="DejaVuSans-30" d="M 2034 4250 
Q 1547 4250 1301 3770 
Q 1056 3291 1056 2328 
Q 1056 1369 1301 889 
Q 1547 409 2034 409 
Q 2525 409 2770 889 
Q 3016 1369 3016 2328 
Q 3016 3291 2770 3770 
Q 2525 4250 2034 4250 
z
M 2034 4750 
Q 2819 4750 3233 4129 
Q 3647 3509 3647 2328 
Q 3647 1150 3233 529 
Q 2819 -91 2034 -91 
Q 1250 -91 836 529 
Q 422 1150 422 2328 
Q 422 3509 836 4129 
Q 1250 4750 2034 4750 
z
" transform="scale(0.015625)"/>
        <path id="DejaVuSans-2212" d="M 678 2272 
L 4684 2272 
L 4684 1741 
L 678 1741 
L 678 2272 
z
" transform="scale(0.015625)"/>
       </defs>
       <use xlink:href="#DejaVuSans-31" transform="translate(0 0.684375)"/>
       <use xlink:href="#DejaVuSans-30" transform="translate(63.623047 0.684375)"/>
       <use xlink:href="#DejaVuSans-2212" transform="translate(128.203125 38.965625)scale(0.7)"/>
       <use xlink:href="#DejaVuSans-31" transform="translate(186.855469 38.965625)scale(0.7)"/>
      </g>
     </g>
    </g>
    <g id="xtick_2">
     <g id="line2d_2">
      <g>
       <use xlink:href="#m85f86a2353" x="374.209449" y="378" style="stroke: #000000; stroke-width: 0.8"/>
      </g>
     </g>
     <g id="text_2">
      <!-- $\mathdefault{10^{0}}$ -->
      <g transform="translate(363.649449 394.118125)scale(0.12 -0.12)">
       <use xlink:href="#DejaVuSans-31" transform="translate(0 0.765625)"/>
       <use xlink:href="#DejaVuSans-30" transform="translate(63.623047 0.765625)"/>
       <use xlink:href="#DejaVuSans-30" transform="translate(128.203125 39.046875)scale(0.7)"/>
      </g>
     </g>
    </g>
    <g id="xtick_3">
     <g id="line2d_3">
      <defs>
       <path id="m6815de8c9e" d="M 0 0 
L 0 2 
" style="stroke: #000000; stroke-width: 0.6"/>
      </defs>
      <g>
       <use xlink:href="#m6815de8c9e" x="162.974109" y="378" style="stroke: #000000; stroke-width: 0.6"/>
      </g>
     </g>
    </g>
    <g id="xtick_4">
     <g id="line2d_4">
      <g>
       <use xlink:href="#m6815de8c9e" x="216.190551" y="378" style="stroke: #000000; stroke-width: 0.6"/>
      </g>
     </g>
    </g>
    <g id="xtick_5">
     <g id="line2d_5">
      <g>
       <use xlink:href="#m6815de8c9e" x="253.948218" y="378" style="stroke: #000000; stroke-width: 0.6"/>
      </g>
     </g>
    </g>
    <g id="xtick_6">
     <g id="line2d_6">
      <g>
       <use xlink:href="#m6815de8c9e" x="283.23534" y="378" style="stroke: #000000; stroke-width: 0.6"/>
      </g>
     </g>
    </g>
    <g id="xtick_7">
     <g id="line2d_7">
      <g>
       <use xlink:href="#m6815de8c9e" x="307.16466" y="378" style="stroke: #000000; stroke-width: 0.6"/>
      </g>
     </g>
    </g>
    <g id="xtick_8">
     <g id="line2d_8">
      <g>
       <use xlink:href="#m6815de8c9e" x="327.396613" y="378" style="stroke: #000000; stroke-width: 0.6"/>
      </g>
     </g>
    </g>
    <g id="xtick_9">
     <g id="line2d_9">
      <g>
       <use xlink:href="#m6815de8c9e" x="344.922327" y="378" style="stroke: #000000; stroke-width: 0.6"/>
      </g>
     </g>
    </g>
    <g id="xtick_10">
     <g id="line2d_10">
      <g>
       <use xlink:href="#m6815de8c9e" x="360.381103" y="378" style="stroke: #000000; stroke-width: 0.6"/>
      </g>
     </g>
    </g>
    <g id="xtick_11">
     <g id="line2d_11">
      <g>
       <use xlink:href="#m6815de8c9e" x="465.183558" y="378" style="stroke: #000000; stroke-width: 0.6"/>
      </g>
     </g>
    </g>
    <g id="xtick_12">
     <g id="line2d_12">
      <g>
       <use xlink:href="#m6815de8c9e" x="518.4" y="378" style="stroke: #000000; stroke-width: 0.6"/>
      </g>
     </g>
    </g>
    <g id="text_3">
     <!-- t -->
     <g transform="translate(292.847812 409.731875)scale(0.12 -0.12)">
      <defs>
       <path id="DejaVuSans-74" d="M 1172 4494 
L 1172 3500 
L 2356 3500 
L 2356 3053 
L 1172 3053 
L 1172 1153 
Q 1172 725 1289 603 
Q 1406 481 1766 481 
L 2356 481 
L 2356 0 
L 1766 0 
Q 1100 0 847 248 
Q 594 497 594 1153 
L 594 3053 
L 172 3053 
L 172 3500 
L 594 3500 
L 594 4494 
L 1172 4494 
z
" transform="scale(0.015625)"/>
      </defs>
      <use xlink:href="#DejaVuSans-74"/>
     </g>
    </g>
   </g>
   <g id="matplotlib.axis_2">
    <g id="ytick_1">
     <g id="line2d_13">
      <defs>
       <path id="m0e3c3aa5d4" d="M 0 0 
L -3.5 0 
" style="stroke: #000000; stroke-width: 0.8"/>
      </defs>
      <g>
       <use xlink:href="#m0e3c3aa5d4" x="72" y="256.416742" style="stroke: #000000; stroke-width: 0.8"/>
      </g>
     </g>
     <g id="text_4">
      <!-- $\mathdefault{10^{0}}$ -->
      <g transform="translate(43.88 260.975805)scale(0.12 -0.12)">
       <use xlink:href="#DejaVuSans-31" transform="translate(0 0.765625)"/>
       <use xlink:href="#DejaVuSans-30" transform="translate(63.623047 0.765625)"/>
       <use xlink:href="#DejaVuSans-30" transform="translate(128.203125 39.046875)scale(0.7)"/>
      </g>
     </g>
    </g>
    <g id="ytick_2">
     <g id="line2d_14">
      <g>
       <use xlink:href="#m0e3c3aa5d4" x="72" y="82.470426" style="stroke: #000000; stroke-width: 0.8"/>
      </g>
     </g>
     <g id="text_5">
      <!-- $\mathdefault{10^{1}}$ -->
      <g transform="translate(43.88 87.029488)scale(0.12 -0.12)">
       <use xlink:href="#DejaVuSans-31" transform="translate(0 0.684375)"/>
       <use xlink:href="#DejaVuSans-30" transform="translate(63.623047 0.684375)"/>
       <use xlink:href="#DejaVuSans-31" transform="translate(128.203125 38.965625)scale(0.7)"/>
      </g>
     </g>
    </g>
    <g id="ytick_3">
     <g id="line2d_15">
      <defs>
       <path id="ma62dcae21b" d="M 0 0 
L -2 0 
" style="stroke: #000000; stroke-width: 0.6"/>
      </defs>
      <g>
       <use xlink:href="#ma62dcae21b" x="72" y="378" style="stroke: #000000; stroke-width: 0.6"/>
      </g>
     </g>
    </g>
    <g id="ytick_4">
     <g id="line2d_16">
      <g>
       <use xlink:href="#ma62dcae21b" x="72" y="347.369574" style="stroke: #000000; stroke-width: 0.6"/>
      </g>
     </g>
    </g>
    <g id="ytick_5">
     <g id="line2d_17">
      <g>
       <use xlink:href="#ma62dcae21b" x="72" y="325.636941" style="stroke: #000000; stroke-width: 0.6"/>
      </g>
     </g>
    </g>
    <g id="ytick_6">
     <g id="line2d_18">
      <g>
       <use xlink:href="#ma62dcae21b" x="72" y="308.779801" style="stroke: #000000; stroke-width: 0.6"/>
      </g>
     </g>
    </g>
    <g id="ytick_7">
     <g id="line2d_19">
      <g>
       <use xlink:href="#ma62dcae21b" x="72" y="295.006515" style="stroke: #000000; stroke-width: 0.6"/>
      </g>
     </g>
    </g>
    <g id="ytick_8">
     <g id="line2d_20">
      <g>
       <use xlink:href="#ma62dcae21b" x="72" y="283.361368" style="stroke: #000000; stroke-width: 0.6"/>
      </g>
     </g>
    </g>
    <g id="ytick_9">
     <g id="line2d_21">
      <g>
       <use xlink:href="#ma62dcae21b" x="72" y="273.273882" style="stroke: #000000; stroke-width: 0.6"/>
      </g>
     </g>
    </g>
    <g id="ytick_10">
     <g id="line2d_22">
      <g>
       <use xlink:href="#ma62dcae21b" x="72" y="264.376089" style="stroke: #000000; stroke-width: 0.6"/>
      </g>
     </g>
    </g>
    <g id="ytick_11">
     <g id="line2d_23">
      <g>
       <use xlink:href="#ma62dcae21b" x="72" y="204.053683" style="stroke: #000000; stroke-width: 0.6"/>
      </g>
     </g>
    </g>
    <g id="ytick_12">
     <g id="line2d_24">
      <g>
       <use xlink:href="#ma62dcae21b" x="72" y="173.423258" style="stroke: #000000; stroke-width: 0.6"/>
      </g>
     </g>
    </g>
    <g id="ytick_13">
     <g id="line2d_25">
      <g>
       <use xlink:href="#ma62dcae21b" x="72" y="151.690625" style="stroke: #000000; stroke-width: 0.6"/>
      </g>
     </g>
    </g>
    <g id="ytick_14">
     <g id="line2d_26">
      <g>
       <use xlink:href="#ma62dcae21b" x="72" y="134.833485" style="stroke: #000000; stroke-width: 0.6"/>
      </g>
     </g>
    </g>
    <g id="ytick_15">
     <g id="line2d_27">
      <g>
       <use xlink:href="#ma62dcae21b" x="72" y="121.060199" style="stroke: #000000; stroke-width: 0.6"/>
      </g>
     </g>
    </g>
    <g id="ytick_16">
     <g id="line2d_28">
      <g>
       <use xlink:href="#ma62dcae21b" x="72" y="109.415051" style="stroke: #000000; stroke-width: 0.6"/>
      </g>
     </g>
    </g>
    <g id="ytick_17">
     <g id="line2d_29">
      <g>
       <use xlink:href="#ma62dcae21b" x="72" y="99.327566" style="stroke: #000000; stroke-width: 0.6"/>
      </g>
     </g>
    </g>
    <g id="ytick_18">
     <g id="line2d_30">
      <g>
       <use xlink:href="#ma62dcae21b" x="72" y="90.429773" style="stroke: #000000; stroke-width: 0.6"/>
      </g>
     </g>
    </g>
    <g id="text_6">
     <!-- MSD -->
     <g transform="translate(37.384375 228.525937)rotate(-90)scale(0.12 -0.12)">
      <defs>
       <path id="DejaVuSans-4d" d="M 628 4666 
L 1569 4666 
L 2759 1491 
L 3956 4666 
L 4897 4666 
L 4897 0 
L 4281 0 
L 4281 4097 
L 3078 897 
L 2444 897 
L 1241 4097 
L 1241 0 
L 628 0 
L 628 4666 
z
" transform="scale(0.015625)"/>
       <path id="DejaVuSans-53" d="M 3425 4513 
L 3425 3897 
Q 3066 4069 2747 4153 
Q 2428 4238 2131 4238 
Q 1616 4238 1336 4038 
Q 1056 3838 1056 3469 
Q 1056 3159 1242 3001 
Q 1428 2844 1947 2747 
L 2328 2669 
Q 3034 2534 3370 2195 
Q 3706 1856 3706 1288 
Q 3706 609 3251 259 
Q 2797 -91 1919 -91 
Q 1588 -91 1214 -16 
Q 841 59 441 206 
L 441 856 
Q 825 641 1194 531 
Q 1563 422 1919 422 
Q 2459 422 2753 634 
Q 3047 847 3047 1241 
Q 3047 1584 2836 1778 
Q 2625 1972 2144 2069 
L 1759 2144 
Q 1053 2284 737 2584 
Q 422 2884 422 3419 
Q 422 4038 858 4394 
Q 1294 4750 2059 4750 
Q 2388 4750 2728 4690 
Q 3069 4631 3425 4513 
z
" transform="scale(0.015625)"/>
       <path id="DejaVuSans-44" d="M 1259 4147 
L 1259 519 
L 2022 519 
Q 2988 519 3436 956 
Q 3884 1394 3884 2338 
Q 3884 3275 3436 3711 
Q 2988 4147 2022 4147 
L 1259 4147 
z
M 628 4666 
L 1925 4666 
Q 3281 4666 3915 4102 
Q 4550 3538 4550 2338 
Q 4550 1131 3912 565 
Q 3275 0 1925 0 
L 628 0 
L 628 4666 
z
" transform="scale(0.015625)"/>
      </defs>
      <use xlink:href="#DejaVuSans-4d"/>
      <use xlink:href="#DejaVuSans-53" x="86.279297"/>
      <use xlink:href="#DejaVuSans-44" x="149.755859"/>
     </g>
    </g>
   </g>
   <g id="line2d_31">
    <path d="M 72 373.765651 
L 95.929321 344.132843 
L 116.161273 318.527434 
L 133.686987 295.867954 
L 149.145763 275.478091 
L 162.974109 256.913414 
L 181.31757 231.851045 
L 207.135382 196.022776 
L 224.661096 171.753716 
L 236.422504 155.775794 
L 247.216081 141.542734 
L 253.948218 132.96687 
L 260.351824 125.086946 
L 266.457479 117.876162 
L 272.291679 111.309391 
L 277.877539 105.362852 
L 283.23534 100.013964 
L 288.382976 95.241288 
L 293.336314 91.024498 
L 298.109491 87.344309 
L 302.715153 84.182312 
L 307.16466 81.520646 
L 311.468256 79.3415 
L 315.635205 77.626415 
L 319.673921 76.355396 
L 323.59206 75.505877 
L 327.396613 75.051585 
L 331.093981 74.96141 
L 334.690039 75.198387 
L 338.19019 75.71894 
L 341.599418 76.472559 
L 344.922327 77.402067 
L 349.754084 78.98762 
L 357.431588 81.583332 
L 360.381103 82.41956 
L 363.265788 83.061278 
L 366.088432 83.472479 
L 368.851648 83.632381 
L 371.557886 83.536214 
L 374.209449 83.19461 
L 376.808502 82.631825 
L 379.357085 81.883176 
L 383.089504 80.508392 
L 394.81586 75.813778 
L 397.040454 75.232885 
L 399.22797 74.876178 
L 401.379623 74.779408 
L 403.49657 74.971869 
L 405.579914 75.475315 
L 407.630704 76.302916 
L 409.649942 77.458318 
L 411.638585 78.934903 
L 413.597545 80.715328 
L 415.527696 82.771454 
L 417.429873 85.064773 
L 420.232425 88.842593 
L 424.774328 95.551218 
L 429.164299 101.936549 
L 431.729486 105.262207 
L 434.245497 108.062774 
L 435.896436 109.611517 
L 437.526866 110.904293 
L 439.13729 111.951646 
L 440.728193 112.772517 
L 442.300042 113.392186 
L 444.623075 114.009644 
L 446.905704 114.347978 
L 449.888739 114.540566 
L 457.062541 114.661554 
L 460.507566 114.56538 
L 462.531995 114.339347 
L 464.525672 113.919408 
L 466.489518 113.269997 
L 468.424411 112.381875 
L 470.331194 111.272006 
L 472.831229 109.513303 
L 475.890759 107.037874 
L 481.224365 102.658507 
L 482.955131 101.502097 
L 484.663371 100.651431 
L 485.789969 100.305458 
L 486.906979 100.172389 
L 488.014563 100.281701 
L 489.112878 100.660509 
L 490.202079 101.332678 
L 491.282315 102.318137 
L 492.353732 103.632426 
L 493.416474 105.286459 
L 494.470679 107.286491 
L 495.516485 109.634234 
L 497.069732 113.80093 
L 498.604813 118.717163 
L 500.122147 124.337447 
L 502.118351 132.809948 
L 504.084648 142.192338 
L 507.456339 159.719609 
L 509.812738 171.663669 
L 511.206534 177.848435 
L 512.585684 182.834326 
L 513.497132 185.333795 
L 514.402293 187.102086 
L 515.301255 188.120126 
L 515.748437 188.353197 
L 516.194101 188.410196 
L 516.638257 188.299822 
L 517.080915 188.032627 
L 517.961776 187.076924 
L 518.4 186.415217 
L 518.4 186.415217 
" clip-path="url(#p099c538bce)" style="fill: none; stroke: #1f77b4; stroke-width: 1.5; stroke-linecap: square"/>
   </g>
   <g id="line2d_32">
    <path d="M 72 378.99041 
L 169.377715 267.037676 
L 192.261231 240.985524 
L 207.135382 224.284085 
L 220.494147 209.586717 
L 232.61795 196.660328 
L 240.119872 188.953493 
L 247.216081 181.943095 
L 253.948218 175.61233 
L 260.351824 169.951578 
L 266.457479 164.956725 
L 272.291679 160.627798 
L 277.877539 156.96784 
L 280.583777 155.390262 
L 283.23534 153.981949 
L 285.834393 152.743719 
L 288.382976 151.676406 
L 290.883011 150.780841 
L 293.336314 150.05782 
L 295.7446 149.50807 
L 298.109491 149.13222 
L 300.432523 148.930758 
L 302.715153 148.903989 
L 304.958761 149.051986 
L 307.16466 149.37453 
L 309.334096 149.871047 
L 311.468256 150.540529 
L 313.568267 151.381445 
L 315.635205 152.391637 
L 317.670097 153.568205 
L 319.673921 154.907365 
L 321.647611 156.404294 
L 323.59206 158.052954 
L 325.508121 159.845891 
L 329.258316 163.826367 
L 332.904326 168.248962 
L 336.451782 172.978643 
L 346.552757 186.95101 
L 348.163181 188.893103 
L 349.754084 190.621317 
L 351.325933 192.096926 
L 352.879181 193.28405 
L 354.414262 194.151354 
L 355.931595 194.673695 
L 357.431588 194.833552 
L 358.91463 194.622085 
L 360.381103 194.039681 
L 361.83137 193.095928 
L 363.265788 191.809011 
L 364.684698 190.204613 
L 366.088432 188.314454 
L 367.477312 186.174629 
L 370.211742 181.302163 
L 372.890363 175.902424 
L 383.089504 154.242233 
L 385.52009 149.699114 
L 387.906481 145.70786 
L 390.250256 142.313748 
L 392.55291 139.54077 
L 394.81586 137.396585 
L 395.93287 136.559151 
L 397.040454 135.876223 
L 398.138769 135.345641 
L 399.22797 134.964749 
L 400.308205 134.730433 
L 401.379623 134.639161 
L 402.442365 134.687014 
L 403.49657 134.869716 
L 404.542376 135.182658 
L 405.579914 135.620921 
L 407.630704 136.852343 
L 409.649942 138.519403 
L 411.638585 140.574282 
L 413.597545 142.967041 
L 415.527696 145.647006 
L 418.370722 150.097379 
L 421.153467 154.928761 
L 424.774328 161.751824 
L 428.297973 168.845085 
L 432.573527 177.989625 
L 437.526866 189.234388 
L 441.516471 198.153897 
L 443.078964 201.247662 
L 444.623075 203.837222 
L 445.388371 204.884302 
L 446.14923 205.733862 
L 446.905704 206.362239 
L 447.657843 206.747369 
L 448.405697 206.869771 
L 449.149313 206.713513 
L 449.888739 206.267094 
L 450.624024 205.524151 
L 451.355212 204.483933 
L 452.082349 203.151494 
L 452.805479 201.537573 
L 454.239897 197.534014 
L 455.658807 192.651933 
L 457.758818 184.17696 
L 465.183558 152.325109 
L 467.137657 145.673276 
L 468.424411 142.006924 
L 469.698673 139.002416 
L 470.960681 136.687046 
L 472.210671 135.079511 
L 472.831229 134.545211 
L 473.448868 134.192049 
L 474.063613 134.020803 
L 474.675492 134.032018 
L 475.284532 134.226027 
L 475.890759 134.602973 
L 476.494199 135.162814 
L 477.094877 135.905337 
L 478.288048 137.936708 
L 479.470469 140.69181 
L 480.642333 144.16212 
L 481.803827 148.335115 
L 482.955131 153.193114 
L 484.663371 161.708524 
L 486.349663 171.58423 
L 488.014563 182.62695 
L 490.202079 198.640016 
L 494.470679 230.468669 
L 496.036279 240.131226 
L 497.069732 245.283149 
L 498.095112 249.232497 
L 499.112543 251.924894 
L 499.618315 252.807611 
L 500.122147 253.396223 
L 500.624051 253.707528 
L 501.124044 253.761835 
L 501.622139 253.58203 
L 502.118351 253.192634 
L 503.105182 251.886161 
L 504.084648 250.040612 
L 505.540278 246.648689 
L 510.743578 233.603853 
L 512.585684 229.831708 
L 513.950493 227.456296 
L 515.301255 225.445119 
L 517.080915 223.250659 
L 518.4 221.892909 
L 518.4 221.892909 
" clip-path="url(#p099c538bce)" style="fill: none; stroke: #ff7f0e; stroke-width: 1.5; stroke-linecap: square"/>
   </g>
   <g id="line2d_33">
    <path d="M 72 381.280839 
L 84.509261 364.226714 
L 95.929321 355.049646 
L 106.434758 341.730708 
L 116.161273 325.354181 
L 125.216442 317.795724 
L 133.686987 306.988162 
L 141.643841 296.148259 
L 149.145763 291.470752 
L 156.241972 283.388353 
L 162.974109 273.581404 
L 169.377715 267.045764 
L 186.90343 245.924296 
L 192.261231 241.116635 
L 202.362205 228.975165 
L 207.135382 221.765509 
L 211.741044 217.698654 
L 216.190551 214.065663 
L 220.494147 208.087788 
L 224.661096 201.600984 
L 228.699812 198.196039 
L 232.61795 196.331728 
L 236.422504 189.264271 
L 240.119872 186.827282 
L 243.71593 182.830324 
L 247.216081 177.977116 
L 250.625309 176.631809 
L 253.948218 173.574497 
L 257.189071 171.214721 
L 260.351824 166.240324 
L 263.440153 165.431811 
L 266.457479 163.320822 
L 269.406994 161.058485 
L 272.291679 157.969073 
L 275.114323 154.671266 
L 277.877539 154.646713 
L 280.583777 155.065212 
L 283.23534 149.613653 
L 285.834393 150.999734 
L 288.382976 148.768608 
L 290.883011 146.143834 
L 293.336314 146.411931 
L 295.7446 148.68689 
L 298.109491 145.662773 
L 300.432523 146.86679 
L 302.715153 144.658104 
L 304.958761 147.98684 
L 307.16466 146.319528 
L 309.334096 145.93354 
L 311.468256 148.148854 
L 313.568267 149.779198 
L 315.635205 149.356856 
L 317.670097 152.779659 
L 319.673921 152.335493 
L 321.647611 157.902404 
L 323.59206 158.690803 
L 325.508121 158.220895 
L 327.396613 160.839664 
L 329.258316 162.695582 
L 331.093981 163.44208 
L 332.904326 165.624612 
L 334.690039 170.818357 
L 336.451782 171.275886 
L 338.19019 174.188859 
L 339.905873 176.638378 
L 341.599418 176.638378 
L 343.271388 182.014775 
L 344.922327 182.22668 
L 346.552757 185.745026 
L 348.163181 185.774674 
L 349.754084 187.378067 
L 351.325933 186.362626 
L 352.879181 188.177401 
L 354.414262 186.617084 
L 355.931595 188.745865 
L 357.431588 185.205978 
L 358.91463 186.985316 
L 360.381103 184.153797 
L 361.83137 182.737689 
L 363.265788 178.70273 
L 364.684698 176.835707 
L 366.088432 175.834677 
L 367.477312 172.896292 
L 370.211742 166.423724 
L 371.557886 160.759766 
L 372.890363 160.467526 
L 374.209449 158.416765 
L 378.088979 147.409123 
L 379.357085 145.575635 
L 380.613055 142.482899 
L 381.85712 140.210234 
L 383.089504 140.254862 
L 384.310423 135.516458 
L 386.718709 132.227367 
L 387.906481 129.005557 
L 389.0836 128.660169 
L 390.250256 127.260018 
L 391.406632 125.403726 
L 392.55291 124.449599 
L 393.689262 122.26908 
L 394.81586 123.011556 
L 395.93287 122.329874 
L 397.040454 120.768032 
L 398.138769 120.489485 
L 399.22797 119.30238 
L 400.308205 119.111953 
L 401.379623 118.598359 
L 402.442365 118.452257 
L 403.49657 119.41317 
L 404.542376 118.503969 
L 405.579914 117.401383 
L 406.609314 118.967917 
L 407.630704 118.064027 
L 408.644206 119.823896 
L 409.649942 117.584534 
L 410.64803 119.385457 
L 411.638585 120.090671 
L 412.62172 120.264893 
L 413.597545 121.559174 
L 414.566169 122.317071 
L 415.527696 121.334543 
L 416.48223 121.797188 
L 418.370722 124.657287 
L 419.304874 124.249047 
L 420.232425 125.473771 
L 421.153467 126.039846 
L 422.06809 127.953401 
L 422.976384 127.034839 
L 423.878435 128.472439 
L 424.774328 127.653985 
L 425.664148 129.292837 
L 426.547975 129.370098 
L 427.425891 131.277299 
L 428.297973 130.097404 
L 429.164299 132.497885 
L 430.024944 131.801623 
L 430.879982 133.304196 
L 432.573527 135.086982 
L 433.412175 134.441674 
L 434.245497 135.094562 
L 435.073563 136.194124 
L 435.896436 135.291914 
L 436.714183 135.879421 
L 437.526866 135.676711 
L 438.334548 134.595895 
L 439.13729 134.844817 
L 439.935152 136.850763 
L 440.728193 136.094198 
L 441.516471 136.375095 
L 442.300042 135.982898 
L 443.078964 134.430402 
L 443.85329 134.667471 
L 444.623075 132.75835 
L 445.388371 133.12304 
L 446.14923 132.872357 
L 446.905704 132.13255 
L 447.657843 132.527189 
L 448.405697 130.179045 
L 449.149313 130.278552 
L 449.888739 128.660169 
L 452.082349 125.851801 
L 452.805479 124.716732 
L 453.524648 125.227233 
L 454.951269 122.154023 
L 456.362551 120.884135 
L 457.062541 120.645846 
L 458.451421 119.348523 
L 459.140388 118.860834 
L 459.825757 118.799712 
L 460.507566 116.99762 
L 461.185851 117.030438 
L 461.860649 117.792242 
L 462.531995 116.955871 
L 463.199925 116.652398 
L 463.864472 117.906877 
L 464.525672 117.458383 
L 465.183558 118.197256 
L 465.838162 118.570943 
L 466.489518 118.805822 
L 467.137657 118.769169 
L 468.424411 122.480472 
L 469.063088 124.183408 
L 469.698673 124.720035 
L 470.960681 126.393699 
L 471.587164 128.420375 
L 472.210671 128.736786 
L 472.831229 130.328355 
L 473.448868 132.344229 
L 474.063613 133.319003 
L 474.675492 135.482162 
L 475.284532 136.653171 
L 475.890759 138.402849 
L 476.494199 139.640516 
L 477.094877 142.679601 
L 477.692818 141.672222 
L 478.288048 143.344634 
L 478.88059 144.314741 
L 479.470469 146.77383 
L 480.057709 147.026418 
L 480.642333 148.668742 
L 481.224365 149.073561 
L 481.803827 151.73313 
L 482.380741 149.769992 
L 482.955131 149.604466 
L 483.527019 150.677604 
L 484.663371 151.431388 
L 485.227879 150.519377 
L 485.789969 149.25621 
L 486.349663 150.02358 
L 487.46194 146.376717 
L 488.014563 147.319949 
L 488.56487 144.752803 
L 489.112878 144.73127 
L 489.658608 143.909015 
L 490.202079 142.199213 
L 490.743308 141.684629 
L 491.282315 141.469874 
L 491.819116 138.130105 
L 492.353732 137.54056 
L 492.886178 136.27878 
L 493.416474 134.614724 
L 493.944635 135.879421 
L 494.470679 134.235285 
L 494.994624 133.137812 
L 495.516485 130.111596 
L 496.036279 132.373473 
L 496.554023 129.556553 
L 497.069732 129.100029 
L 497.583424 130.617147 
L 498.095112 128.841388 
L 499.112543 127.157581 
L 499.618315 127.362594 
L 500.122147 127.143933 
L 501.124044 125.647497 
L 501.622139 127.338647 
L 502.118351 126.616971 
L 502.612694 126.912297 
L 503.105182 126.983756 
L 503.595829 126.447765 
L 504.084648 126.434245 
L 505.056859 128.233239 
L 505.540278 128.098373 
L 506.021922 128.281711 
L 506.501805 127.722712 
L 507.456339 129.443921 
L 507.931016 130.097404 
L 508.403982 130.399559 
L 508.875249 132.4869 
L 509.344831 132.428336 
L 509.812738 131.613171 
L 510.278983 134.269019 
L 510.743578 133.552604 
L 511.206534 136.005912 
L 511.667863 135.573652 
L 512.127576 135.741672 
L 513.497132 139.291119 
L 513.950493 139.511814 
L 514.402293 141.436889 
L 515.301255 142.583278 
L 515.748437 144.830372 
L 516.194101 146.447162 
L 516.638257 147.333318 
L 517.080915 146.897803 
L 517.522084 149.700979 
L 517.961776 149.880544 
L 518.4 151.974447 
L 518.4 151.974447 
" clip-path="url(#p099c538bce)" style="fill: none; stroke: #2ca02c; stroke-width: 1.5; stroke-linecap: square"/>
   </g>
   <g id="patch_3">
    <path d="M 72 378 
L 72 51.84 
" style="fill: none; stroke: #000000; stroke-width: 0.8; stroke-linejoin: miter; stroke-linecap: square"/>
   </g>
   <g id="patch_4">
    <path d="M 518.4 378 
L 518.4 51.84 
" style="fill: none; stroke: #000000; stroke-width: 0.8; stroke-linejoin: miter; stroke-linecap: square"/>
   </g>
   <g id="patch_5">
    <path d="M 72 378 
L 518.4 378 
" style="fill: none; stroke: #000000; stroke-width: 0.8; stroke-linejoin: miter; stroke-linecap: square"/>
   </g>
   <g id="patch_6">
    <path d="M 72 51.84 
L 518.4 51.84 
" style="fill: none; stroke: #000000; stroke-width: 0.8; stroke-linejoin: miter; stroke-linecap: square"/>
   </g>
   <g id="legend_1">
    <g id="patch_7">
     <path d="M 336.575625 372 
L 510 372 
Q 512.4 372 512.4 369.6 
L 512.4 317.95875 
Q 512.4 315.55875 510 315.55875 
L 336.575625 315.55875 
Q 334.175625 315.55875 334.175625 317.95875 
L 334.175625 369.6 
Q 334.175625 372 336.575625 372 
z
" style="fill: #ffffff; opacity: 0.8; stroke: #cccccc; stroke-linejoin: miter"/>
    </g>
    <g id="line2d_34">
     <path d="M 338.975625 325.276875 
L 350.975625 325.276875 
L 362.975625 325.276875 
" style="fill: none; stroke: #1f77b4; stroke-width: 1.5; stroke-linecap: square"/>
    </g>
    <g id="text_7">
     <!-- Triangular Network -->
     <g transform="translate(372.575625 329.476875)scale(0.12 -0.12)">
      <defs>
       <path id="DejaVuSans-54" d="M -19 4666 
L 3928 4666 
L 3928 4134 
L 2272 4134 
L 2272 0 
L 1638 0 
L 1638 4134 
L -19 4134 
L -19 4666 
z
" transform="scale(0.015625)"/>
       <path id="DejaVuSans-72" d="M 2631 2963 
Q 2534 3019 2420 3045 
Q 2306 3072 2169 3072 
Q 1681 3072 1420 2755 
Q 1159 2438 1159 1844 
L 1159 0 
L 581 0 
L 581 3500 
L 1159 3500 
L 1159 2956 
Q 1341 3275 1631 3429 
Q 1922 3584 2338 3584 
Q 2397 3584 2469 3576 
Q 2541 3569 2628 3553 
L 2631 2963 
z
" transform="scale(0.015625)"/>
       <path id="DejaVuSans-69" d="M 603 3500 
L 1178 3500 
L 1178 0 
L 603 0 
L 603 3500 
z
M 603 4863 
L 1178 4863 
L 1178 4134 
L 603 4134 
L 603 4863 
z
" transform="scale(0.015625)"/>
       <path id="DejaVuSans-61" d="M 2194 1759 
Q 1497 1759 1228 1600 
Q 959 1441 959 1056 
Q 959 750 1161 570 
Q 1363 391 1709 391 
Q 2188 391 2477 730 
Q 2766 1069 2766 1631 
L 2766 1759 
L 2194 1759 
z
M 3341 1997 
L 3341 0 
L 2766 0 
L 2766 531 
Q 2569 213 2275 61 
Q 1981 -91 1556 -91 
Q 1019 -91 701 211 
Q 384 513 384 1019 
Q 384 1609 779 1909 
Q 1175 2209 1959 2209 
L 2766 2209 
L 2766 2266 
Q 2766 2663 2505 2880 
Q 2244 3097 1772 3097 
Q 1472 3097 1187 3025 
Q 903 2953 641 2809 
L 641 3341 
Q 956 3463 1253 3523 
Q 1550 3584 1831 3584 
Q 2591 3584 2966 3190 
Q 3341 2797 3341 1997 
z
" transform="scale(0.015625)"/>
       <path id="DejaVuSans-6e" d="M 3513 2113 
L 3513 0 
L 2938 0 
L 2938 2094 
Q 2938 2591 2744 2837 
Q 2550 3084 2163 3084 
Q 1697 3084 1428 2787 
Q 1159 2491 1159 1978 
L 1159 0 
L 581 0 
L 581 3500 
L 1159 3500 
L 1159 2956 
Q 1366 3272 1645 3428 
Q 1925 3584 2291 3584 
Q 2894 3584 3203 3211 
Q 3513 2838 3513 2113 
z
" transform="scale(0.015625)"/>
       <path id="DejaVuSans-67" d="M 2906 1791 
Q 2906 2416 2648 2759 
Q 2391 3103 1925 3103 
Q 1463 3103 1205 2759 
Q 947 2416 947 1791 
Q 947 1169 1205 825 
Q 1463 481 1925 481 
Q 2391 481 2648 825 
Q 2906 1169 2906 1791 
z
M 3481 434 
Q 3481 -459 3084 -895 
Q 2688 -1331 1869 -1331 
Q 1566 -1331 1297 -1286 
Q 1028 -1241 775 -1147 
L 775 -588 
Q 1028 -725 1275 -790 
Q 1522 -856 1778 -856 
Q 2344 -856 2625 -561 
Q 2906 -266 2906 331 
L 2906 616 
Q 2728 306 2450 153 
Q 2172 0 1784 0 
Q 1141 0 747 490 
Q 353 981 353 1791 
Q 353 2603 747 3093 
Q 1141 3584 1784 3584 
Q 2172 3584 2450 3431 
Q 2728 3278 2906 2969 
L 2906 3500 
L 3481 3500 
L 3481 434 
z
" transform="scale(0.015625)"/>
       <path id="DejaVuSans-75" d="M 544 1381 
L 544 3500 
L 1119 3500 
L 1119 1403 
Q 1119 906 1312 657 
Q 1506 409 1894 409 
Q 2359 409 2629 706 
Q 2900 1003 2900 1516 
L 2900 3500 
L 3475 3500 
L 3475 0 
L 2900 0 
L 2900 538 
Q 2691 219 2414 64 
Q 2138 -91 1772 -91 
Q 1169 -91 856 284 
Q 544 659 544 1381 
z
M 1991 3584 
L 1991 3584 
z
" transform="scale(0.015625)"/>
       <path id="DejaVuSans-6c" d="M 603 4863 
L 1178 4863 
L 1178 0 
L 603 0 
L 603 4863 
z
" transform="scale(0.015625)"/>
       <path id="DejaVuSans-20" transform="scale(0.015625)"/>
       <path id="DejaVuSans-4e" d="M 628 4666 
L 1478 4666 
L 3547 763 
L 3547 4666 
L 4159 4666 
L 4159 0 
L 3309 0 
L 1241 3903 
L 1241 0 
L 628 0 
L 628 4666 
z
" transform="scale(0.015625)"/>
       <path id="DejaVuSans-65" d="M 3597 1894 
L 3597 1613 
L 953 1613 
Q 991 1019 1311 708 
Q 1631 397 2203 397 
Q 2534 397 2845 478 
Q 3156 559 3463 722 
L 3463 178 
Q 3153 47 2828 -22 
Q 2503 -91 2169 -91 
Q 1331 -91 842 396 
Q 353 884 353 1716 
Q 353 2575 817 3079 
Q 1281 3584 2069 3584 
Q 2775 3584 3186 3129 
Q 3597 2675 3597 1894 
z
M 3022 2063 
Q 3016 2534 2758 2815 
Q 2500 3097 2075 3097 
Q 1594 3097 1305 2825 
Q 1016 2553 972 2059 
L 3022 2063 
z
" transform="scale(0.015625)"/>
       <path id="DejaVuSans-77" d="M 269 3500 
L 844 3500 
L 1563 769 
L 2278 3500 
L 2956 3500 
L 3675 769 
L 4391 3500 
L 4966 3500 
L 4050 0 
L 3372 0 
L 2619 2869 
L 1863 0 
L 1184 0 
L 269 3500 
z
" transform="scale(0.015625)"/>
       <path id="DejaVuSans-6f" d="M 1959 3097 
Q 1497 3097 1228 2736 
Q 959 2375 959 1747 
Q 959 1119 1226 758 
Q 1494 397 1959 397 
Q 2419 397 2687 759 
Q 2956 1122 2956 1747 
Q 2956 2369 2687 2733 
Q 2419 3097 1959 3097 
z
M 1959 3584 
Q 2709 3584 3137 3096 
Q 3566 2609 3566 1747 
Q 3566 888 3137 398 
Q 2709 -91 1959 -91 
Q 1206 -91 779 398 
Q 353 888 353 1747 
Q 353 2609 779 3096 
Q 1206 3584 1959 3584 
z
" transform="scale(0.015625)"/>
       <path id="DejaVuSans-6b" d="M 581 4863 
L 1159 4863 
L 1159 1991 
L 2875 3500 
L 3609 3500 
L 1753 1863 
L 3688 0 
L 2938 0 
L 1159 1709 
L 1159 0 
L 581 0 
L 581 4863 
z
" transform="scale(0.015625)"/>
      </defs>
      <use xlink:href="#DejaVuSans-54"/>
      <use xlink:href="#DejaVuSans-72" x="46.333984"/>
      <use xlink:href="#DejaVuSans-69" x="87.447266"/>
      <use xlink:href="#DejaVuSans-61" x="115.230469"/>
      <use xlink:href="#DejaVuSans-6e" x="176.509766"/>
      <use xlink:href="#DejaVuSans-67" x="239.888672"/>
      <use xlink:href="#DejaVuSans-75" x="303.365234"/>
      <use xlink:href="#DejaVuSans-6c" x="366.744141"/>
      <use xlink:href="#DejaVuSans-61" x="394.527344"/>
      <use xlink:href="#DejaVuSans-72" x="455.806641"/>
      <use xlink:href="#DejaVuSans-20" x="496.919922"/>
      <use xlink:href="#DejaVuSans-4e" x="528.707031"/>
      <use xlink:href="#DejaVuSans-65" x="603.511719"/>
      <use xlink:href="#DejaVuSans-74" x="665.035156"/>
      <use xlink:href="#DejaVuSans-77" x="704.244141"/>
      <use xlink:href="#DejaVuSans-6f" x="786.03125"/>
      <use xlink:href="#DejaVuSans-72" x="847.212891"/>
      <use xlink:href="#DejaVuSans-6b" x="888.326172"/>
     </g>
    </g>
    <g id="line2d_35">
     <path d="M 338.975625 342.890625 
L 350.975625 342.890625 
L 362.975625 342.890625 
" style="fill: none; stroke: #ff7f0e; stroke-width: 1.5; stroke-linecap: square"/>
    </g>
    <g id="text_8">
     <!-- Dual Sierpinski Gasket -->
     <g transform="translate(372.575625 347.090625)scale(0.12 -0.12)">
      <defs>
       <path id="DejaVuSans-70" d="M 1159 525 
L 1159 -1331 
L 581 -1331 
L 581 3500 
L 1159 3500 
L 1159 2969 
Q 1341 3281 1617 3432 
Q 1894 3584 2278 3584 
Q 2916 3584 3314 3078 
Q 3713 2572 3713 1747 
Q 3713 922 3314 415 
Q 2916 -91 2278 -91 
Q 1894 -91 1617 61 
Q 1341 213 1159 525 
z
M 3116 1747 
Q 3116 2381 2855 2742 
Q 2594 3103 2138 3103 
Q 1681 3103 1420 2742 
Q 1159 2381 1159 1747 
Q 1159 1113 1420 752 
Q 1681 391 2138 391 
Q 2594 391 2855 752 
Q 3116 1113 3116 1747 
z
" transform="scale(0.015625)"/>
       <path id="DejaVuSans-73" d="M 2834 3397 
L 2834 2853 
Q 2591 2978 2328 3040 
Q 2066 3103 1784 3103 
Q 1356 3103 1142 2972 
Q 928 2841 928 2578 
Q 928 2378 1081 2264 
Q 1234 2150 1697 2047 
L 1894 2003 
Q 2506 1872 2764 1633 
Q 3022 1394 3022 966 
Q 3022 478 2636 193 
Q 2250 -91 1575 -91 
Q 1294 -91 989 -36 
Q 684 19 347 128 
L 347 722 
Q 666 556 975 473 
Q 1284 391 1588 391 
Q 1994 391 2212 530 
Q 2431 669 2431 922 
Q 2431 1156 2273 1281 
Q 2116 1406 1581 1522 
L 1381 1569 
Q 847 1681 609 1914 
Q 372 2147 372 2553 
Q 372 3047 722 3315 
Q 1072 3584 1716 3584 
Q 2034 3584 2315 3537 
Q 2597 3491 2834 3397 
z
" transform="scale(0.015625)"/>
       <path id="DejaVuSans-47" d="M 3809 666 
L 3809 1919 
L 2778 1919 
L 2778 2438 
L 4434 2438 
L 4434 434 
Q 4069 175 3628 42 
Q 3188 -91 2688 -91 
Q 1594 -91 976 548 
Q 359 1188 359 2328 
Q 359 3472 976 4111 
Q 1594 4750 2688 4750 
Q 3144 4750 3555 4637 
Q 3966 4525 4313 4306 
L 4313 3634 
Q 3963 3931 3569 4081 
Q 3175 4231 2741 4231 
Q 1884 4231 1454 3753 
Q 1025 3275 1025 2328 
Q 1025 1384 1454 906 
Q 1884 428 2741 428 
Q 3075 428 3337 486 
Q 3600 544 3809 666 
z
" transform="scale(0.015625)"/>
      </defs>
      <use xlink:href="#DejaVuSans-44"/>
      <use xlink:href="#DejaVuSans-75" x="77.001953"/>
      <use xlink:href="#DejaVuSans-61" x="140.380859"/>
      <use xlink:href="#DejaVuSans-6c" x="201.660156"/>
      <use xlink:href="#DejaVuSans-20" x="229.443359"/>
      <use xlink:href="#DejaVuSans-53" x="261.230469"/>
      <use xlink:href="#DejaVuSans-69" x="324.707031"/>
      <use xlink:href="#DejaVuSans-65" x="352.490234"/>
      <use xlink:href="#DejaVuSans-72" x="414.013672"/>
      <use xlink:href="#DejaVuSans-70" x="455.126953"/>
      <use xlink:href="#DejaVuSans-69" x="518.603516"/>
      <use xlink:href="#DejaVuSans-6e" x="546.386719"/>
      <use xlink:href="#DejaVuSans-73" x="609.765625"/>
      <use xlink:href="#DejaVuSans-6b" x="661.865234"/>
      <use xlink:href="#DejaVuSans-69" x="719.775391"/>
      <use xlink:href="#DejaVuSans-20" x="747.558594"/>
      <use xlink:href="#DejaVuSans-47" x="779.345703"/>
      <use xlink:href="#DejaVuSans-61" x="856.835938"/>
      <use xlink:href="#DejaVuSans-73" x="918.115234"/>
      <use xlink:href="#DejaVuSans-6b" x="970.214844"/>
      <use xlink:href="#DejaVuSans-65" x="1024.5"/>
      <use xlink:href="#DejaVuSans-74" x="1086.023438"/>
     </g>
    </g>
    <g id="line2d_36">
     <path d="M 338.975625 360.504375 
L 350.975625 360.504375 
L 362.975625 360.504375 
" style="fill: none; stroke: #2ca02c; stroke-width: 1.5; stroke-linecap: square"/>
    </g>
    <g id="text_9">
     <!-- QASM-10-layer -->
     <g transform="translate(372.575625 364.704375)scale(0.12 -0.12)">
      <defs>
       <path id="DejaVuSans-51" d="M 2522 4238 
Q 1834 4238 1429 3725 
Q 1025 3213 1025 2328 
Q 1025 1447 1429 934 
Q 1834 422 2522 422 
Q 3209 422 3611 934 
Q 4013 1447 4013 2328 
Q 4013 3213 3611 3725 
Q 3209 4238 2522 4238 
z
M 3406 84 
L 4238 -825 
L 3475 -825 
L 2784 -78 
Q 2681 -84 2626 -87 
Q 2572 -91 2522 -91 
Q 1538 -91 948 567 
Q 359 1225 359 2328 
Q 359 3434 948 4092 
Q 1538 4750 2522 4750 
Q 3503 4750 4090 4092 
Q 4678 3434 4678 2328 
Q 4678 1516 4351 937 
Q 4025 359 3406 84 
z
" transform="scale(0.015625)"/>
       <path id="DejaVuSans-41" d="M 2188 4044 
L 1331 1722 
L 3047 1722 
L 2188 4044 
z
M 1831 4666 
L 2547 4666 
L 4325 0 
L 3669 0 
L 3244 1197 
L 1141 1197 
L 716 0 
L 50 0 
L 1831 4666 
z
" transform="scale(0.015625)"/>
       <path id="DejaVuSans-2d" d="M 313 2009 
L 1997 2009 
L 1997 1497 
L 313 1497 
L 313 2009 
z
" transform="scale(0.015625)"/>
       <path id="DejaVuSans-79" d="M 2059 -325 
Q 1816 -950 1584 -1140 
Q 1353 -1331 966 -1331 
L 506 -1331 
L 506 -850 
L 844 -850 
Q 1081 -850 1212 -737 
Q 1344 -625 1503 -206 
L 1606 56 
L 191 3500 
L 800 3500 
L 1894 763 
L 2988 3500 
L 3597 3500 
L 2059 -325 
z
" transform="scale(0.015625)"/>
      </defs>
      <use xlink:href="#DejaVuSans-51"/>
      <use xlink:href="#DejaVuSans-41" x="78.710938"/>
      <use xlink:href="#DejaVuSans-53" x="147.119141"/>
      <use xlink:href="#DejaVuSans-4d" x="210.595703"/>
      <use xlink:href="#DejaVuSans-2d" x="296.875"/>
      <use xlink:href="#DejaVuSans-31" x="332.958984"/>
      <use xlink:href="#DejaVuSans-30" x="396.582031"/>
      <use xlink:href="#DejaVuSans-2d" x="460.205078"/>
      <use xlink:href="#DejaVuSans-6c" x="496.289062"/>
      <use xlink:href="#DejaVuSans-61" x="524.072266"/>
      <use xlink:href="#DejaVuSans-79" x="585.351562"/>
      <use xlink:href="#DejaVuSans-65" x="644.53125"/>
      <use xlink:href="#DejaVuSans-72" x="706.054688"/>
     </g>
    </g>
   </g>
  </g>
 </g>
 <defs>
  <clipPath id="p099c538bce">
   <rect x="72" y="51.84" width="446.4" height="326.16"/>
  </clipPath>
 </defs>
</svg>
