<?xml version="1.0" encoding="utf-8" standalone="no"?>
<!DOCTYPE svg PUBLIC "-//W3C//DTD SVG 1.1//EN"
  "http://www.w3.org/Graphics/SVG/1.1/DTD/svg11.dtd">
<svg xmlns:xlink="http://www.w3.org/1999/xlink" width="576pt" height="432pt" viewBox="0 0 576 432" xmlns="http://www.w3.org/2000/svg" version="1.1">
 <metadata>
  <rdf:RDF xmlns:dc="http://purl.org/dc/elements/1.1/" xmlns:cc="http://creativecommons.org/ns#" xmlns:rdf="http://www.w3.org/1999/02/22-rdf-syntax-ns#">
   <cc:Work>
    <dc:type rdf:resource="http://purl.org/dc/dcmitype/StillImage"/>
    <dc:date>2022-06-14T20:35:22.865696</dc:date>
    <dc:format>image/svg+xml</dc:format>
    <dc:creator>
     <cc:Agent>
      <dc:title>Matplotlib v3.5.1, https://matplotlib.org/</dc:title>
     </cc:Agent>
    </dc:creator>
   </cc:Work>
  </rdf:RDF>
 </metadata>
 <defs>
  <style type="text/css">*{stroke-linejoin: round; stroke-linecap: butt}</style>
 </defs>
 <g id="figure_1">
  <g id="patch_1">
   <path d="M 0 432 
L 576 432 
L 576 0 
L 0 0 
L 0 432 
z
" style="fill: none"/>
  </g>
  <g id="axes_1">
   <g id="patch_2">
    <path d="M 72 378 
L 518.4 378 
L 518.4 51.84 
L 72 51.84 
z
" style="fill: #ffffff"/>
   </g>
   <g id="matplotlib.axis_1">
    <g id="xtick_1">
     <g id="line2d_1">
      <defs>
       <path id="ma7794c7197" d="M 0 0 
L 0 3.5 
" style="stroke: #000000; stroke-width: 0.8"/>
      </defs>
      <g>
       <use xlink:href="#ma7794c7197" x="72" y="378" style="stroke: #000000; stroke-width: 0.8"/>
      </g>
     </g>
     <g id="text_1">
      <!-- $\mathdefault{10^{-1}}$ -->
      <g transform="translate(57.9 394.118125)scale(0.12 -0.12)">
       <defs>
        <path id="DejaVuSans-31" d="M 794 531 
L 1825 531 
L 1825 4091 
L 703 3866 
L 703 4441 
L 1819 4666 
L 2450 4666 
L 2450 531 
L 3481 531 
L 3481 0 
L 794 0 
L 794 531 
z
" transform="scale(0.015625)"/>
        <path id="DejaVuSans-30" d="M 2034 4250 
Q 1547 4250 1301 3770 
Q 1056 3291 1056 2328 
Q 1056 1369 1301 889 
Q 1547 409 2034 409 
Q 2525 409 2770 889 
Q 3016 1369 3016 2328 
Q 3016 3291 2770 3770 
Q 2525 4250 2034 4250 
z
M 2034 4750 
Q 2819 4750 3233 4129 
Q 3647 3509 3647 2328 
Q 3647 1150 3233 529 
Q 2819 -91 2034 -91 
Q 1250 -91 836 529 
Q 422 1150 422 2328 
Q 422 3509 836 4129 
Q 1250 4750 2034 4750 
z
" transform="scale(0.015625)"/>
        <path id="DejaVuSans-2212" d="M 678 2272 
L 4684 2272 
L 4684 1741 
L 678 1741 
L 678 2272 
z
" transform="scale(0.015625)"/>
       </defs>
       <use xlink:href="#DejaVuSans-31" transform="translate(0 0.684375)"/>
       <use xlink:href="#DejaVuSans-30" transform="translate(63.623047 0.684375)"/>
       <use xlink:href="#DejaVuSans-2212" transform="translate(128.203125 38.965625)scale(0.7)"/>
       <use xlink:href="#DejaVuSans-31" transform="translate(186.855469 38.965625)scale(0.7)"/>
      </g>
     </g>
    </g>
    <g id="xtick_2">
     <g id="line2d_2">
      <g>
       <use xlink:href="#ma7794c7197" x="374.209449" y="378" style="stroke: #000000; stroke-width: 0.8"/>
      </g>
     </g>
     <g id="text_2">
      <!-- $\mathdefault{10^{0}}$ -->
      <g transform="translate(363.649449 394.118125)scale(0.12 -0.12)">
       <use xlink:href="#DejaVuSans-31" transform="translate(0 0.765625)"/>
       <use xlink:href="#DejaVuSans-30" transform="translate(63.623047 0.765625)"/>
       <use xlink:href="#DejaVuSans-30" transform="translate(128.203125 39.046875)scale(0.7)"/>
      </g>
     </g>
    </g>
    <g id="xtick_3">
     <g id="line2d_3">
      <defs>
       <path id="me520304fd2" d="M 0 0 
L 0 2 
" style="stroke: #000000; stroke-width: 0.6"/>
      </defs>
      <g>
       <use xlink:href="#me520304fd2" x="162.974109" y="378" style="stroke: #000000; stroke-width: 0.6"/>
      </g>
     </g>
    </g>
    <g id="xtick_4">
     <g id="line2d_4">
      <g>
       <use xlink:href="#me520304fd2" x="216.190551" y="378" style="stroke: #000000; stroke-width: 0.6"/>
      </g>
     </g>
    </g>
    <g id="xtick_5">
     <g id="line2d_5">
      <g>
       <use xlink:href="#me520304fd2" x="253.948218" y="378" style="stroke: #000000; stroke-width: 0.6"/>
      </g>
     </g>
    </g>
    <g id="xtick_6">
     <g id="line2d_6">
      <g>
       <use xlink:href="#me520304fd2" x="283.23534" y="378" style="stroke: #000000; stroke-width: 0.6"/>
      </g>
     </g>
    </g>
    <g id="xtick_7">
     <g id="line2d_7">
      <g>
       <use xlink:href="#me520304fd2" x="307.16466" y="378" style="stroke: #000000; stroke-width: 0.6"/>
      </g>
     </g>
    </g>
    <g id="xtick_8">
     <g id="line2d_8">
      <g>
       <use xlink:href="#me520304fd2" x="327.396613" y="378" style="stroke: #000000; stroke-width: 0.6"/>
      </g>
     </g>
    </g>
    <g id="xtick_9">
     <g id="line2d_9">
      <g>
       <use xlink:href="#me520304fd2" x="344.922327" y="378" style="stroke: #000000; stroke-width: 0.6"/>
      </g>
     </g>
    </g>
    <g id="xtick_10">
     <g id="line2d_10">
      <g>
       <use xlink:href="#me520304fd2" x="360.381103" y="378" style="stroke: #000000; stroke-width: 0.6"/>
      </g>
     </g>
    </g>
    <g id="xtick_11">
     <g id="line2d_11">
      <g>
       <use xlink:href="#me520304fd2" x="465.183558" y="378" style="stroke: #000000; stroke-width: 0.6"/>
      </g>
     </g>
    </g>
    <g id="xtick_12">
     <g id="line2d_12">
      <g>
       <use xlink:href="#me520304fd2" x="518.4" y="378" style="stroke: #000000; stroke-width: 0.6"/>
      </g>
     </g>
    </g>
    <g id="text_3">
     <!-- t -->
     <g transform="translate(292.847812 409.731875)scale(0.12 -0.12)">
      <defs>
       <path id="DejaVuSans-74" d="M 1172 4494 
L 1172 3500 
L 2356 3500 
L 2356 3053 
L 1172 3053 
L 1172 1153 
Q 1172 725 1289 603 
Q 1406 481 1766 481 
L 2356 481 
L 2356 0 
L 1766 0 
Q 1100 0 847 248 
Q 594 497 594 1153 
L 594 3053 
L 172 3053 
L 172 3500 
L 594 3500 
L 594 4494 
L 1172 4494 
z
" transform="scale(0.015625)"/>
      </defs>
      <use xlink:href="#DejaVuSans-74"/>
     </g>
    </g>
   </g>
   <g id="matplotlib.axis_2">
    <g id="ytick_1">
     <g id="line2d_13">
      <defs>
       <path id="m3d2675ee67" d="M 0 0 
L -3.5 0 
" style="stroke: #000000; stroke-width: 0.8"/>
      </defs>
      <g>
       <use xlink:href="#m3d2675ee67" x="72" y="243.815137" style="stroke: #000000; stroke-width: 0.8"/>
      </g>
     </g>
     <g id="text_4">
      <!-- $\mathdefault{10^{0}}$ -->
      <g transform="translate(43.88 248.3742)scale(0.12 -0.12)">
       <use xlink:href="#DejaVuSans-31" transform="translate(0 0.765625)"/>
       <use xlink:href="#DejaVuSans-30" transform="translate(63.623047 0.765625)"/>
       <use xlink:href="#DejaVuSans-30" transform="translate(128.203125 39.046875)scale(0.7)"/>
      </g>
     </g>
    </g>
    <g id="ytick_2">
     <g id="line2d_14">
      <g>
       <use xlink:href="#m3d2675ee67" x="72" y="51.84" style="stroke: #000000; stroke-width: 0.8"/>
      </g>
     </g>
     <g id="text_5">
      <!-- $\mathdefault{10^{1}}$ -->
      <g transform="translate(43.88 56.399062)scale(0.12 -0.12)">
       <use xlink:href="#DejaVuSans-31" transform="translate(0 0.684375)"/>
       <use xlink:href="#DejaVuSans-30" transform="translate(63.623047 0.684375)"/>
       <use xlink:href="#DejaVuSans-31" transform="translate(128.203125 38.965625)scale(0.7)"/>
      </g>
     </g>
    </g>
    <g id="ytick_3">
     <g id="line2d_15">
      <defs>
       <path id="m5e2ec10328" d="M 0 0 
L -2 0 
" style="stroke: #000000; stroke-width: 0.6"/>
      </defs>
      <g>
       <use xlink:href="#m5e2ec10328" x="72" y="378" style="stroke: #000000; stroke-width: 0.6"/>
      </g>
     </g>
    </g>
    <g id="ytick_4">
     <g id="line2d_16">
      <g>
       <use xlink:href="#m5e2ec10328" x="72" y="344.194856" style="stroke: #000000; stroke-width: 0.6"/>
      </g>
     </g>
    </g>
    <g id="ytick_5">
     <g id="line2d_17">
      <g>
       <use xlink:href="#m5e2ec10328" x="72" y="320.209725" style="stroke: #000000; stroke-width: 0.6"/>
      </g>
     </g>
    </g>
    <g id="ytick_6">
     <g id="line2d_18">
      <g>
       <use xlink:href="#m5e2ec10328" x="72" y="301.605412" style="stroke: #000000; stroke-width: 0.6"/>
      </g>
     </g>
    </g>
    <g id="ytick_7">
     <g id="line2d_19">
      <g>
       <use xlink:href="#m5e2ec10328" x="72" y="286.404582" style="stroke: #000000; stroke-width: 0.6"/>
      </g>
     </g>
    </g>
    <g id="ytick_8">
     <g id="line2d_20">
      <g>
       <use xlink:href="#m5e2ec10328" x="72" y="273.552462" style="stroke: #000000; stroke-width: 0.6"/>
      </g>
     </g>
    </g>
    <g id="ytick_9">
     <g id="line2d_21">
      <g>
       <use xlink:href="#m5e2ec10328" x="72" y="262.41945" style="stroke: #000000; stroke-width: 0.6"/>
      </g>
     </g>
    </g>
    <g id="ytick_10">
     <g id="line2d_22">
      <g>
       <use xlink:href="#m5e2ec10328" x="72" y="252.599438" style="stroke: #000000; stroke-width: 0.6"/>
      </g>
     </g>
    </g>
    <g id="ytick_11">
     <g id="line2d_23">
      <g>
       <use xlink:href="#m5e2ec10328" x="72" y="186.024863" style="stroke: #000000; stroke-width: 0.6"/>
      </g>
     </g>
    </g>
    <g id="ytick_12">
     <g id="line2d_24">
      <g>
       <use xlink:href="#m5e2ec10328" x="72" y="152.219719" style="stroke: #000000; stroke-width: 0.6"/>
      </g>
     </g>
    </g>
    <g id="ytick_13">
     <g id="line2d_25">
      <g>
       <use xlink:href="#m5e2ec10328" x="72" y="128.234588" style="stroke: #000000; stroke-width: 0.6"/>
      </g>
     </g>
    </g>
    <g id="ytick_14">
     <g id="line2d_26">
      <g>
       <use xlink:href="#m5e2ec10328" x="72" y="109.630275" style="stroke: #000000; stroke-width: 0.6"/>
      </g>
     </g>
    </g>
    <g id="ytick_15">
     <g id="line2d_27">
      <g>
       <use xlink:href="#m5e2ec10328" x="72" y="94.429444" style="stroke: #000000; stroke-width: 0.6"/>
      </g>
     </g>
    </g>
    <g id="ytick_16">
     <g id="line2d_28">
      <g>
       <use xlink:href="#m5e2ec10328" x="72" y="81.577325" style="stroke: #000000; stroke-width: 0.6"/>
      </g>
     </g>
    </g>
    <g id="ytick_17">
     <g id="line2d_29">
      <g>
       <use xlink:href="#m5e2ec10328" x="72" y="70.444313" style="stroke: #000000; stroke-width: 0.6"/>
      </g>
     </g>
    </g>
    <g id="ytick_18">
     <g id="line2d_30">
      <g>
       <use xlink:href="#m5e2ec10328" x="72" y="60.624301" style="stroke: #000000; stroke-width: 0.6"/>
      </g>
     </g>
    </g>
    <g id="text_6">
     <!-- MSD -->
     <g transform="translate(37.384375 228.525937)rotate(-90)scale(0.12 -0.12)">
      <defs>
       <path id="DejaVuSans-4d" d="M 628 4666 
L 1569 4666 
L 2759 1491 
L 3956 4666 
L 4897 4666 
L 4897 0 
L 4281 0 
L 4281 4097 
L 3078 897 
L 2444 897 
L 1241 4097 
L 1241 0 
L 628 0 
L 628 4666 
z
" transform="scale(0.015625)"/>
       <path id="DejaVuSans-53" d="M 3425 4513 
L 3425 3897 
Q 3066 4069 2747 4153 
Q 2428 4238 2131 4238 
Q 1616 4238 1336 4038 
Q 1056 3838 1056 3469 
Q 1056 3159 1242 3001 
Q 1428 2844 1947 2747 
L 2328 2669 
Q 3034 2534 3370 2195 
Q 3706 1856 3706 1288 
Q 3706 609 3251 259 
Q 2797 -91 1919 -91 
Q 1588 -91 1214 -16 
Q 841 59 441 206 
L 441 856 
Q 825 641 1194 531 
Q 1563 422 1919 422 
Q 2459 422 2753 634 
Q 3047 847 3047 1241 
Q 3047 1584 2836 1778 
Q 2625 1972 2144 2069 
L 1759 2144 
Q 1053 2284 737 2584 
Q 422 2884 422 3419 
Q 422 4038 858 4394 
Q 1294 4750 2059 4750 
Q 2388 4750 2728 4690 
Q 3069 4631 3425 4513 
z
" transform="scale(0.015625)"/>
       <path id="DejaVuSans-44" d="M 1259 4147 
L 1259 519 
L 2022 519 
Q 2988 519 3436 956 
Q 3884 1394 3884 2338 
Q 3884 3275 3436 3711 
Q 2988 4147 2022 4147 
L 1259 4147 
z
M 628 4666 
L 1925 4666 
Q 3281 4666 3915 4102 
Q 4550 3538 4550 2338 
Q 4550 1131 3912 565 
Q 3275 0 1925 0 
L 628 0 
L 628 4666 
z
" transform="scale(0.015625)"/>
      </defs>
      <use xlink:href="#DejaVuSans-4d"/>
      <use xlink:href="#DejaVuSans-53" x="86.279297"/>
      <use xlink:href="#DejaVuSans-44" x="149.755859"/>
     </g>
    </g>
   </g>
   <g id="line2d_31">
    <path d="M 72 378.208695 
L 84.509261 362.366058 
L 95.929321 348.764424 
L 106.434758 334.994726 
L 116.161273 327.672885 
L 125.216442 308.875037 
L 133.686987 302.696378 
L 141.643841 289.591227 
L 149.145763 279.060423 
L 156.241972 270.828258 
L 162.974109 264.050671 
L 169.377715 255.06734 
L 175.48337 249.018281 
L 181.31757 239.450086 
L 186.90343 230.707334 
L 192.261231 225.144152 
L 197.408867 219.523131 
L 202.362205 211.411266 
L 207.135382 205.138789 
L 211.741044 198.635894 
L 216.190551 194.901852 
L 220.494147 191.106074 
L 224.661096 184.999444 
L 228.699812 182.564705 
L 232.61795 176.167803 
L 236.422504 170.824032 
L 240.119872 165.361834 
L 243.71593 161.235935 
L 247.216081 157.645015 
L 250.625309 155.139707 
L 253.948218 151.603645 
L 257.189071 145.77746 
L 260.351824 144.901012 
L 266.457479 139.052567 
L 269.406994 139.195076 
L 272.291679 134.565704 
L 275.114323 131.05929 
L 277.877539 132.934529 
L 280.583777 131.648927 
L 283.23534 127.198876 
L 285.834393 126.983001 
L 288.382976 125.760042 
L 290.883011 125.300987 
L 293.336314 124.151882 
L 295.7446 122.705718 
L 298.109491 121.977431 
L 300.432523 122.06449 
L 302.715153 123.126156 
L 304.958761 122.652093 
L 307.16466 124.345619 
L 309.334096 123.165374 
L 311.468256 125.280867 
L 313.568267 125.300987 
L 315.635205 128.265859 
L 317.670097 130.190582 
L 319.673921 132.395994 
L 321.647611 133.398915 
L 323.59206 136.580017 
L 325.508121 136.868488 
L 327.396613 140.670013 
L 329.258316 142.189992 
L 331.093981 144.412425 
L 332.904326 144.729363 
L 334.690039 145.315697 
L 336.451782 153.861568 
L 338.19019 153.500963 
L 339.905873 155.391929 
L 341.599418 159.587952 
L 343.271388 160.442371 
L 344.922327 160.741959 
L 346.552757 163.60721 
L 348.163181 165.859492 
L 351.325933 165.78588 
L 352.879181 168.098627 
L 354.414262 168.612943 
L 355.931595 167.212375 
L 357.431588 165.38624 
L 358.91463 164.915659 
L 360.381103 161.081253 
L 361.83137 160.182067 
L 363.265788 158.210465 
L 364.684698 154.709093 
L 366.088432 152.261416 
L 367.477312 149.607023 
L 368.851648 145.559087 
L 370.211742 142.622333 
L 371.557886 141.65576 
L 372.890363 137.326316 
L 374.209449 136.023215 
L 375.515409 129.807377 
L 376.808502 127.513407 
L 378.088979 126.788167 
L 379.357085 120.858626 
L 380.613055 119.070241 
L 381.85712 116.346822 
L 383.089504 112.790938 
L 384.310423 111.540405 
L 385.52009 107.461822 
L 386.718709 105.904593 
L 387.906481 105.036088 
L 389.0836 101.961018 
L 390.250256 100.775553 
L 391.406632 98.925652 
L 392.55291 97.91982 
L 393.689262 96.575922 
L 394.81586 98.206483 
L 395.93287 94.023985 
L 397.040454 93.641132 
L 398.138769 92.720547 
L 399.22797 93.017172 
L 400.308205 91.5512 
L 401.379623 91.813382 
L 402.442365 91.12607 
L 403.49657 89.725521 
L 404.542376 90.809471 
L 405.579914 92.106791 
L 406.609314 92.032498 
L 407.630704 91.309915 
L 408.644206 92.421582 
L 409.649942 92.201442 
L 410.64803 93.627368 
L 411.638585 92.441932 
L 412.62172 92.608309 
L 413.597545 94.645105 
L 414.566169 94.788027 
L 415.527696 96.191842 
L 416.48223 95.390284 
L 417.429873 96.793641 
L 418.370722 98.439442 
L 419.304874 98.454024 
L 420.232425 98.958656 
L 421.153467 100.215143 
L 422.06809 99.2931 
L 422.976384 100.693124 
L 423.878435 102.844016 
L 424.774328 101.824246 
L 425.664148 104.016596 
L 426.547975 102.920908 
L 427.425891 104.772178 
L 428.297973 107.534964 
L 429.164299 105.146626 
L 430.024944 107.534964 
L 430.879982 107.291407 
L 431.729486 108.986619 
L 432.573527 108.664585 
L 433.412175 108.163371 
L 434.245497 110.190759 
L 435.073563 110.044 
L 435.896436 110.119443 
L 436.714183 109.76378 
L 437.526866 110.409279 
L 438.334548 111.963742 
L 439.13729 110.186562 
L 439.935152 109.596932 
L 440.728193 110.023055 
L 441.516471 111.030134 
L 442.300042 109.476176 
L 443.078964 109.363905 
L 443.85329 108.693435 
L 444.623075 108.356105 
L 445.388371 108.41771 
L 446.14923 108.048763 
L 446.905704 106.975842 
L 447.657843 106.508738 
L 448.405697 103.647178 
L 449.149313 103.47276 
L 449.888739 103.674342 
L 451.355212 101.968623 
L 452.082349 98.348365 
L 452.805479 98.742534 
L 453.524648 97.70637 
L 454.239897 97.709983 
L 454.951269 95.904938 
L 455.658807 95.509851 
L 456.362551 94.648588 
L 457.062541 94.186625 
L 457.758818 91.786453 
L 458.451421 92.418191 
L 459.140388 91.497521 
L 459.825757 91.219614 
L 460.507566 89.975429 
L 461.185851 91.12607 
L 461.860649 91.407015 
L 462.531995 89.735372 
L 463.199925 90.355009 
L 463.864472 91.129409 
L 464.525672 91.71917 
L 465.183558 92.029123 
L 465.838162 90.839413 
L 466.489518 91.651941 
L 467.137657 93.937603 
L 467.782611 95.113125 
L 468.424411 95.767151 
L 469.063088 96.875879 
L 469.698673 98.86701 
L 470.331194 99.651078 
L 470.960681 101.188928 
L 471.587164 100.768056 
L 472.210671 102.62143 
L 473.448868 106.838661 
L 474.063613 108.652224 
L 474.675492 111.30189 
L 475.284532 111.706918 
L 475.890759 113.13804 
L 476.494199 114.029746 
L 477.094877 116.319716 
L 477.692818 119.196384 
L 478.288048 119.332085 
L 478.88059 120.553924 
L 480.057709 124.032883 
L 480.642333 124.271052 
L 481.224365 123.953645 
L 482.380741 127.927713 
L 482.955131 125.33621 
L 483.527019 127.415311 
L 484.096425 127.948482 
L 484.663371 127.08059 
L 485.227879 127.039486 
L 485.789969 127.147426 
L 487.46194 121.687888 
L 488.56487 123.258593 
L 489.112878 118.211022 
L 489.658608 119.538397 
L 490.202079 115.761488 
L 490.743308 116.736314 
L 491.282315 114.359992 
L 491.819116 114.082497 
L 492.353732 111.69837 
L 492.886178 111.021656 
L 493.416474 111.013179 
L 493.944635 108.800678 
L 494.470679 108.097861 
L 495.516485 105.824901 
L 496.036279 106.560956 
L 497.069732 103.705398 
L 497.583424 103.345085 
L 498.095112 101.736981 
L 498.604813 100.801798 
L 499.112543 102.828646 
L 499.618315 101.286935 
L 500.624051 100.629484 
L 501.124044 101.600576 
L 501.622139 99.554974 
L 502.118351 100.196528 
L 502.612694 101.52111 
L 503.105182 100.479934 
L 503.595829 101.453056 
L 504.084648 101.809063 
L 505.056859 101.630869 
L 505.540278 101.56651 
L 506.021922 103.098028 
L 506.501805 102.529499 
L 507.456339 105.285006 
L 507.931016 104.145305 
L 508.403982 104.78791 
L 508.875249 104.540469 
L 509.344831 105.194045 
L 509.812738 108.085584 
L 510.278983 108.368423 
L 510.743578 109.28499 
L 511.206534 109.202002 
L 511.667863 110.860735 
L 512.127576 110.447158 
L 512.585684 113.399318 
L 513.497132 113.639544 
L 514.852544 117.865196 
L 515.301255 117.750239 
L 515.748437 119.834691 
L 516.194101 119.430488 
L 516.638257 121.279416 
L 517.080915 123.834928 
L 517.522084 123.312609 
L 517.961776 126.42535 
L 518.4 127.673706 
L 518.4 127.673706 
" clip-path="url(#p991969562d)" style="fill: none; stroke: #1f77b4; stroke-width: 1.5; stroke-linecap: square"/>
   </g>
   <g id="line2d_32">
    <path d="M 72 380.970371 
L 84.509261 366.347524 
L 95.929321 344.403552 
L 106.434758 338.35933 
L 116.161273 327.786939 
L 125.216442 315.106195 
L 141.643841 289.699575 
L 149.145763 283.134604 
L 156.241972 274.210129 
L 162.974109 262.60203 
L 169.377715 256.559635 
L 175.48337 250.382711 
L 181.31757 243.399307 
L 186.90343 232.344106 
L 192.261231 228.7012 
L 197.408867 223.576155 
L 202.362205 216.690402 
L 207.135382 209.221682 
L 211.741044 206.980865 
L 216.190551 199.562414 
L 220.494147 195.203805 
L 228.699812 184.445396 
L 232.61795 178.667981 
L 236.422504 175.807457 
L 240.119872 170.928314 
L 243.71593 164.319093 
L 247.216081 162.562453 
L 250.625309 161.499556 
L 253.948218 153.776579 
L 257.189071 153.177044 
L 260.351824 148.403725 
L 263.440153 146.235329 
L 266.457479 143.387492 
L 272.291679 136.776069 
L 275.114323 134.240266 
L 277.877539 132.807825 
L 280.583777 131.253572 
L 283.23534 131.000017 
L 285.834393 128.825504 
L 288.382976 126.988135 
L 290.883011 128.830752 
L 293.336314 125.603377 
L 295.7446 124.709468 
L 298.109491 124.524853 
L 300.432523 124.465066 
L 302.715153 121.933935 
L 304.958761 124.365515 
L 307.16466 121.6301 
L 309.334096 124.989666 
L 311.468256 124.146921 
L 313.568267 124.216411 
L 315.635205 124.072531 
L 317.670097 127.214317 
L 321.647611 126.952208 
L 323.59206 128.458956 
L 325.508121 130.414935 
L 327.396613 130.768714 
L 329.258316 132.385039 
L 332.904326 135.107167 
L 334.690039 134.005394 
L 336.451782 136.200758 
L 338.19019 137.146362 
L 339.905873 136.510933 
L 341.599418 139.165366 
L 343.271388 137.903622 
L 344.922327 136.978369 
L 346.552757 137.192765 
L 348.163181 136.447655 
L 349.754084 135.418972 
L 351.325933 134.717635 
L 352.879181 133.888206 
L 355.931595 130.452386 
L 357.431588 126.435548 
L 360.381103 123.943745 
L 361.83137 119.721693 
L 363.265788 118.567567 
L 366.088432 113.442944 
L 367.477312 108.883268 
L 368.851648 106.66549 
L 370.211742 103.279389 
L 371.557886 102.246681 
L 372.890363 99.865863 
L 374.209449 95.703633 
L 375.515409 93.996333 
L 376.808502 90.4212 
L 378.088979 88.837203 
L 379.357085 86.840709 
L 380.613055 83.137219 
L 383.089504 81.452358 
L 384.310423 80.207026 
L 385.52009 79.251776 
L 386.718709 77.603142 
L 387.906481 76.270981 
L 389.0836 75.517218 
L 390.250256 74.567385 
L 391.406632 73.83694 
L 392.55291 75.001038 
L 393.689262 74.3951 
L 394.81586 73.112839 
L 397.040454 73.777262 
L 398.138769 75.210437 
L 399.22797 75.653003 
L 401.379623 76.761375 
L 402.442365 78.691889 
L 404.542376 79.713473 
L 405.579914 82.442333 
L 406.609314 82.985663 
L 407.630704 83.792066 
L 408.644206 86.363156 
L 409.649942 87.129831 
L 410.64803 89.068169 
L 411.638585 89.985309 
L 412.62172 92.832935 
L 413.597545 92.955714 
L 416.48223 98.184677 
L 417.429873 98.753509 
L 418.370722 100.828051 
L 419.304874 100.888089 
L 420.232425 102.544814 
L 421.153467 102.986321 
L 422.06809 102.128488 
L 422.976384 104.235128 
L 424.774328 105.296878 
L 425.664148 104.819384 
L 426.547975 105.880677 
L 427.425891 105.733349 
L 428.297973 104.153112 
L 429.164299 105.304793 
L 430.024944 104.681774 
L 430.879982 104.811514 
L 431.729486 105.194045 
L 432.573527 104.544391 
L 433.412175 105.209857 
L 434.245497 105.079496 
L 435.073563 102.970925 
L 435.896436 105.063708 
L 436.714183 104.051679 
L 437.526866 104.039983 
L 438.334548 105.24149 
L 439.13729 103.04023 
L 439.935152 102.701953 
L 440.728193 104.164823 
L 441.516471 104.211687 
L 442.300042 103.167439 
L 443.078964 103.209885 
L 443.85329 102.732649 
L 445.388371 105.940479 
L 446.14923 105.229626 
L 446.905704 105.988351 
L 447.657843 105.980371 
L 448.405697 107.600033 
L 449.149313 107.709952 
L 449.888739 109.542778 
L 450.624024 109.847329 
L 451.355212 111.331667 
L 452.082349 110.552467 
L 452.805479 113.198931 
L 454.239897 115.788414 
L 454.951269 117.17782 
L 455.658807 116.554929 
L 456.362551 117.920432 
L 457.062541 121.312979 
L 457.758818 121.793937 
L 458.451421 123.780573 
L 459.140388 124.20648 
L 459.825757 127.307023 
L 460.507566 127.684058 
L 461.185851 128.862248 
L 461.860649 131.394168 
L 462.531995 131.372523 
L 463.199925 133.216169 
L 463.864472 135.977458 
L 464.525672 137.745778 
L 465.183558 140.936596 
L 465.838162 140.827436 
L 466.489518 145.047511 
L 467.137657 143.669192 
L 467.782611 146.254731 
L 468.424411 150.330635 
L 469.063088 152.344873 
L 469.698673 155.630439 
L 470.331194 157.54127 
L 470.960681 162.751437 
L 471.587164 161.849752 
L 472.210671 163.798581 
L 473.448868 173.265101 
L 474.063613 174.899667 
L 474.675492 178.72525 
L 475.284532 178.878159 
L 475.890759 185.785507 
L 477.094877 194.936637 
L 477.692818 197.20553 
L 478.288048 202.634031 
L 478.88059 203.6192 
L 479.470469 207.694098 
L 480.057709 210.777777 
L 480.642333 220.117097 
L 481.803827 227.90518 
L 482.380741 228.614307 
L 482.955131 230.58275 
L 483.527019 233.441144 
L 484.096425 238.878423 
L 484.663371 240.364979 
L 485.227879 239.78703 
L 485.789969 244.610974 
L 486.349663 246.720735 
L 486.906979 248.025856 
L 487.46194 251.403765 
L 488.014563 246.268727 
L 488.56487 239.965965 
L 489.112878 239.390766 
L 489.658608 238.525559 
L 490.202079 230.547188 
L 490.743308 228.544858 
L 491.819116 220.16417 
L 492.353732 219.710243 
L 492.886178 211.030596 
L 493.416474 208.796059 
L 493.944635 207.613048 
L 496.036279 181.709276 
L 496.554023 181.719173 
L 497.069732 172.419834 
L 497.583424 172.881445 
L 498.604813 160.965429 
L 499.618315 155.060594 
L 500.122147 149.944378 
L 500.624051 146.358284 
L 501.124044 144.818322 
L 501.622139 142.585188 
L 502.118351 136.93787 
L 502.612694 133.205107 
L 503.595829 127.782471 
L 504.084648 126.28779 
L 504.571654 123.057568 
L 505.056859 119.084248 
L 505.540278 118.567567 
L 506.021922 117.14588 
L 506.501805 114.179295 
L 506.97994 110.173973 
L 507.456339 109.36806 
L 507.931016 107.24278 
L 508.403982 104.450317 
L 508.875249 105.150577 
L 509.344831 103.554109 
L 509.812738 100.835553 
L 510.278983 102.292479 
L 510.743578 99.839912 
L 511.206534 98.592676 
L 511.667863 96.032329 
L 512.127576 95.908474 
L 513.950493 92.116927 
L 514.402293 93.205239 
L 514.852544 91.894219 
L 515.301255 91.826849 
L 515.748437 92.127064 
L 516.194101 91.756169 
L 516.638257 92.4148 
L 517.522084 89.93592 
L 517.961776 92.519986 
L 518.4 92.455501 
L 518.4 92.455501 
" clip-path="url(#p991969562d)" style="fill: none; stroke: #ff7f0e; stroke-width: 1.5; stroke-linecap: square"/>
   </g>
   <g id="line2d_33">
    <path d="M 72 381.620885 
L 84.509261 362.799169 
L 95.929321 352.670936 
L 106.434758 337.971545 
L 116.161273 319.897658 
L 125.216442 311.555798 
L 133.686987 299.628077 
L 141.643841 287.664662 
L 149.145763 282.502351 
L 156.241972 273.582244 
L 162.974109 262.758846 
L 169.377715 255.545813 
L 186.90343 232.235192 
L 192.261231 226.929237 
L 202.362205 213.529354 
L 207.135382 205.572446 
L 211.741044 201.084078 
L 216.190551 197.074543 
L 220.494147 190.477085 
L 224.661096 183.317951 
L 228.699812 179.560098 
L 232.61795 177.502558 
L 236.422504 169.702589 
L 240.119872 167.013016 
L 243.71593 162.601789 
L 247.216081 157.245566 
L 250.625309 155.760824 
L 253.948218 152.386633 
L 257.189071 149.782277 
L 260.351824 144.292303 
L 263.440153 143.399992 
L 266.457479 141.070208 
L 269.406994 138.573389 
L 272.291679 135.163772 
L 275.114323 131.524161 
L 277.877539 131.497062 
L 280.583777 131.958938 
L 283.23534 125.942346 
L 285.834393 127.472089 
L 288.382976 125.009716 
L 290.883011 122.112896 
L 293.336314 122.40878 
L 295.7446 124.919528 
L 298.109491 121.581974 
L 300.432523 122.910783 
L 302.715153 120.473175 
L 304.958761 124.146921 
L 307.16466 122.306799 
L 309.334096 121.880805 
L 311.468256 124.325728 
L 313.568267 126.12505 
L 315.635205 125.658934 
L 317.670097 129.436496 
L 319.673921 128.946294 
L 321.647611 135.090193 
L 323.59206 135.960306 
L 325.508121 135.441694 
L 327.396613 138.331888 
L 329.258316 140.380164 
L 331.093981 141.204034 
L 332.904326 143.612776 
L 334.690039 149.344831 
L 336.451782 149.849781 
L 338.19019 153.064671 
L 339.905873 155.768073 
L 341.599418 155.768073 
L 343.271388 161.701712 
L 344.922327 161.935579 
L 346.552757 165.818588 
L 348.163181 165.851309 
L 349.754084 167.620887 
L 351.325933 166.5002 
L 352.879181 168.503068 
L 354.414262 166.781031 
L 355.931595 169.130451 
L 357.431588 165.22367 
L 358.91463 167.187429 
L 360.381103 164.062435 
L 361.83137 162.499553 
L 363.265788 158.046387 
L 364.684698 155.985854 
L 366.088432 154.881072 
L 367.477312 151.638136 
L 370.211742 144.494713 
L 371.557886 138.243708 
L 372.890363 137.921179 
L 374.209449 135.657865 
L 378.088979 123.509326 
L 379.357085 121.485805 
L 380.613055 118.072519 
L 381.85712 115.564302 
L 383.089504 115.613555 
L 384.310423 110.384035 
L 386.718709 106.754044 
L 387.906481 103.198307 
L 389.0836 102.81712 
L 390.250256 101.271849 
L 391.406632 99.22316 
L 392.55291 98.170142 
L 393.689262 95.763621 
L 394.81586 96.583051 
L 395.93287 95.830717 
L 397.040454 94.106995 
L 398.138769 93.799579 
L 399.22797 92.489434 
L 400.308205 92.279271 
L 401.379623 91.712445 
L 402.442365 91.5512 
L 403.49657 92.611708 
L 404.542376 91.608272 
L 405.579914 90.391407 
L 406.609314 92.120306 
L 407.630704 91.122731 
L 408.644206 93.065003 
L 409.649942 90.593542 
L 410.64803 92.581123 
L 411.638585 93.359429 
L 412.62172 93.551709 
L 413.597545 94.980136 
L 414.566169 95.816587 
L 415.527696 94.732223 
L 416.48223 95.242819 
L 418.370722 98.399356 
L 419.304874 97.948804 
L 420.232425 99.300465 
L 421.153467 99.925212 
L 422.06809 102.037099 
L 422.976384 101.023332 
L 423.878435 102.609933 
L 424.774328 101.70665 
L 425.664148 103.515361 
L 426.547975 103.600631 
L 427.425891 105.705505 
L 428.297973 104.403319 
L 429.164299 107.0526 
L 430.024944 106.284173 
L 430.879982 107.942481 
L 432.573527 109.910046 
L 433.412175 109.197855 
L 434.245497 109.918412 
L 435.073563 111.131939 
L 435.896436 110.136218 
L 436.714183 110.784618 
L 437.526866 110.560898 
L 438.334548 109.36806 
L 439.13729 109.642782 
L 439.935152 111.856636 
L 440.728193 111.021656 
L 441.516471 111.331667 
L 442.300042 110.89882 
L 443.078964 109.185414 
L 443.85329 109.447054 
L 444.623075 107.340061 
L 445.388371 107.742549 
L 446.14923 107.465884 
L 446.905704 106.649399 
L 447.657843 107.084941 
L 448.405697 104.493421 
L 449.149313 104.603242 
L 449.888739 102.81712 
L 452.082349 99.717676 
L 452.805479 98.464962 
L 453.524648 99.028374 
L 454.951269 95.636639 
L 456.362551 94.235132 
L 457.062541 93.972145 
L 458.451421 92.54036 
L 459.140388 92.002124 
L 459.825757 91.934667 
L 460.507566 89.945796 
L 461.185851 89.982016 
L 461.860649 90.822778 
L 462.531995 89.89972 
L 463.199925 89.564793 
L 463.864472 90.949293 
L 464.525672 90.454315 
L 465.183558 91.269769 
L 465.838162 91.682188 
L 466.489518 91.94141 
L 467.137657 91.900959 
L 468.424411 95.996923 
L 469.063088 97.876362 
L 469.698673 98.468608 
L 470.960681 100.315739 
L 471.587164 102.552472 
L 472.210671 102.901678 
L 472.831229 104.658207 
L 473.448868 106.883018 
L 474.063613 107.958823 
L 474.675492 110.346185 
L 475.284532 111.638564 
L 475.890759 113.569588 
L 476.494199 114.935535 
L 477.094877 118.289608 
L 477.692818 117.17782 
L 478.288048 119.02357 
L 478.88059 120.094224 
L 479.470469 122.808187 
L 480.057709 123.086956 
L 480.642333 124.8995 
L 481.224365 125.346276 
L 481.803827 128.281499 
L 482.380741 126.114889 
L 482.955131 125.932208 
L 483.527019 127.116572 
L 484.663371 127.948482 
L 485.227879 126.941946 
L 485.789969 125.547857 
L 486.349663 126.394761 
L 487.46194 122.369915 
L 488.014563 123.410909 
L 488.56487 120.577689 
L 489.112878 120.553924 
L 489.658608 119.646446 
L 490.202079 117.75943 
L 490.743308 117.191512 
L 491.282315 116.954499 
L 491.819116 113.268576 
L 492.353732 112.617927 
L 492.886178 111.225369 
L 493.416474 109.388841 
L 493.944635 110.784618 
L 494.470679 108.970074 
L 494.994624 107.758852 
L 495.516485 104.418982 
L 496.036279 106.915293 
L 496.554023 103.80641 
L 497.069732 103.30257 
L 497.583424 104.976931 
L 498.095112 103.017122 
L 499.112543 101.158795 
L 499.618315 101.385057 
L 500.122147 101.143733 
L 501.124044 99.492197 
L 501.622139 101.358628 
L 502.118351 100.562153 
L 502.612694 100.888089 
L 503.105182 100.966954 
L 503.595829 100.375409 
L 504.084648 100.360488 
L 505.056859 102.34594 
L 505.540278 102.197096 
L 506.021922 102.399437 
L 506.501805 101.782499 
L 507.456339 103.682105 
L 507.931016 104.403319 
L 508.403982 104.736791 
L 508.875249 107.040476 
L 509.344831 106.975842 
L 509.812738 106.076189 
L 510.278983 109.007305 
L 510.743578 108.216636 
L 511.206534 110.92422 
L 511.667863 110.447158 
L 512.127576 110.632592 
L 513.497132 114.549924 
L 513.950493 114.793494 
L 514.402293 116.918095 
L 515.301255 118.183303 
L 515.748437 120.663298 
L 516.194101 122.447662 
L 516.638257 123.425664 
L 517.080915 122.94501 
L 517.522084 126.038724 
L 517.961776 126.2369 
L 518.4 128.547827 
L 518.4 128.547827 
" clip-path="url(#p991969562d)" style="fill: none; stroke-dasharray: 1.5,2.475; stroke-dashoffset: 0; stroke: #2ca02c; stroke-width: 1.5"/>
   </g>
   <g id="line2d_34">
    <path d="M 72 376.964288 
L 84.509261 358.154368 
L 95.929321 348.47137 
L 106.434758 334.498452 
L 116.161273 325.590543 
L 125.216442 311.555798 
L 133.686987 303.11981 
L 141.643841 293.659046 
L 149.145763 280.828585 
L 156.241972 275.32804 
L 162.974109 265.012686 
L 169.377715 259.224663 
L 175.48337 252.368165 
L 181.31757 240.145285 
L 186.90343 234.814346 
L 192.261231 227.664414 
L 197.408867 221.301964 
L 202.362205 215.98581 
L 207.135382 209.318091 
L 216.190551 198.381687 
L 220.494147 196.552639 
L 224.661096 189.103301 
L 228.699812 185.009739 
L 232.61795 180.257385 
L 236.422504 171.995989 
L 240.119872 169.814057 
L 243.71593 169.087912 
L 247.216081 164.504055 
L 250.625309 157.786018 
L 253.948218 156.328192 
L 257.189071 151.149704 
L 260.351824 149.338119 
L 263.440153 147.815116 
L 266.457479 142.097638 
L 269.406994 142.122256 
L 272.291679 139.887325 
L 275.114323 135.62939 
L 280.583777 130.618443 
L 283.23534 130.441684 
L 285.834393 129.552881 
L 288.382976 128.893755 
L 290.883011 125.411736 
L 293.336314 124.013067 
L 295.7446 122.959683 
L 298.109491 124.904507 
L 300.432523 124.759435 
L 302.715153 122.764256 
L 304.958761 122.73986 
L 307.16466 123.405992 
L 309.334096 123.077159 
L 311.468256 123.71638 
L 313.568267 123.593072 
L 315.635205 124.151882 
L 319.673921 128.239799 
L 321.647611 128.255434 
L 323.59206 128.052407 
L 325.508121 130.201252 
L 327.396613 132.560482 
L 329.258316 131.997089 
L 331.093981 132.824341 
L 332.904326 134.352342 
L 334.690039 134.229066 
L 336.451782 135.84034 
L 338.19019 135.322471 
L 339.905873 137.664051 
L 341.599418 138.762365 
L 343.271388 137.605723 
L 344.922327 135.863177 
L 346.552757 136.269586 
L 348.163181 136.955224 
L 349.754084 138.061766 
L 351.325933 132.450787 
L 352.879181 134.430885 
L 355.931595 129.251673 
L 357.431588 127.518573 
L 358.91463 126.003203 
L 360.381103 123.726253 
L 361.83137 119.252509 
L 363.265788 116.79535 
L 364.684698 113.762107 
L 366.088432 111.30189 
L 367.477312 109.767955 
L 368.851648 106.943544 
L 370.211742 102.319205 
L 371.557886 100.018029 
L 372.890363 98.936652 
L 374.209449 95.38677 
L 375.515409 94.079316 
L 376.808502 91.934667 
L 378.088979 88.749539 
L 379.357085 87.117102 
L 380.613055 84.760877 
L 381.85712 83.352902 
L 383.089504 81.714409 
L 384.310423 79.663987 
L 385.52009 78.668882 
L 386.718709 77.944523 
L 387.906481 75.425895 
L 390.250256 74.60298 
L 391.406632 74.575598 
L 392.55291 74.80589 
L 393.689262 74.627632 
L 394.81586 74.291354 
L 395.93287 73.349911 
L 397.040454 74.449755 
L 398.138769 74.032551 
L 399.22797 75.825131 
L 400.308205 75.930805 
L 401.379623 77.271635 
L 402.442365 77.824881 
L 403.49657 78.528099 
L 404.542376 80.957311 
L 405.579914 81.404801 
L 407.630704 84.569298 
L 408.644206 86.284355 
L 409.649942 88.24483 
L 410.64803 88.807972 
L 411.638585 90.255821 
L 412.62172 92.516591 
L 413.597545 93.789236 
L 414.566169 94.669489 
L 415.527696 96.19539 
L 416.48223 98.621895 
L 417.429873 98.96966 
L 418.370722 100.252387 
L 419.304874 101.155029 
L 420.232425 102.495051 
L 421.153467 103.57349 
L 422.06809 104.039983 
L 422.976384 103.635538 
L 423.878435 105.138726 
L 424.774328 106.184116 
L 426.547975 105.804989 
L 427.425891 104.368088 
L 428.297973 104.933576 
L 429.164299 106.120142 
L 430.024944 105.142676 
L 430.879982 106.348273 
L 431.729486 104.564004 
L 432.573527 104.66999 
L 433.412175 103.561861 
L 434.245497 103.80641 
L 435.073563 103.763659 
L 435.896436 102.372684 
L 436.714183 103.561861 
L 437.526866 103.306434 
L 438.334548 104.117986 
L 439.13729 102.552472 
L 439.935152 103.557985 
L 440.728193 103.233046 
L 441.516471 103.329622 
L 442.300042 102.794074 
L 443.078964 103.213745 
L 443.85329 103.032527 
L 444.623075 103.569614 
L 445.388371 103.74035 
L 446.14923 105.578338 
L 446.905704 104.618942 
L 447.657843 107.012192 
L 449.149313 109.106668 
L 449.888739 107.954738 
L 450.624024 109.72621 
L 451.355212 110.11525 
L 452.082349 111.912314 
L 452.805479 114.324703 
L 453.524648 114.205714 
L 454.239897 115.189147 
L 454.951269 115.88272 
L 455.658807 117.975704 
L 457.062541 119.928974 
L 457.758818 121.495417 
L 459.140388 126.12505 
L 459.825757 126.130131 
L 460.507566 127.896568 
L 461.185851 129.204213 
L 461.860649 130.74723 
L 462.531995 130.870838 
L 463.199925 134.335521 
L 463.864472 135.209084 
L 464.525672 137.152161 
L 465.183558 138.5439 
L 465.838162 142.073028 
L 466.489518 144.01479 
L 467.137657 146.799829 
L 467.782611 146.754267 
L 468.424411 147.755825 
L 469.063088 152.240565 
L 469.698673 152.917411 
L 470.331194 156.649958 
L 470.960681 159.262229 
L 471.587164 160.052219 
L 472.210671 165.28866 
L 473.448868 170.884848 
L 474.063613 175.835121 
L 475.284532 180.735284 
L 475.890759 188.007534 
L 476.494199 189.060057 
L 477.692818 198.080067 
L 478.288048 200.486949 
L 478.88059 205.598801 
L 479.470469 211.907329 
L 480.057709 211.836282 
L 481.224365 224.348215 
L 481.803827 223.527116 
L 482.380741 234.720847 
L 482.955131 231.1359 
L 484.096425 240.005781 
L 484.663371 248.179459 
L 485.227879 242.266355 
L 486.349663 243.794297 
L 486.906979 246.097177 
L 487.46194 243.835983 
L 488.56487 237.26362 
L 489.112878 237.727346 
L 489.658608 235.057938 
L 490.202079 235.98254 
L 490.743308 232.325943 
L 491.282315 222.455501 
L 491.819116 220.211269 
L 492.353732 215.926119 
L 492.886178 213.066807 
L 493.416474 205.178119 
L 493.944635 202.825037 
L 494.470679 196.931881 
L 494.994624 192.976699 
L 495.516485 191.728684 
L 496.036279 180.500869 
L 496.554023 178.830345 
L 497.583424 169.087912 
L 498.095112 166.888658 
L 499.112543 157.09074 
L 500.122147 151.900731 
L 500.624051 147.716321 
L 501.124044 142.405882 
L 501.622139 140.103334 
L 502.118351 134.430885 
L 502.612694 135.214749 
L 503.105182 129.325553 
L 503.595829 127.694412 
L 504.084648 122.910783 
L 504.571654 124.29093 
L 505.056859 121.384946 
L 505.540278 116.79535 
L 506.021922 115.959142 
L 506.501805 111.399769 
L 506.97994 110.253734 
L 507.456339 108.024224 
L 507.931016 108.780044 
L 508.403982 105.395875 
L 509.812738 101.634657 
L 510.278983 101.5022 
L 510.743578 101.177627 
L 511.206534 99.101825 
L 511.667863 95.85545 
L 512.127576 95.989844 
L 512.585684 96.44414 
L 513.497132 93.414321 
L 513.950493 93.661782 
L 514.402293 92.452109 
L 514.852544 93.191547 
L 515.301255 92.652506 
L 515.748437 91.59484 
L 516.194101 91.692272 
L 517.080915 93.013756 
L 517.961776 91.092687 
L 518.4 91.682188 
L 518.4 91.682188 
" clip-path="url(#p991969562d)" style="fill: none; stroke-dasharray: 1.5,2.475; stroke-dashoffset: 0; stroke: #d62728; stroke-width: 1.5"/>
   </g>
   <g id="patch_3">
    <path d="M 72 378 
L 72 51.84 
" style="fill: none; stroke: #000000; stroke-width: 0.8; stroke-linejoin: miter; stroke-linecap: square"/>
   </g>
   <g id="patch_4">
    <path d="M 518.4 378 
L 518.4 51.84 
" style="fill: none; stroke: #000000; stroke-width: 0.8; stroke-linejoin: miter; stroke-linecap: square"/>
   </g>
   <g id="patch_5">
    <path d="M 72 378 
L 518.4 378 
" style="fill: none; stroke: #000000; stroke-width: 0.8; stroke-linejoin: miter; stroke-linecap: square"/>
   </g>
   <g id="patch_6">
    <path d="M 72 51.84 
L 518.4 51.84 
" style="fill: none; stroke: #000000; stroke-width: 0.8; stroke-linejoin: miter; stroke-linecap: square"/>
   </g>
   <g id="legend_1">
    <g id="patch_7">
     <path d="M 322.50375 372 
L 510 372 
Q 512.4 372 512.4 369.6 
L 512.4 300.345 
Q 512.4 297.945 510 297.945 
L 322.50375 297.945 
Q 320.10375 297.945 320.10375 300.345 
L 320.10375 369.6 
Q 320.10375 372 322.50375 372 
z
" style="fill: #ffffff; opacity: 0.8; stroke: #cccccc; stroke-linejoin: miter"/>
    </g>
    <g id="line2d_35">
     <path d="M 324.90375 307.663125 
L 336.90375 307.663125 
L 348.90375 307.663125 
" style="fill: none; stroke: #1f77b4; stroke-width: 1.5; stroke-linecap: square"/>
    </g>
    <g id="text_7">
     <!-- Unary Heisenberg model -->
     <g transform="translate(358.50375 311.863125)scale(0.12 -0.12)">
      <defs>
       <path id="DejaVuSans-55" d="M 556 4666 
L 1191 4666 
L 1191 1831 
Q 1191 1081 1462 751 
Q 1734 422 2344 422 
Q 2950 422 3222 751 
Q 3494 1081 3494 1831 
L 3494 4666 
L 4128 4666 
L 4128 1753 
Q 4128 841 3676 375 
Q 3225 -91 2344 -91 
Q 1459 -91 1007 375 
Q 556 841 556 1753 
L 556 4666 
z
" transform="scale(0.015625)"/>
       <path id="DejaVuSans-6e" d="M 3513 2113 
L 3513 0 
L 2938 0 
L 2938 2094 
Q 2938 2591 2744 2837 
Q 2550 3084 2163 3084 
Q 1697 3084 1428 2787 
Q 1159 2491 1159 1978 
L 1159 0 
L 581 0 
L 581 3500 
L 1159 3500 
L 1159 2956 
Q 1366 3272 1645 3428 
Q 1925 3584 2291 3584 
Q 2894 3584 3203 3211 
Q 3513 2838 3513 2113 
z
" transform="scale(0.015625)"/>
       <path id="DejaVuSans-61" d="M 2194 1759 
Q 1497 1759 1228 1600 
Q 959 1441 959 1056 
Q 959 750 1161 570 
Q 1363 391 1709 391 
Q 2188 391 2477 730 
Q 2766 1069 2766 1631 
L 2766 1759 
L 2194 1759 
z
M 3341 1997 
L 3341 0 
L 2766 0 
L 2766 531 
Q 2569 213 2275 61 
Q 1981 -91 1556 -91 
Q 1019 -91 701 211 
Q 384 513 384 1019 
Q 384 1609 779 1909 
Q 1175 2209 1959 2209 
L 2766 2209 
L 2766 2266 
Q 2766 2663 2505 2880 
Q 2244 3097 1772 3097 
Q 1472 3097 1187 3025 
Q 903 2953 641 2809 
L 641 3341 
Q 956 3463 1253 3523 
Q 1550 3584 1831 3584 
Q 2591 3584 2966 3190 
Q 3341 2797 3341 1997 
z
" transform="scale(0.015625)"/>
       <path id="DejaVuSans-72" d="M 2631 2963 
Q 2534 3019 2420 3045 
Q 2306 3072 2169 3072 
Q 1681 3072 1420 2755 
Q 1159 2438 1159 1844 
L 1159 0 
L 581 0 
L 581 3500 
L 1159 3500 
L 1159 2956 
Q 1341 3275 1631 3429 
Q 1922 3584 2338 3584 
Q 2397 3584 2469 3576 
Q 2541 3569 2628 3553 
L 2631 2963 
z
" transform="scale(0.015625)"/>
       <path id="DejaVuSans-79" d="M 2059 -325 
Q 1816 -950 1584 -1140 
Q 1353 -1331 966 -1331 
L 506 -1331 
L 506 -850 
L 844 -850 
Q 1081 -850 1212 -737 
Q 1344 -625 1503 -206 
L 1606 56 
L 191 3500 
L 800 3500 
L 1894 763 
L 2988 3500 
L 3597 3500 
L 2059 -325 
z
" transform="scale(0.015625)"/>
       <path id="DejaVuSans-20" transform="scale(0.015625)"/>
       <path id="DejaVuSans-48" d="M 628 4666 
L 1259 4666 
L 1259 2753 
L 3553 2753 
L 3553 4666 
L 4184 4666 
L 4184 0 
L 3553 0 
L 3553 2222 
L 1259 2222 
L 1259 0 
L 628 0 
L 628 4666 
z
" transform="scale(0.015625)"/>
       <path id="DejaVuSans-65" d="M 3597 1894 
L 3597 1613 
L 953 1613 
Q 991 1019 1311 708 
Q 1631 397 2203 397 
Q 2534 397 2845 478 
Q 3156 559 3463 722 
L 3463 178 
Q 3153 47 2828 -22 
Q 2503 -91 2169 -91 
Q 1331 -91 842 396 
Q 353 884 353 1716 
Q 353 2575 817 3079 
Q 1281 3584 2069 3584 
Q 2775 3584 3186 3129 
Q 3597 2675 3597 1894 
z
M 3022 2063 
Q 3016 2534 2758 2815 
Q 2500 3097 2075 3097 
Q 1594 3097 1305 2825 
Q 1016 2553 972 2059 
L 3022 2063 
z
" transform="scale(0.015625)"/>
       <path id="DejaVuSans-69" d="M 603 3500 
L 1178 3500 
L 1178 0 
L 603 0 
L 603 3500 
z
M 603 4863 
L 1178 4863 
L 1178 4134 
L 603 4134 
L 603 4863 
z
" transform="scale(0.015625)"/>
       <path id="DejaVuSans-73" d="M 2834 3397 
L 2834 2853 
Q 2591 2978 2328 3040 
Q 2066 3103 1784 3103 
Q 1356 3103 1142 2972 
Q 928 2841 928 2578 
Q 928 2378 1081 2264 
Q 1234 2150 1697 2047 
L 1894 2003 
Q 2506 1872 2764 1633 
Q 3022 1394 3022 966 
Q 3022 478 2636 193 
Q 2250 -91 1575 -91 
Q 1294 -91 989 -36 
Q 684 19 347 128 
L 347 722 
Q 666 556 975 473 
Q 1284 391 1588 391 
Q 1994 391 2212 530 
Q 2431 669 2431 922 
Q 2431 1156 2273 1281 
Q 2116 1406 1581 1522 
L 1381 1569 
Q 847 1681 609 1914 
Q 372 2147 372 2553 
Q 372 3047 722 3315 
Q 1072 3584 1716 3584 
Q 2034 3584 2315 3537 
Q 2597 3491 2834 3397 
z
" transform="scale(0.015625)"/>
       <path id="DejaVuSans-62" d="M 3116 1747 
Q 3116 2381 2855 2742 
Q 2594 3103 2138 3103 
Q 1681 3103 1420 2742 
Q 1159 2381 1159 1747 
Q 1159 1113 1420 752 
Q 1681 391 2138 391 
Q 2594 391 2855 752 
Q 3116 1113 3116 1747 
z
M 1159 2969 
Q 1341 3281 1617 3432 
Q 1894 3584 2278 3584 
Q 2916 3584 3314 3078 
Q 3713 2572 3713 1747 
Q 3713 922 3314 415 
Q 2916 -91 2278 -91 
Q 1894 -91 1617 61 
Q 1341 213 1159 525 
L 1159 0 
L 581 0 
L 581 4863 
L 1159 4863 
L 1159 2969 
z
" transform="scale(0.015625)"/>
       <path id="DejaVuSans-67" d="M 2906 1791 
Q 2906 2416 2648 2759 
Q 2391 3103 1925 3103 
Q 1463 3103 1205 2759 
Q 947 2416 947 1791 
Q 947 1169 1205 825 
Q 1463 481 1925 481 
Q 2391 481 2648 825 
Q 2906 1169 2906 1791 
z
M 3481 434 
Q 3481 -459 3084 -895 
Q 2688 -1331 1869 -1331 
Q 1566 -1331 1297 -1286 
Q 1028 -1241 775 -1147 
L 775 -588 
Q 1028 -725 1275 -790 
Q 1522 -856 1778 -856 
Q 2344 -856 2625 -561 
Q 2906 -266 2906 331 
L 2906 616 
Q 2728 306 2450 153 
Q 2172 0 1784 0 
Q 1141 0 747 490 
Q 353 981 353 1791 
Q 353 2603 747 3093 
Q 1141 3584 1784 3584 
Q 2172 3584 2450 3431 
Q 2728 3278 2906 2969 
L 2906 3500 
L 3481 3500 
L 3481 434 
z
" transform="scale(0.015625)"/>
       <path id="DejaVuSans-6d" d="M 3328 2828 
Q 3544 3216 3844 3400 
Q 4144 3584 4550 3584 
Q 5097 3584 5394 3201 
Q 5691 2819 5691 2113 
L 5691 0 
L 5113 0 
L 5113 2094 
Q 5113 2597 4934 2840 
Q 4756 3084 4391 3084 
Q 3944 3084 3684 2787 
Q 3425 2491 3425 1978 
L 3425 0 
L 2847 0 
L 2847 2094 
Q 2847 2600 2669 2842 
Q 2491 3084 2119 3084 
Q 1678 3084 1418 2786 
Q 1159 2488 1159 1978 
L 1159 0 
L 581 0 
L 581 3500 
L 1159 3500 
L 1159 2956 
Q 1356 3278 1631 3431 
Q 1906 3584 2284 3584 
Q 2666 3584 2933 3390 
Q 3200 3197 3328 2828 
z
" transform="scale(0.015625)"/>
       <path id="DejaVuSans-6f" d="M 1959 3097 
Q 1497 3097 1228 2736 
Q 959 2375 959 1747 
Q 959 1119 1226 758 
Q 1494 397 1959 397 
Q 2419 397 2687 759 
Q 2956 1122 2956 1747 
Q 2956 2369 2687 2733 
Q 2419 3097 1959 3097 
z
M 1959 3584 
Q 2709 3584 3137 3096 
Q 3566 2609 3566 1747 
Q 3566 888 3137 398 
Q 2709 -91 1959 -91 
Q 1206 -91 779 398 
Q 353 888 353 1747 
Q 353 2609 779 3096 
Q 1206 3584 1959 3584 
z
" transform="scale(0.015625)"/>
       <path id="DejaVuSans-64" d="M 2906 2969 
L 2906 4863 
L 3481 4863 
L 3481 0 
L 2906 0 
L 2906 525 
Q 2725 213 2448 61 
Q 2172 -91 1784 -91 
Q 1150 -91 751 415 
Q 353 922 353 1747 
Q 353 2572 751 3078 
Q 1150 3584 1784 3584 
Q 2172 3584 2448 3432 
Q 2725 3281 2906 2969 
z
M 947 1747 
Q 947 1113 1208 752 
Q 1469 391 1925 391 
Q 2381 391 2643 752 
Q 2906 1113 2906 1747 
Q 2906 2381 2643 2742 
Q 2381 3103 1925 3103 
Q 1469 3103 1208 2742 
Q 947 2381 947 1747 
z
" transform="scale(0.015625)"/>
       <path id="DejaVuSans-6c" d="M 603 4863 
L 1178 4863 
L 1178 0 
L 603 0 
L 603 4863 
z
" transform="scale(0.015625)"/>
      </defs>
      <use xlink:href="#DejaVuSans-55"/>
      <use xlink:href="#DejaVuSans-6e" x="73.193359"/>
      <use xlink:href="#DejaVuSans-61" x="136.572266"/>
      <use xlink:href="#DejaVuSans-72" x="197.851562"/>
      <use xlink:href="#DejaVuSans-79" x="238.964844"/>
      <use xlink:href="#DejaVuSans-20" x="298.144531"/>
      <use xlink:href="#DejaVuSans-48" x="329.931641"/>
      <use xlink:href="#DejaVuSans-65" x="405.126953"/>
      <use xlink:href="#DejaVuSans-69" x="466.650391"/>
      <use xlink:href="#DejaVuSans-73" x="494.433594"/>
      <use xlink:href="#DejaVuSans-65" x="546.533203"/>
      <use xlink:href="#DejaVuSans-6e" x="608.056641"/>
      <use xlink:href="#DejaVuSans-62" x="671.435547"/>
      <use xlink:href="#DejaVuSans-65" x="734.912109"/>
      <use xlink:href="#DejaVuSans-72" x="796.435547"/>
      <use xlink:href="#DejaVuSans-67" x="835.798828"/>
      <use xlink:href="#DejaVuSans-20" x="899.275391"/>
      <use xlink:href="#DejaVuSans-6d" x="931.0625"/>
      <use xlink:href="#DejaVuSans-6f" x="1028.474609"/>
      <use xlink:href="#DejaVuSans-64" x="1089.65625"/>
      <use xlink:href="#DejaVuSans-65" x="1153.132812"/>
      <use xlink:href="#DejaVuSans-6c" x="1214.65625"/>
     </g>
    </g>
    <g id="line2d_36">
     <path d="M 324.90375 325.276875 
L 336.90375 325.276875 
L 348.90375 325.276875 
" style="fill: none; stroke: #ff7f0e; stroke-width: 1.5; stroke-linecap: square"/>
    </g>
    <g id="text_8">
     <!-- Unary XY model -->
     <g transform="translate(358.50375 329.476875)scale(0.12 -0.12)">
      <defs>
       <path id="DejaVuSans-58" d="M 403 4666 
L 1081 4666 
L 2241 2931 
L 3406 4666 
L 4084 4666 
L 2584 2425 
L 4184 0 
L 3506 0 
L 2194 1984 
L 872 0 
L 191 0 
L 1856 2491 
L 403 4666 
z
" transform="scale(0.015625)"/>
       <path id="DejaVuSans-59" d="M -13 4666 
L 666 4666 
L 1959 2747 
L 3244 4666 
L 3922 4666 
L 2272 2222 
L 2272 0 
L 1638 0 
L 1638 2222 
L -13 4666 
z
" transform="scale(0.015625)"/>
      </defs>
      <use xlink:href="#DejaVuSans-55"/>
      <use xlink:href="#DejaVuSans-6e" x="73.193359"/>
      <use xlink:href="#DejaVuSans-61" x="136.572266"/>
      <use xlink:href="#DejaVuSans-72" x="197.851562"/>
      <use xlink:href="#DejaVuSans-79" x="238.964844"/>
      <use xlink:href="#DejaVuSans-20" x="298.144531"/>
      <use xlink:href="#DejaVuSans-58" x="329.931641"/>
      <use xlink:href="#DejaVuSans-59" x="398.4375"/>
      <use xlink:href="#DejaVuSans-20" x="459.521484"/>
      <use xlink:href="#DejaVuSans-6d" x="491.308594"/>
      <use xlink:href="#DejaVuSans-6f" x="588.720703"/>
      <use xlink:href="#DejaVuSans-64" x="649.902344"/>
      <use xlink:href="#DejaVuSans-65" x="713.378906"/>
      <use xlink:href="#DejaVuSans-6c" x="774.902344"/>
     </g>
    </g>
    <g id="line2d_37">
     <path d="M 324.90375 342.890625 
L 336.90375 342.890625 
L 348.90375 342.890625 
" style="fill: none; stroke-dasharray: 1.5,2.475; stroke-dashoffset: 0; stroke: #2ca02c; stroke-width: 1.5"/>
    </g>
    <g id="text_9">
     <!-- Binary quantum walk -->
     <g transform="translate(358.50375 347.090625)scale(0.12 -0.12)">
      <defs>
       <path id="DejaVuSans-42" d="M 1259 2228 
L 1259 519 
L 2272 519 
Q 2781 519 3026 730 
Q 3272 941 3272 1375 
Q 3272 1813 3026 2020 
Q 2781 2228 2272 2228 
L 1259 2228 
z
M 1259 4147 
L 1259 2741 
L 2194 2741 
Q 2656 2741 2882 2914 
Q 3109 3088 3109 3444 
Q 3109 3797 2882 3972 
Q 2656 4147 2194 4147 
L 1259 4147 
z
M 628 4666 
L 2241 4666 
Q 2963 4666 3353 4366 
Q 3744 4066 3744 3513 
Q 3744 3084 3544 2831 
Q 3344 2578 2956 2516 
Q 3422 2416 3680 2098 
Q 3938 1781 3938 1306 
Q 3938 681 3513 340 
Q 3088 0 2303 0 
L 628 0 
L 628 4666 
z
" transform="scale(0.015625)"/>
       <path id="DejaVuSans-71" d="M 947 1747 
Q 947 1113 1208 752 
Q 1469 391 1925 391 
Q 2381 391 2643 752 
Q 2906 1113 2906 1747 
Q 2906 2381 2643 2742 
Q 2381 3103 1925 3103 
Q 1469 3103 1208 2742 
Q 947 2381 947 1747 
z
M 2906 525 
Q 2725 213 2448 61 
Q 2172 -91 1784 -91 
Q 1150 -91 751 415 
Q 353 922 353 1747 
Q 353 2572 751 3078 
Q 1150 3584 1784 3584 
Q 2172 3584 2448 3432 
Q 2725 3281 2906 2969 
L 2906 3500 
L 3481 3500 
L 3481 -1331 
L 2906 -1331 
L 2906 525 
z
" transform="scale(0.015625)"/>
       <path id="DejaVuSans-75" d="M 544 1381 
L 544 3500 
L 1119 3500 
L 1119 1403 
Q 1119 906 1312 657 
Q 1506 409 1894 409 
Q 2359 409 2629 706 
Q 2900 1003 2900 1516 
L 2900 3500 
L 3475 3500 
L 3475 0 
L 2900 0 
L 2900 538 
Q 2691 219 2414 64 
Q 2138 -91 1772 -91 
Q 1169 -91 856 284 
Q 544 659 544 1381 
z
M 1991 3584 
L 1991 3584 
z
" transform="scale(0.015625)"/>
       <path id="DejaVuSans-77" d="M 269 3500 
L 844 3500 
L 1563 769 
L 2278 3500 
L 2956 3500 
L 3675 769 
L 4391 3500 
L 4966 3500 
L 4050 0 
L 3372 0 
L 2619 2869 
L 1863 0 
L 1184 0 
L 269 3500 
z
" transform="scale(0.015625)"/>
       <path id="DejaVuSans-6b" d="M 581 4863 
L 1159 4863 
L 1159 1991 
L 2875 3500 
L 3609 3500 
L 1753 1863 
L 3688 0 
L 2938 0 
L 1159 1709 
L 1159 0 
L 581 0 
L 581 4863 
z
" transform="scale(0.015625)"/>
      </defs>
      <use xlink:href="#DejaVuSans-42"/>
      <use xlink:href="#DejaVuSans-69" x="68.603516"/>
      <use xlink:href="#DejaVuSans-6e" x="96.386719"/>
      <use xlink:href="#DejaVuSans-61" x="159.765625"/>
      <use xlink:href="#DejaVuSans-72" x="221.044922"/>
      <use xlink:href="#DejaVuSans-79" x="262.158203"/>
      <use xlink:href="#DejaVuSans-20" x="321.337891"/>
      <use xlink:href="#DejaVuSans-71" x="353.125"/>
      <use xlink:href="#DejaVuSans-75" x="416.601562"/>
      <use xlink:href="#DejaVuSans-61" x="479.980469"/>
      <use xlink:href="#DejaVuSans-6e" x="541.259766"/>
      <use xlink:href="#DejaVuSans-74" x="604.638672"/>
      <use xlink:href="#DejaVuSans-75" x="643.847656"/>
      <use xlink:href="#DejaVuSans-6d" x="707.226562"/>
      <use xlink:href="#DejaVuSans-20" x="804.638672"/>
      <use xlink:href="#DejaVuSans-77" x="836.425781"/>
      <use xlink:href="#DejaVuSans-61" x="918.212891"/>
      <use xlink:href="#DejaVuSans-6c" x="979.492188"/>
      <use xlink:href="#DejaVuSans-6b" x="1007.275391"/>
     </g>
    </g>
    <g id="line2d_38">
     <path d="M 324.90375 360.504375 
L 336.90375 360.504375 
L 348.90375 360.504375 
" style="fill: none; stroke-dasharray: 1.5,2.475; stroke-dashoffset: 0; stroke: #d62728; stroke-width: 1.5"/>
    </g>
    <g id="text_10">
     <!-- Binary RX operation -->
     <g transform="translate(358.50375 364.704375)scale(0.12 -0.12)">
      <defs>
       <path id="DejaVuSans-52" d="M 2841 2188 
Q 3044 2119 3236 1894 
Q 3428 1669 3622 1275 
L 4263 0 
L 3584 0 
L 2988 1197 
Q 2756 1666 2539 1819 
Q 2322 1972 1947 1972 
L 1259 1972 
L 1259 0 
L 628 0 
L 628 4666 
L 2053 4666 
Q 2853 4666 3247 4331 
Q 3641 3997 3641 3322 
Q 3641 2881 3436 2590 
Q 3231 2300 2841 2188 
z
M 1259 4147 
L 1259 2491 
L 2053 2491 
Q 2509 2491 2742 2702 
Q 2975 2913 2975 3322 
Q 2975 3731 2742 3939 
Q 2509 4147 2053 4147 
L 1259 4147 
z
" transform="scale(0.015625)"/>
       <path id="DejaVuSans-70" d="M 1159 525 
L 1159 -1331 
L 581 -1331 
L 581 3500 
L 1159 3500 
L 1159 2969 
Q 1341 3281 1617 3432 
Q 1894 3584 2278 3584 
Q 2916 3584 3314 3078 
Q 3713 2572 3713 1747 
Q 3713 922 3314 415 
Q 2916 -91 2278 -91 
Q 1894 -91 1617 61 
Q 1341 213 1159 525 
z
M 3116 1747 
Q 3116 2381 2855 2742 
Q 2594 3103 2138 3103 
Q 1681 3103 1420 2742 
Q 1159 2381 1159 1747 
Q 1159 1113 1420 752 
Q 1681 391 2138 391 
Q 2594 391 2855 752 
Q 3116 1113 3116 1747 
z
" transform="scale(0.015625)"/>
      </defs>
      <use xlink:href="#DejaVuSans-42"/>
      <use xlink:href="#DejaVuSans-69" x="68.603516"/>
      <use xlink:href="#DejaVuSans-6e" x="96.386719"/>
      <use xlink:href="#DejaVuSans-61" x="159.765625"/>
      <use xlink:href="#DejaVuSans-72" x="221.044922"/>
      <use xlink:href="#DejaVuSans-79" x="262.158203"/>
      <use xlink:href="#DejaVuSans-20" x="321.337891"/>
      <use xlink:href="#DejaVuSans-52" x="353.125"/>
      <use xlink:href="#DejaVuSans-58" x="422.607422"/>
      <use xlink:href="#DejaVuSans-20" x="491.113281"/>
      <use xlink:href="#DejaVuSans-6f" x="522.900391"/>
      <use xlink:href="#DejaVuSans-70" x="584.082031"/>
      <use xlink:href="#DejaVuSans-65" x="647.558594"/>
      <use xlink:href="#DejaVuSans-72" x="709.082031"/>
      <use xlink:href="#DejaVuSans-61" x="750.195312"/>
      <use xlink:href="#DejaVuSans-74" x="811.474609"/>
      <use xlink:href="#DejaVuSans-69" x="850.683594"/>
      <use xlink:href="#DejaVuSans-6f" x="878.466797"/>
      <use xlink:href="#DejaVuSans-6e" x="939.648438"/>
     </g>
    </g>
   </g>
  </g>
 </g>
 <defs>
  <clipPath id="p991969562d">
   <rect x="72" y="51.84" width="446.4" height="326.16"/>
  </clipPath>
 </defs>
</svg>
