<?xml version="1.0" encoding="utf-8" standalone="no"?>
<!DOCTYPE svg PUBLIC "-//W3C//DTD SVG 1.1//EN"
  "http://www.w3.org/Graphics/SVG/1.1/DTD/svg11.dtd">
<svg xmlns:xlink="http://www.w3.org/1999/xlink" width="576pt" height="432pt" viewBox="0 0 576 432" xmlns="http://www.w3.org/2000/svg" version="1.1">
 <metadata>
  <rdf:RDF xmlns:dc="http://purl.org/dc/elements/1.1/" xmlns:cc="http://creativecommons.org/ns#" xmlns:rdf="http://www.w3.org/1999/02/22-rdf-syntax-ns#">
   <cc:Work>
    <dc:type rdf:resource="http://purl.org/dc/dcmitype/StillImage"/>
    <dc:date>2022-06-14T15:45:05.536965</dc:date>
    <dc:format>image/svg+xml</dc:format>
    <dc:creator>
     <cc:Agent>
      <dc:title>Matplotlib v3.5.1, https://matplotlib.org/</dc:title>
     </cc:Agent>
    </dc:creator>
   </cc:Work>
  </rdf:RDF>
 </metadata>
 <defs>
  <style type="text/css">*{stroke-linejoin: round; stroke-linecap: butt}</style>
 </defs>
 <g id="figure_1">
  <g id="patch_1">
   <path d="M 0 432 
L 576 432 
L 576 0 
L 0 0 
L 0 432 
z
" style="fill: none"/>
  </g>
  <g id="axes_1">
   <g id="patch_2">
    <path d="M 72 378 
L 518.4 378 
L 518.4 51.84 
L 72 51.84 
z
" style="fill: #ffffff"/>
   </g>
   <g id="matplotlib.axis_1">
    <g id="xtick_1">
     <g id="line2d_1">
      <defs>
       <path id="me6aef9733e" d="M 0 0 
L 0 3.5 
" style="stroke: #000000; stroke-width: 0.8"/>
      </defs>
      <g>
       <use xlink:href="#me6aef9733e" x="72" y="378" style="stroke: #000000; stroke-width: 0.8"/>
      </g>
     </g>
     <g id="text_1">
      <!-- $\mathdefault{10^{-1}}$ -->
      <g transform="translate(57.9 394.118125)scale(0.12 -0.12)">
       <defs>
        <path id="DejaVuSans-31" d="M 794 531 
L 1825 531 
L 1825 4091 
L 703 3866 
L 703 4441 
L 1819 4666 
L 2450 4666 
L 2450 531 
L 3481 531 
L 3481 0 
L 794 0 
L 794 531 
z
" transform="scale(0.015625)"/>
        <path id="DejaVuSans-30" d="M 2034 4250 
Q 1547 4250 1301 3770 
Q 1056 3291 1056 2328 
Q 1056 1369 1301 889 
Q 1547 409 2034 409 
Q 2525 409 2770 889 
Q 3016 1369 3016 2328 
Q 3016 3291 2770 3770 
Q 2525 4250 2034 4250 
z
M 2034 4750 
Q 2819 4750 3233 4129 
Q 3647 3509 3647 2328 
Q 3647 1150 3233 529 
Q 2819 -91 2034 -91 
Q 1250 -91 836 529 
Q 422 1150 422 2328 
Q 422 3509 836 4129 
Q 1250 4750 2034 4750 
z
" transform="scale(0.015625)"/>
        <path id="DejaVuSans-2212" d="M 678 2272 
L 4684 2272 
L 4684 1741 
L 678 1741 
L 678 2272 
z
" transform="scale(0.015625)"/>
       </defs>
       <use xlink:href="#DejaVuSans-31" transform="translate(0 0.684375)"/>
       <use xlink:href="#DejaVuSans-30" transform="translate(63.623047 0.684375)"/>
       <use xlink:href="#DejaVuSans-2212" transform="translate(128.203125 38.965625)scale(0.7)"/>
       <use xlink:href="#DejaVuSans-31" transform="translate(186.855469 38.965625)scale(0.7)"/>
      </g>
     </g>
    </g>
    <g id="xtick_2">
     <g id="line2d_2">
      <g>
       <use xlink:href="#me6aef9733e" x="277.138456" y="378" style="stroke: #000000; stroke-width: 0.8"/>
      </g>
     </g>
     <g id="text_2">
      <!-- $\mathdefault{10^{0}}$ -->
      <g transform="translate(266.578456 394.118125)scale(0.12 -0.12)">
       <use xlink:href="#DejaVuSans-31" transform="translate(0 0.765625)"/>
       <use xlink:href="#DejaVuSans-30" transform="translate(63.623047 0.765625)"/>
       <use xlink:href="#DejaVuSans-30" transform="translate(128.203125 39.046875)scale(0.7)"/>
      </g>
     </g>
    </g>
    <g id="xtick_3">
     <g id="line2d_3">
      <g>
       <use xlink:href="#me6aef9733e" x="482.276911" y="378" style="stroke: #000000; stroke-width: 0.8"/>
      </g>
     </g>
     <g id="text_3">
      <!-- $\mathdefault{10^{1}}$ -->
      <g transform="translate(471.716911 394.118125)scale(0.12 -0.12)">
       <use xlink:href="#DejaVuSans-31" transform="translate(0 0.684375)"/>
       <use xlink:href="#DejaVuSans-30" transform="translate(63.623047 0.684375)"/>
       <use xlink:href="#DejaVuSans-31" transform="translate(128.203125 38.965625)scale(0.7)"/>
      </g>
     </g>
    </g>
    <g id="xtick_4">
     <g id="line2d_4">
      <defs>
       <path id="m3bde9e5209" d="M 0 0 
L 0 2 
" style="stroke: #000000; stroke-width: 0.6"/>
      </defs>
      <g>
       <use xlink:href="#m3bde9e5209" x="133.752828" y="378" style="stroke: #000000; stroke-width: 0.6"/>
      </g>
     </g>
    </g>
    <g id="xtick_5">
     <g id="line2d_5">
      <g>
       <use xlink:href="#m3bde9e5209" x="169.875917" y="378" style="stroke: #000000; stroke-width: 0.6"/>
      </g>
     </g>
    </g>
    <g id="xtick_6">
     <g id="line2d_6">
      <g>
       <use xlink:href="#m3bde9e5209" x="195.505657" y="378" style="stroke: #000000; stroke-width: 0.6"/>
      </g>
     </g>
    </g>
    <g id="xtick_7">
     <g id="line2d_7">
      <g>
       <use xlink:href="#m3bde9e5209" x="215.385627" y="378" style="stroke: #000000; stroke-width: 0.6"/>
      </g>
     </g>
    </g>
    <g id="xtick_8">
     <g id="line2d_8">
      <g>
       <use xlink:href="#m3bde9e5209" x="231.628746" y="378" style="stroke: #000000; stroke-width: 0.6"/>
      </g>
     </g>
    </g>
    <g id="xtick_9">
     <g id="line2d_9">
      <g>
       <use xlink:href="#m3bde9e5209" x="245.362107" y="378" style="stroke: #000000; stroke-width: 0.6"/>
      </g>
     </g>
    </g>
    <g id="xtick_10">
     <g id="line2d_10">
      <g>
       <use xlink:href="#m3bde9e5209" x="257.258485" y="378" style="stroke: #000000; stroke-width: 0.6"/>
      </g>
     </g>
    </g>
    <g id="xtick_11">
     <g id="line2d_11">
      <g>
       <use xlink:href="#m3bde9e5209" x="267.751835" y="378" style="stroke: #000000; stroke-width: 0.6"/>
      </g>
     </g>
    </g>
    <g id="xtick_12">
     <g id="line2d_12">
      <g>
       <use xlink:href="#m3bde9e5209" x="338.891284" y="378" style="stroke: #000000; stroke-width: 0.6"/>
      </g>
     </g>
    </g>
    <g id="xtick_13">
     <g id="line2d_13">
      <g>
       <use xlink:href="#m3bde9e5209" x="375.014373" y="378" style="stroke: #000000; stroke-width: 0.6"/>
      </g>
     </g>
    </g>
    <g id="xtick_14">
     <g id="line2d_14">
      <g>
       <use xlink:href="#m3bde9e5209" x="400.644112" y="378" style="stroke: #000000; stroke-width: 0.6"/>
      </g>
     </g>
    </g>
    <g id="xtick_15">
     <g id="line2d_15">
      <g>
       <use xlink:href="#m3bde9e5209" x="420.524083" y="378" style="stroke: #000000; stroke-width: 0.6"/>
      </g>
     </g>
    </g>
    <g id="xtick_16">
     <g id="line2d_16">
      <g>
       <use xlink:href="#m3bde9e5209" x="436.767201" y="378" style="stroke: #000000; stroke-width: 0.6"/>
      </g>
     </g>
    </g>
    <g id="xtick_17">
     <g id="line2d_17">
      <g>
       <use xlink:href="#m3bde9e5209" x="450.500562" y="378" style="stroke: #000000; stroke-width: 0.6"/>
      </g>
     </g>
    </g>
    <g id="xtick_18">
     <g id="line2d_18">
      <g>
       <use xlink:href="#m3bde9e5209" x="462.396941" y="378" style="stroke: #000000; stroke-width: 0.6"/>
      </g>
     </g>
    </g>
    <g id="xtick_19">
     <g id="line2d_19">
      <g>
       <use xlink:href="#m3bde9e5209" x="472.89029" y="378" style="stroke: #000000; stroke-width: 0.6"/>
      </g>
     </g>
    </g>
    <g id="text_4">
     <!-- t -->
     <g transform="translate(292.847812 409.731875)scale(0.12 -0.12)">
      <defs>
       <path id="DejaVuSans-74" d="M 1172 4494 
L 1172 3500 
L 2356 3500 
L 2356 3053 
L 1172 3053 
L 1172 1153 
Q 1172 725 1289 603 
Q 1406 481 1766 481 
L 2356 481 
L 2356 0 
L 1766 0 
Q 1100 0 847 248 
Q 594 497 594 1153 
L 594 3053 
L 172 3053 
L 172 3500 
L 594 3500 
L 594 4494 
L 1172 4494 
z
" transform="scale(0.015625)"/>
      </defs>
      <use xlink:href="#DejaVuSans-74"/>
     </g>
    </g>
   </g>
   <g id="matplotlib.axis_2">
    <g id="ytick_1">
     <g id="line2d_20">
      <defs>
       <path id="m8361795779" d="M 0 0 
L -3.5 0 
" style="stroke: #000000; stroke-width: 0.8"/>
      </defs>
      <g>
       <use xlink:href="#m8361795779" x="72" y="302.007981" style="stroke: #000000; stroke-width: 0.8"/>
      </g>
     </g>
     <g id="text_5">
      <!-- $\mathdefault{10^{0}}$ -->
      <g transform="translate(43.88 306.567044)scale(0.12 -0.12)">
       <use xlink:href="#DejaVuSans-31" transform="translate(0 0.765625)"/>
       <use xlink:href="#DejaVuSans-30" transform="translate(63.623047 0.765625)"/>
       <use xlink:href="#DejaVuSans-30" transform="translate(128.203125 39.046875)scale(0.7)"/>
      </g>
     </g>
    </g>
    <g id="ytick_2">
     <g id="line2d_21">
      <g>
       <use xlink:href="#m8361795779" x="72" y="193.287981" style="stroke: #000000; stroke-width: 0.8"/>
      </g>
     </g>
     <g id="text_6">
      <!-- $\mathdefault{10^{1}}$ -->
      <g transform="translate(43.88 197.847044)scale(0.12 -0.12)">
       <use xlink:href="#DejaVuSans-31" transform="translate(0 0.684375)"/>
       <use xlink:href="#DejaVuSans-30" transform="translate(63.623047 0.684375)"/>
       <use xlink:href="#DejaVuSans-31" transform="translate(128.203125 38.965625)scale(0.7)"/>
      </g>
     </g>
    </g>
    <g id="ytick_3">
     <g id="line2d_22">
      <g>
       <use xlink:href="#m8361795779" x="72" y="84.567981" style="stroke: #000000; stroke-width: 0.8"/>
      </g>
     </g>
     <g id="text_7">
      <!-- $\mathdefault{10^{2}}$ -->
      <g transform="translate(43.88 89.127044)scale(0.12 -0.12)">
       <defs>
        <path id="DejaVuSans-32" d="M 1228 531 
L 3431 531 
L 3431 0 
L 469 0 
L 469 531 
Q 828 903 1448 1529 
Q 2069 2156 2228 2338 
Q 2531 2678 2651 2914 
Q 2772 3150 2772 3378 
Q 2772 3750 2511 3984 
Q 2250 4219 1831 4219 
Q 1534 4219 1204 4116 
Q 875 4013 500 3803 
L 500 4441 
Q 881 4594 1212 4672 
Q 1544 4750 1819 4750 
Q 2544 4750 2975 4387 
Q 3406 4025 3406 3419 
Q 3406 3131 3298 2873 
Q 3191 2616 2906 2266 
Q 2828 2175 2409 1742 
Q 1991 1309 1228 531 
z
" transform="scale(0.015625)"/>
       </defs>
       <use xlink:href="#DejaVuSans-31" transform="translate(0 0.765625)"/>
       <use xlink:href="#DejaVuSans-30" transform="translate(63.623047 0.765625)"/>
       <use xlink:href="#DejaVuSans-32" transform="translate(128.203125 39.046875)scale(0.7)"/>
      </g>
     </g>
    </g>
    <g id="ytick_4">
     <g id="line2d_23">
      <defs>
       <path id="me39dc9de86" d="M 0 0 
L -2 0 
" style="stroke: #000000; stroke-width: 0.6"/>
      </defs>
      <g>
       <use xlink:href="#me39dc9de86" x="72" y="378" style="stroke: #000000; stroke-width: 0.6"/>
      </g>
     </g>
    </g>
    <g id="ytick_5">
     <g id="line2d_24">
      <g>
       <use xlink:href="#me39dc9de86" x="72" y="358.855358" style="stroke: #000000; stroke-width: 0.6"/>
      </g>
     </g>
    </g>
    <g id="ytick_6">
     <g id="line2d_25">
      <g>
       <use xlink:href="#me39dc9de86" x="72" y="345.272019" style="stroke: #000000; stroke-width: 0.6"/>
      </g>
     </g>
    </g>
    <g id="ytick_7">
     <g id="line2d_26">
      <g>
       <use xlink:href="#me39dc9de86" x="72" y="334.735962" style="stroke: #000000; stroke-width: 0.6"/>
      </g>
     </g>
    </g>
    <g id="ytick_8">
     <g id="line2d_27">
      <g>
       <use xlink:href="#me39dc9de86" x="72" y="326.127377" style="stroke: #000000; stroke-width: 0.6"/>
      </g>
     </g>
    </g>
    <g id="ytick_9">
     <g id="line2d_28">
      <g>
       <use xlink:href="#me39dc9de86" x="72" y="318.848922" style="stroke: #000000; stroke-width: 0.6"/>
      </g>
     </g>
    </g>
    <g id="ytick_10">
     <g id="line2d_29">
      <g>
       <use xlink:href="#me39dc9de86" x="72" y="312.544038" style="stroke: #000000; stroke-width: 0.6"/>
      </g>
     </g>
    </g>
    <g id="ytick_11">
     <g id="line2d_30">
      <g>
       <use xlink:href="#me39dc9de86" x="72" y="306.982736" style="stroke: #000000; stroke-width: 0.6"/>
      </g>
     </g>
    </g>
    <g id="ytick_12">
     <g id="line2d_31">
      <g>
       <use xlink:href="#me39dc9de86" x="72" y="269.28" style="stroke: #000000; stroke-width: 0.6"/>
      </g>
     </g>
    </g>
    <g id="ytick_13">
     <g id="line2d_32">
      <g>
       <use xlink:href="#me39dc9de86" x="72" y="250.135358" style="stroke: #000000; stroke-width: 0.6"/>
      </g>
     </g>
    </g>
    <g id="ytick_14">
     <g id="line2d_33">
      <g>
       <use xlink:href="#me39dc9de86" x="72" y="236.552019" style="stroke: #000000; stroke-width: 0.6"/>
      </g>
     </g>
    </g>
    <g id="ytick_15">
     <g id="line2d_34">
      <g>
       <use xlink:href="#me39dc9de86" x="72" y="226.015962" style="stroke: #000000; stroke-width: 0.6"/>
      </g>
     </g>
    </g>
    <g id="ytick_16">
     <g id="line2d_35">
      <g>
       <use xlink:href="#me39dc9de86" x="72" y="217.407377" style="stroke: #000000; stroke-width: 0.6"/>
      </g>
     </g>
    </g>
    <g id="ytick_17">
     <g id="line2d_36">
      <g>
       <use xlink:href="#me39dc9de86" x="72" y="210.128922" style="stroke: #000000; stroke-width: 0.6"/>
      </g>
     </g>
    </g>
    <g id="ytick_18">
     <g id="line2d_37">
      <g>
       <use xlink:href="#me39dc9de86" x="72" y="203.824038" style="stroke: #000000; stroke-width: 0.6"/>
      </g>
     </g>
    </g>
    <g id="ytick_19">
     <g id="line2d_38">
      <g>
       <use xlink:href="#me39dc9de86" x="72" y="198.262736" style="stroke: #000000; stroke-width: 0.6"/>
      </g>
     </g>
    </g>
    <g id="ytick_20">
     <g id="line2d_39">
      <g>
       <use xlink:href="#me39dc9de86" x="72" y="160.56" style="stroke: #000000; stroke-width: 0.6"/>
      </g>
     </g>
    </g>
    <g id="ytick_21">
     <g id="line2d_40">
      <g>
       <use xlink:href="#me39dc9de86" x="72" y="141.415358" style="stroke: #000000; stroke-width: 0.6"/>
      </g>
     </g>
    </g>
    <g id="ytick_22">
     <g id="line2d_41">
      <g>
       <use xlink:href="#me39dc9de86" x="72" y="127.832019" style="stroke: #000000; stroke-width: 0.6"/>
      </g>
     </g>
    </g>
    <g id="ytick_23">
     <g id="line2d_42">
      <g>
       <use xlink:href="#me39dc9de86" x="72" y="117.295962" style="stroke: #000000; stroke-width: 0.6"/>
      </g>
     </g>
    </g>
    <g id="ytick_24">
     <g id="line2d_43">
      <g>
       <use xlink:href="#me39dc9de86" x="72" y="108.687377" style="stroke: #000000; stroke-width: 0.6"/>
      </g>
     </g>
    </g>
    <g id="ytick_25">
     <g id="line2d_44">
      <g>
       <use xlink:href="#me39dc9de86" x="72" y="101.408922" style="stroke: #000000; stroke-width: 0.6"/>
      </g>
     </g>
    </g>
    <g id="ytick_26">
     <g id="line2d_45">
      <g>
       <use xlink:href="#me39dc9de86" x="72" y="95.104038" style="stroke: #000000; stroke-width: 0.6"/>
      </g>
     </g>
    </g>
    <g id="ytick_27">
     <g id="line2d_46">
      <g>
       <use xlink:href="#me39dc9de86" x="72" y="89.542736" style="stroke: #000000; stroke-width: 0.6"/>
      </g>
     </g>
    </g>
    <g id="ytick_28">
     <g id="line2d_47">
      <g>
       <use xlink:href="#me39dc9de86" x="72" y="51.84" style="stroke: #000000; stroke-width: 0.6"/>
      </g>
     </g>
    </g>
    <g id="text_8">
     <!-- MSD -->
     <g transform="translate(37.384375 228.525937)rotate(-90)scale(0.12 -0.12)">
      <defs>
       <path id="DejaVuSans-4d" d="M 628 4666 
L 1569 4666 
L 2759 1491 
L 3956 4666 
L 4897 4666 
L 4897 0 
L 4281 0 
L 4281 4097 
L 3078 897 
L 2444 897 
L 1241 4097 
L 1241 0 
L 628 0 
L 628 4666 
z
" transform="scale(0.015625)"/>
       <path id="DejaVuSans-53" d="M 3425 4513 
L 3425 3897 
Q 3066 4069 2747 4153 
Q 2428 4238 2131 4238 
Q 1616 4238 1336 4038 
Q 1056 3838 1056 3469 
Q 1056 3159 1242 3001 
Q 1428 2844 1947 2747 
L 2328 2669 
Q 3034 2534 3370 2195 
Q 3706 1856 3706 1288 
Q 3706 609 3251 259 
Q 2797 -91 1919 -91 
Q 1588 -91 1214 -16 
Q 841 59 441 206 
L 441 856 
Q 825 641 1194 531 
Q 1563 422 1919 422 
Q 2459 422 2753 634 
Q 3047 847 3047 1241 
Q 3047 1584 2836 1778 
Q 2625 1972 2144 2069 
L 1759 2144 
Q 1053 2284 737 2584 
Q 422 2884 422 3419 
Q 422 4038 858 4394 
Q 1294 4750 2059 4750 
Q 2388 4750 2728 4690 
Q 3069 4631 3425 4513 
z
" transform="scale(0.015625)"/>
       <path id="DejaVuSans-44" d="M 1259 4147 
L 1259 519 
L 2022 519 
Q 2988 519 3436 956 
Q 3884 1394 3884 2338 
Q 3884 3275 3436 3711 
Q 2988 4147 2022 4147 
L 1259 4147 
z
M 628 4666 
L 1925 4666 
Q 3281 4666 3915 4102 
Q 4550 3538 4550 2338 
Q 4550 1131 3912 565 
Q 3275 0 1925 0 
L 628 0 
L 628 4666 
z
" transform="scale(0.015625)"/>
      </defs>
      <use xlink:href="#DejaVuSans-4d"/>
      <use xlink:href="#DejaVuSans-53" x="86.279297"/>
      <use xlink:href="#DejaVuSans-44" x="149.755859"/>
     </g>
    </g>
   </g>
   <g id="line2d_48">
    <path d="M 72 375.353258 
L 88.243119 356.831577 
L 101.97648 340.826011 
L 113.872858 326.659295 
L 129.183083 307.968468 
L 142.24406 291.60396 
L 157.126992 272.529825 
L 175.625686 248.388217 
L 205.999006 208.696812 
L 223.876859 185.72769 
L 241.459709 163.495189 
L 257.258485 143.878006 
L 274.42483 122.93597 
L 288.811829 105.715165 
L 297.728314 95.334128 
L 303.874924 88.49715 
L 308.378651 83.781751 
L 312.665619 79.621936 
L 316.182806 76.512156 
L 319.566396 73.83614 
L 322.291089 71.952227 
L 324.934918 70.399833 
L 327.502545 69.192771 
L 329.504663 68.478685 
L 331.462775 67.982473 
L 333.378773 67.690839 
L 335.717241 67.583673 
L 337.995894 67.719145 
L 340.65551 68.13466 
L 343.661258 68.866685 
L 348.589177 70.374598 
L 354.762417 72.181567 
L 365.957107 75.282482 
L 369.185377 75.750266 
L 372.300747 75.979085 
L 375.014373 75.947872 
L 377.358995 75.693318 
L 379.643492 75.212044 
L 382.964019 74.229097 
L 390.01145 72.145061 
L 393.215603 71.355857 
L 395.36823 71.026084 
L 397.00726 70.971953 
L 398.388536 71.124796 
L 399.748723 71.502117 
L 401.088455 72.126015 
L 402.408338 72.996852 
L 403.923888 74.290277 
L 405.624951 76.046479 
L 407.7066 78.540837 
L 409.539383 81.064631 
L 411.729427 84.493572 
L 416.328668 91.882734 
L 418.724213 95.181208 
L 421.057028 98.036343 
L 423.846783 101.086044 
L 426.050847 103.220609 
L 428.038078 104.820327 
L 429.821569 106.008662 
L 431.096589 106.614543 
L 432.04102 106.842138 
L 432.820469 106.841871 
L 433.593158 106.641284 
L 434.359203 106.221633 
L 435.269847 105.422674 
L 436.171276 104.326374 
L 437.359167 102.497375 
L 438.822098 99.816645 
L 440.972415 95.364978 
L 444.17195 88.194924 
L 446.996187 81.918276 
L 448.440575 79.267085 
L 449.605173 77.560779 
L 450.881563 76.076796 
L 455.931581 70.935286 
L 456.88443 70.37183 
L 461.950371 68.193544 
L 462.730405 68.253606 
L 463.723375 68.576462 
L 465.354119 69.115112 
L 466.211796 69.161348 
L 467.166914 68.991852 
L 468.424683 68.518146 
L 470.380533 67.758868 
L 471.191373 67.698391 
L 471.894855 67.883895 
L 472.592826 68.331586 
L 473.285371 69.044343 
L 474.070314 70.167117 
L 474.945187 71.827616 
L 475.907297 74.183666 
L 477.425382 78.668237 
L 479.195142 83.716927 
L 480.295039 86.252882 
L 481.291486 87.998054 
L 482.276911 89.269211 
L 483.339633 90.288227 
L 484.73716 91.306917 
L 486.198397 92.135409 
L 488.054517 93.079757 
L 490.443587 94.661348 
L 490.929978 94.665271 
L 491.413729 94.460431 
L 492.214188 93.818078 
L 493.322884 92.984526 
L 494.96048 91.929579 
L 495.576493 91.185337 
L 496.340567 89.858796 
L 497.248889 87.777792 
L 498.222565 84.950932 
L 500.211439 78.99079 
L 500.864652 77.681032 
L 501.369415 77.065398 
L 501.799805 76.828939 
L 502.228125 76.841949 
L 502.654397 77.074562 
L 503.219604 77.656336 
L 504.408894 79.334707 
L 505.376527 80.515843 
L 506.129506 81.099891 
L 506.74088 81.297098 
L 507.280824 81.251808 
L 507.884375 80.982769 
L 508.947362 80.196129 
L 509.73636 79.724541 
L 510.388563 79.589716 
L 511.293699 79.415379 
L 511.806821 79.073528 
L 512.444095 78.343173 
L 514.51533 75.619991 
L 515.071954 75.444745 
L 515.808751 75.49326 
L 516.600131 75.755341 
L 517.083662 76.151222 
L 517.624517 76.90655 
L 518.4 78.309631 
L 518.4 78.309631 
" clip-path="url(#pa662fdc273)" style="fill: none; stroke: #1f77b4; stroke-width: 1.5; stroke-linecap: square"/>
   </g>
   <g id="line2d_49">
    <path d="M 72 378.618499 
L 149.995947 296.073107 
L 166.855611 278.491732 
L 178.367149 266.755714 
L 186.119036 259.084756 
L 193.250081 252.285352 
L 199.852397 246.299615 
L 205.999006 241.08675 
L 209.873117 238.025313 
L 213.585758 235.285458 
L 217.149853 232.859303 
L 220.576833 230.738537 
L 223.876859 228.913894 
L 227.059 227.374657 
L 230.131391 226.108164 
L 233.101349 225.09934 
L 235.975486 224.33023 
L 238.75979 223.779577 
L 241.459709 223.422451 
L 245.362107 223.185385 
L 249.100718 223.20365 
L 258.365214 223.460476 
L 261.605225 223.228617 
L 263.701569 222.875584 
L 265.749717 222.33602 
L 267.751835 221.597276 
L 269.709946 220.657422 
L 271.625945 219.524944 
L 273.501604 218.217516 
L 276.243066 215.984226 
L 278.902681 213.516476 
L 283.166198 209.173728 
L 290.361268 201.73675 
L 294.120919 198.167824 
L 298.432591 194.423411 
L 304.532421 189.518108 
L 312.065681 183.694197 
L 315.02577 181.648977 
L 317.325008 180.298247 
L 319.566396 179.25849 
L 321.752776 178.548089 
L 323.886782 178.139162 
L 326.484357 177.924383 
L 329.99824 177.683554 
L 331.462775 177.405495 
L 332.903623 176.931182 
L 334.321539 176.221953 
L 335.717241 175.267404 
L 337.091415 174.088157 
L 338.891284 172.254491 
L 344.08249 166.694999 
L 345.334368 165.68209 
L 346.568898 164.917444 
L 347.786555 164.413734 
L 348.987793 164.160962 
L 350.17305 164.127296 
L 351.729256 164.332057 
L 355.504842 165.033235 
L 356.607006 165.003339 
L 357.695702 164.7775 
L 358.771254 164.348429 
L 360.185419 163.501402 
L 362.265447 161.89881 
L 364.298018 160.384121 
L 365.627752 159.668713 
L 366.612187 159.356041 
L 367.585864 159.254452 
L 368.549014 159.360912 
L 369.501862 159.65475 
L 370.756679 160.273876 
L 375.310847 162.876549 
L 376.486977 163.148385 
L 377.647781 163.160838 
L 378.793656 162.956697 
L 380.764142 162.315681 
L 382.964019 161.620433 
L 384.578997 161.338319 
L 386.687746 161.225873 
L 388.747734 161.077241 
L 390.262056 160.732328 
L 391.751069 160.1532 
L 395.604231 158.473656 
L 396.774951 158.272529 
L 397.930486 158.305024 
L 399.297631 158.596706 
L 402.62643 159.460263 
L 403.708953 159.433986 
L 404.778479 159.16124 
L 405.835318 158.661331 
L 407.294143 157.694975 
L 411.137462 154.962185 
L 413.289038 153.821117 
L 415.389876 152.670296 
L 416.887231 151.602408 
L 420.524083 148.839992 
L 421.586805 148.375042 
L 423.157491 147.982602 
L 424.530782 147.575407 
L 425.378462 147.111723 
L 426.385145 146.273195 
L 427.709936 144.790534 
L 429.821569 142.403688 
L 430.938205 141.501157 
L 432.04102 140.89089 
L 433.284886 140.444959 
L 434.511625 140.217332 
L 435.571338 140.257549 
L 436.469737 140.51811 
L 437.653681 141.126532 
L 438.967078 141.772488 
L 439.688463 141.882186 
L 440.261394 141.771966 
L 440.972415 141.38451 
L 441.958407 140.52138 
L 443.210285 139.442762 
L 443.898246 139.148528 
L 444.444815 139.154985 
L 444.988052 139.392141 
L 445.662472 139.987562 
L 446.598165 141.218756 
L 448.440575 143.773148 
L 449.218662 144.462331 
L 449.990014 144.846366 
L 451.008202 145.047003 
L 452.762502 145.340556 
L 453.994755 145.832342 
L 456.40928 146.87315 
L 457.239137 146.961449 
L 457.944343 146.801856 
L 458.52778 146.458158 
L 459.222898 145.777337 
L 460.141365 144.516553 
L 461.613968 142.485141 
L 462.285508 141.930243 
L 462.952023 141.683653 
L 463.94254 141.643093 
L 464.813847 141.525204 
L 465.569313 141.181617 
L 466.849678 140.565919 
L 467.37778 140.597038 
L 467.902769 140.892109 
L 468.5287 141.542501 
L 469.972328 143.153632 
L 470.482292 143.370531 
L 470.989354 143.355017 
L 472.692091 143.037872 
L 473.186765 143.27352 
L 473.874726 143.893724 
L 475.523699 145.53014 
L 476.28925 145.90296 
L 477.142705 146.054704 
L 477.894528 145.974042 
L 478.45426 145.688834 
L 478.918033 145.223054 
L 479.471392 144.324568 
L 480.112663 142.808128 
L 482.454914 136.577323 
L 482.898372 136.103702 
L 483.339633 135.960599 
L 483.77872 136.069742 
L 484.996773 136.559018 
L 485.427788 136.435109 
L 485.942267 136.030978 
L 487.046885 135.066933 
L 487.468117 134.989088 
L 487.970981 135.162159 
L 489.050879 135.695906 
L 489.462764 135.611338 
L 489.954525 135.237718 
L 490.929978 134.398711 
L 491.25277 134.373972 
L 491.574397 134.556249 
L 491.974804 135.065283 
L 492.691034 136.455835 
L 493.401551 137.683322 
L 493.872101 138.071777 
L 494.262336 138.12305 
L 495.729832 138.011326 
L 496.188275 138.423638 
L 497.849333 140.275875 
L 498.222565 140.190796 
L 498.66839 139.811832 
L 499.479986 139.066462 
L 499.773289 139.035128 
L 500.065628 139.216296 
L 500.429709 139.750477 
L 501.009162 141.123737 
L 501.871335 143.109955 
L 502.299312 143.588394 
L 502.796035 143.770383 
L 503.290003 143.953196 
L 503.641168 144.336162 
L 504.060748 145.21621 
L 504.61713 147.017275 
L 505.719579 150.702781 
L 506.26573 151.725999 
L 507.884375 154.031784 
L 508.483865 155.759055 
L 509.211138 158.651722 
L 510.712883 164.940344 
L 511.164956 165.863407 
L 511.486466 166.103109 
L 511.806821 166.040099 
L 512.189732 165.669334 
L 512.950652 164.490094 
L 513.579825 163.685418 
L 513.892753 163.562737 
L 514.142306 163.675394 
L 514.453268 164.135028 
L 514.824995 165.191569 
L 515.318231 167.359913 
L 516.600131 173.393532 
L 516.963025 174.11664 
L 517.264312 174.278682 
L 517.564584 174.128359 
L 518.042923 173.523875 
L 518.4 172.995796 
L 518.4 172.995796 
" clip-path="url(#pa662fdc273)" style="fill: none; stroke: #ff7f0e; stroke-width: 1.5; stroke-linecap: square"/>
   </g>
   <g id="patch_3">
    <path d="M 72 378 
L 72 51.84 
" style="fill: none; stroke: #000000; stroke-width: 0.8; stroke-linejoin: miter; stroke-linecap: square"/>
   </g>
   <g id="patch_4">
    <path d="M 518.4 378 
L 518.4 51.84 
" style="fill: none; stroke: #000000; stroke-width: 0.8; stroke-linejoin: miter; stroke-linecap: square"/>
   </g>
   <g id="patch_5">
    <path d="M 72 378 
L 518.4 378 
" style="fill: none; stroke: #000000; stroke-width: 0.8; stroke-linejoin: miter; stroke-linecap: square"/>
   </g>
   <g id="patch_6">
    <path d="M 72 51.84 
L 518.4 51.84 
" style="fill: none; stroke: #000000; stroke-width: 0.8; stroke-linejoin: miter; stroke-linecap: square"/>
   </g>
   <g id="legend_1">
    <g id="patch_7">
     <path d="M 336.575625 372 
L 510 372 
Q 512.4 372 512.4 369.6 
L 512.4 335.5725 
Q 512.4 333.1725 510 333.1725 
L 336.575625 333.1725 
Q 334.175625 333.1725 334.175625 335.5725 
L 334.175625 369.6 
Q 334.175625 372 336.575625 372 
z
" style="fill: #ffffff; opacity: 0.8; stroke: #cccccc; stroke-linejoin: miter"/>
    </g>
    <g id="line2d_50">
     <path d="M 338.975625 342.890625 
L 350.975625 342.890625 
L 362.975625 342.890625 
" style="fill: none; stroke: #1f77b4; stroke-width: 1.5; stroke-linecap: square"/>
    </g>
    <g id="text_9">
     <!-- Triangular Network -->
     <g transform="translate(372.575625 347.090625)scale(0.12 -0.12)">
      <defs>
       <path id="DejaVuSans-54" d="M -19 4666 
L 3928 4666 
L 3928 4134 
L 2272 4134 
L 2272 0 
L 1638 0 
L 1638 4134 
L -19 4134 
L -19 4666 
z
" transform="scale(0.015625)"/>
       <path id="DejaVuSans-72" d="M 2631 2963 
Q 2534 3019 2420 3045 
Q 2306 3072 2169 3072 
Q 1681 3072 1420 2755 
Q 1159 2438 1159 1844 
L 1159 0 
L 581 0 
L 581 3500 
L 1159 3500 
L 1159 2956 
Q 1341 3275 1631 3429 
Q 1922 3584 2338 3584 
Q 2397 3584 2469 3576 
Q 2541 3569 2628 3553 
L 2631 2963 
z
" transform="scale(0.015625)"/>
       <path id="DejaVuSans-69" d="M 603 3500 
L 1178 3500 
L 1178 0 
L 603 0 
L 603 3500 
z
M 603 4863 
L 1178 4863 
L 1178 4134 
L 603 4134 
L 603 4863 
z
" transform="scale(0.015625)"/>
       <path id="DejaVuSans-61" d="M 2194 1759 
Q 1497 1759 1228 1600 
Q 959 1441 959 1056 
Q 959 750 1161 570 
Q 1363 391 1709 391 
Q 2188 391 2477 730 
Q 2766 1069 2766 1631 
L 2766 1759 
L 2194 1759 
z
M 3341 1997 
L 3341 0 
L 2766 0 
L 2766 531 
Q 2569 213 2275 61 
Q 1981 -91 1556 -91 
Q 1019 -91 701 211 
Q 384 513 384 1019 
Q 384 1609 779 1909 
Q 1175 2209 1959 2209 
L 2766 2209 
L 2766 2266 
Q 2766 2663 2505 2880 
Q 2244 3097 1772 3097 
Q 1472 3097 1187 3025 
Q 903 2953 641 2809 
L 641 3341 
Q 956 3463 1253 3523 
Q 1550 3584 1831 3584 
Q 2591 3584 2966 3190 
Q 3341 2797 3341 1997 
z
" transform="scale(0.015625)"/>
       <path id="DejaVuSans-6e" d="M 3513 2113 
L 3513 0 
L 2938 0 
L 2938 2094 
Q 2938 2591 2744 2837 
Q 2550 3084 2163 3084 
Q 1697 3084 1428 2787 
Q 1159 2491 1159 1978 
L 1159 0 
L 581 0 
L 581 3500 
L 1159 3500 
L 1159 2956 
Q 1366 3272 1645 3428 
Q 1925 3584 2291 3584 
Q 2894 3584 3203 3211 
Q 3513 2838 3513 2113 
z
" transform="scale(0.015625)"/>
       <path id="DejaVuSans-67" d="M 2906 1791 
Q 2906 2416 2648 2759 
Q 2391 3103 1925 3103 
Q 1463 3103 1205 2759 
Q 947 2416 947 1791 
Q 947 1169 1205 825 
Q 1463 481 1925 481 
Q 2391 481 2648 825 
Q 2906 1169 2906 1791 
z
M 3481 434 
Q 3481 -459 3084 -895 
Q 2688 -1331 1869 -1331 
Q 1566 -1331 1297 -1286 
Q 1028 -1241 775 -1147 
L 775 -588 
Q 1028 -725 1275 -790 
Q 1522 -856 1778 -856 
Q 2344 -856 2625 -561 
Q 2906 -266 2906 331 
L 2906 616 
Q 2728 306 2450 153 
Q 2172 0 1784 0 
Q 1141 0 747 490 
Q 353 981 353 1791 
Q 353 2603 747 3093 
Q 1141 3584 1784 3584 
Q 2172 3584 2450 3431 
Q 2728 3278 2906 2969 
L 2906 3500 
L 3481 3500 
L 3481 434 
z
" transform="scale(0.015625)"/>
       <path id="DejaVuSans-75" d="M 544 1381 
L 544 3500 
L 1119 3500 
L 1119 1403 
Q 1119 906 1312 657 
Q 1506 409 1894 409 
Q 2359 409 2629 706 
Q 2900 1003 2900 1516 
L 2900 3500 
L 3475 3500 
L 3475 0 
L 2900 0 
L 2900 538 
Q 2691 219 2414 64 
Q 2138 -91 1772 -91 
Q 1169 -91 856 284 
Q 544 659 544 1381 
z
M 1991 3584 
L 1991 3584 
z
" transform="scale(0.015625)"/>
       <path id="DejaVuSans-6c" d="M 603 4863 
L 1178 4863 
L 1178 0 
L 603 0 
L 603 4863 
z
" transform="scale(0.015625)"/>
       <path id="DejaVuSans-20" transform="scale(0.015625)"/>
       <path id="DejaVuSans-4e" d="M 628 4666 
L 1478 4666 
L 3547 763 
L 3547 4666 
L 4159 4666 
L 4159 0 
L 3309 0 
L 1241 3903 
L 1241 0 
L 628 0 
L 628 4666 
z
" transform="scale(0.015625)"/>
       <path id="DejaVuSans-65" d="M 3597 1894 
L 3597 1613 
L 953 1613 
Q 991 1019 1311 708 
Q 1631 397 2203 397 
Q 2534 397 2845 478 
Q 3156 559 3463 722 
L 3463 178 
Q 3153 47 2828 -22 
Q 2503 -91 2169 -91 
Q 1331 -91 842 396 
Q 353 884 353 1716 
Q 353 2575 817 3079 
Q 1281 3584 2069 3584 
Q 2775 3584 3186 3129 
Q 3597 2675 3597 1894 
z
M 3022 2063 
Q 3016 2534 2758 2815 
Q 2500 3097 2075 3097 
Q 1594 3097 1305 2825 
Q 1016 2553 972 2059 
L 3022 2063 
z
" transform="scale(0.015625)"/>
       <path id="DejaVuSans-77" d="M 269 3500 
L 844 3500 
L 1563 769 
L 2278 3500 
L 2956 3500 
L 3675 769 
L 4391 3500 
L 4966 3500 
L 4050 0 
L 3372 0 
L 2619 2869 
L 1863 0 
L 1184 0 
L 269 3500 
z
" transform="scale(0.015625)"/>
       <path id="DejaVuSans-6f" d="M 1959 3097 
Q 1497 3097 1228 2736 
Q 959 2375 959 1747 
Q 959 1119 1226 758 
Q 1494 397 1959 397 
Q 2419 397 2687 759 
Q 2956 1122 2956 1747 
Q 2956 2369 2687 2733 
Q 2419 3097 1959 3097 
z
M 1959 3584 
Q 2709 3584 3137 3096 
Q 3566 2609 3566 1747 
Q 3566 888 3137 398 
Q 2709 -91 1959 -91 
Q 1206 -91 779 398 
Q 353 888 353 1747 
Q 353 2609 779 3096 
Q 1206 3584 1959 3584 
z
" transform="scale(0.015625)"/>
       <path id="DejaVuSans-6b" d="M 581 4863 
L 1159 4863 
L 1159 1991 
L 2875 3500 
L 3609 3500 
L 1753 1863 
L 3688 0 
L 2938 0 
L 1159 1709 
L 1159 0 
L 581 0 
L 581 4863 
z
" transform="scale(0.015625)"/>
      </defs>
      <use xlink:href="#DejaVuSans-54"/>
      <use xlink:href="#DejaVuSans-72" x="46.333984"/>
      <use xlink:href="#DejaVuSans-69" x="87.447266"/>
      <use xlink:href="#DejaVuSans-61" x="115.230469"/>
      <use xlink:href="#DejaVuSans-6e" x="176.509766"/>
      <use xlink:href="#DejaVuSans-67" x="239.888672"/>
      <use xlink:href="#DejaVuSans-75" x="303.365234"/>
      <use xlink:href="#DejaVuSans-6c" x="366.744141"/>
      <use xlink:href="#DejaVuSans-61" x="394.527344"/>
      <use xlink:href="#DejaVuSans-72" x="455.806641"/>
      <use xlink:href="#DejaVuSans-20" x="496.919922"/>
      <use xlink:href="#DejaVuSans-4e" x="528.707031"/>
      <use xlink:href="#DejaVuSans-65" x="603.511719"/>
      <use xlink:href="#DejaVuSans-74" x="665.035156"/>
      <use xlink:href="#DejaVuSans-77" x="704.244141"/>
      <use xlink:href="#DejaVuSans-6f" x="786.03125"/>
      <use xlink:href="#DejaVuSans-72" x="847.212891"/>
      <use xlink:href="#DejaVuSans-6b" x="888.326172"/>
     </g>
    </g>
    <g id="line2d_51">
     <path d="M 338.975625 360.504375 
L 350.975625 360.504375 
L 362.975625 360.504375 
" style="fill: none; stroke: #ff7f0e; stroke-width: 1.5; stroke-linecap: square"/>
    </g>
    <g id="text_10">
     <!-- Dual Sierpinski Gasket -->
     <g transform="translate(372.575625 364.704375)scale(0.12 -0.12)">
      <defs>
       <path id="DejaVuSans-70" d="M 1159 525 
L 1159 -1331 
L 581 -1331 
L 581 3500 
L 1159 3500 
L 1159 2969 
Q 1341 3281 1617 3432 
Q 1894 3584 2278 3584 
Q 2916 3584 3314 3078 
Q 3713 2572 3713 1747 
Q 3713 922 3314 415 
Q 2916 -91 2278 -91 
Q 1894 -91 1617 61 
Q 1341 213 1159 525 
z
M 3116 1747 
Q 3116 2381 2855 2742 
Q 2594 3103 2138 3103 
Q 1681 3103 1420 2742 
Q 1159 2381 1159 1747 
Q 1159 1113 1420 752 
Q 1681 391 2138 391 
Q 2594 391 2855 752 
Q 3116 1113 3116 1747 
z
" transform="scale(0.015625)"/>
       <path id="DejaVuSans-73" d="M 2834 3397 
L 2834 2853 
Q 2591 2978 2328 3040 
Q 2066 3103 1784 3103 
Q 1356 3103 1142 2972 
Q 928 2841 928 2578 
Q 928 2378 1081 2264 
Q 1234 2150 1697 2047 
L 1894 2003 
Q 2506 1872 2764 1633 
Q 3022 1394 3022 966 
Q 3022 478 2636 193 
Q 2250 -91 1575 -91 
Q 1294 -91 989 -36 
Q 684 19 347 128 
L 347 722 
Q 666 556 975 473 
Q 1284 391 1588 391 
Q 1994 391 2212 530 
Q 2431 669 2431 922 
Q 2431 1156 2273 1281 
Q 2116 1406 1581 1522 
L 1381 1569 
Q 847 1681 609 1914 
Q 372 2147 372 2553 
Q 372 3047 722 3315 
Q 1072 3584 1716 3584 
Q 2034 3584 2315 3537 
Q 2597 3491 2834 3397 
z
" transform="scale(0.015625)"/>
       <path id="DejaVuSans-47" d="M 3809 666 
L 3809 1919 
L 2778 1919 
L 2778 2438 
L 4434 2438 
L 4434 434 
Q 4069 175 3628 42 
Q 3188 -91 2688 -91 
Q 1594 -91 976 548 
Q 359 1188 359 2328 
Q 359 3472 976 4111 
Q 1594 4750 2688 4750 
Q 3144 4750 3555 4637 
Q 3966 4525 4313 4306 
L 4313 3634 
Q 3963 3931 3569 4081 
Q 3175 4231 2741 4231 
Q 1884 4231 1454 3753 
Q 1025 3275 1025 2328 
Q 1025 1384 1454 906 
Q 1884 428 2741 428 
Q 3075 428 3337 486 
Q 3600 544 3809 666 
z
" transform="scale(0.015625)"/>
      </defs>
      <use xlink:href="#DejaVuSans-44"/>
      <use xlink:href="#DejaVuSans-75" x="77.001953"/>
      <use xlink:href="#DejaVuSans-61" x="140.380859"/>
      <use xlink:href="#DejaVuSans-6c" x="201.660156"/>
      <use xlink:href="#DejaVuSans-20" x="229.443359"/>
      <use xlink:href="#DejaVuSans-53" x="261.230469"/>
      <use xlink:href="#DejaVuSans-69" x="324.707031"/>
      <use xlink:href="#DejaVuSans-65" x="352.490234"/>
      <use xlink:href="#DejaVuSans-72" x="414.013672"/>
      <use xlink:href="#DejaVuSans-70" x="455.126953"/>
      <use xlink:href="#DejaVuSans-69" x="518.603516"/>
      <use xlink:href="#DejaVuSans-6e" x="546.386719"/>
      <use xlink:href="#DejaVuSans-73" x="609.765625"/>
      <use xlink:href="#DejaVuSans-6b" x="661.865234"/>
      <use xlink:href="#DejaVuSans-69" x="719.775391"/>
      <use xlink:href="#DejaVuSans-20" x="747.558594"/>
      <use xlink:href="#DejaVuSans-47" x="779.345703"/>
      <use xlink:href="#DejaVuSans-61" x="856.835938"/>
      <use xlink:href="#DejaVuSans-73" x="918.115234"/>
      <use xlink:href="#DejaVuSans-6b" x="970.214844"/>
      <use xlink:href="#DejaVuSans-65" x="1024.5"/>
      <use xlink:href="#DejaVuSans-74" x="1086.023438"/>
     </g>
    </g>
   </g>
  </g>
 </g>
 <defs>
  <clipPath id="pa662fdc273">
   <rect x="72" y="51.84" width="446.4" height="326.16"/>
  </clipPath>
 </defs>
</svg>
