<?xml version="1.0" encoding="utf-8" standalone="no"?>
<!DOCTYPE svg PUBLIC "-//W3C//DTD SVG 1.1//EN"
  "http://www.w3.org/Graphics/SVG/1.1/DTD/svg11.dtd">
<svg xmlns:xlink="http://www.w3.org/1999/xlink" width="576pt" height="432pt" viewBox="0 0 576 432" xmlns="http://www.w3.org/2000/svg" version="1.1">
 <metadata>
  <rdf:RDF xmlns:dc="http://purl.org/dc/elements/1.1/" xmlns:cc="http://creativecommons.org/ns#" xmlns:rdf="http://www.w3.org/1999/02/22-rdf-syntax-ns#">
   <cc:Work>
    <dc:type rdf:resource="http://purl.org/dc/dcmitype/StillImage"/>
    <dc:date>2022-06-15T02:31:23.027258</dc:date>
    <dc:format>image/svg+xml</dc:format>
    <dc:creator>
     <cc:Agent>
      <dc:title>Matplotlib v3.5.1, https://matplotlib.org/</dc:title>
     </cc:Agent>
    </dc:creator>
   </cc:Work>
  </rdf:RDF>
 </metadata>
 <defs>
  <style type="text/css">*{stroke-linejoin: round; stroke-linecap: butt}</style>
 </defs>
 <g id="figure_1">
  <g id="patch_1">
   <path d="M 0 432 
L 576 432 
L 576 0 
L 0 0 
L 0 432 
z
" style="fill: none"/>
  </g>
  <g id="axes_1">
   <g id="patch_2">
    <path d="M 72 378 
L 518.4 378 
L 518.4 51.84 
L 72 51.84 
z
" style="fill: #ffffff"/>
   </g>
   <g id="matplotlib.axis_1">
    <g id="xtick_1">
     <g id="line2d_1">
      <defs>
       <path id="m5ce63f45aa" d="M 0 0 
L 0 3.5 
" style="stroke: #000000; stroke-width: 0.8"/>
      </defs>
      <g>
       <use xlink:href="#m5ce63f45aa" x="72" y="378" style="stroke: #000000; stroke-width: 0.8"/>
      </g>
     </g>
     <g id="text_1">
      <!-- $\mathdefault{10^{-1}}$ -->
      <g transform="translate(57.9 394.118125)scale(0.12 -0.12)">
       <defs>
        <path id="DejaVuSans-31" d="M 794 531 
L 1825 531 
L 1825 4091 
L 703 3866 
L 703 4441 
L 1819 4666 
L 2450 4666 
L 2450 531 
L 3481 531 
L 3481 0 
L 794 0 
L 794 531 
z
" transform="scale(0.015625)"/>
        <path id="DejaVuSans-30" d="M 2034 4250 
Q 1547 4250 1301 3770 
Q 1056 3291 1056 2328 
Q 1056 1369 1301 889 
Q 1547 409 2034 409 
Q 2525 409 2770 889 
Q 3016 1369 3016 2328 
Q 3016 3291 2770 3770 
Q 2525 4250 2034 4250 
z
M 2034 4750 
Q 2819 4750 3233 4129 
Q 3647 3509 3647 2328 
Q 3647 1150 3233 529 
Q 2819 -91 2034 -91 
Q 1250 -91 836 529 
Q 422 1150 422 2328 
Q 422 3509 836 4129 
Q 1250 4750 2034 4750 
z
" transform="scale(0.015625)"/>
        <path id="DejaVuSans-2212" d="M 678 2272 
L 4684 2272 
L 4684 1741 
L 678 1741 
L 678 2272 
z
" transform="scale(0.015625)"/>
       </defs>
       <use xlink:href="#DejaVuSans-31" transform="translate(0 0.684375)"/>
       <use xlink:href="#DejaVuSans-30" transform="translate(63.623047 0.684375)"/>
       <use xlink:href="#DejaVuSans-2212" transform="translate(128.203125 38.965625)scale(0.7)"/>
       <use xlink:href="#DejaVuSans-31" transform="translate(186.855469 38.965625)scale(0.7)"/>
      </g>
     </g>
    </g>
    <g id="xtick_2">
     <g id="line2d_2">
      <g>
       <use xlink:href="#m5ce63f45aa" x="374.209449" y="378" style="stroke: #000000; stroke-width: 0.8"/>
      </g>
     </g>
     <g id="text_2">
      <!-- $\mathdefault{10^{0}}$ -->
      <g transform="translate(363.649449 394.118125)scale(0.12 -0.12)">
       <use xlink:href="#DejaVuSans-31" transform="translate(0 0.765625)"/>
       <use xlink:href="#DejaVuSans-30" transform="translate(63.623047 0.765625)"/>
       <use xlink:href="#DejaVuSans-30" transform="translate(128.203125 39.046875)scale(0.7)"/>
      </g>
     </g>
    </g>
    <g id="xtick_3">
     <g id="line2d_3">
      <defs>
       <path id="ma7c69c7220" d="M 0 0 
L 0 2 
" style="stroke: #000000; stroke-width: 0.6"/>
      </defs>
      <g>
       <use xlink:href="#ma7c69c7220" x="162.974109" y="378" style="stroke: #000000; stroke-width: 0.6"/>
      </g>
     </g>
    </g>
    <g id="xtick_4">
     <g id="line2d_4">
      <g>
       <use xlink:href="#ma7c69c7220" x="216.190551" y="378" style="stroke: #000000; stroke-width: 0.6"/>
      </g>
     </g>
    </g>
    <g id="xtick_5">
     <g id="line2d_5">
      <g>
       <use xlink:href="#ma7c69c7220" x="253.948218" y="378" style="stroke: #000000; stroke-width: 0.6"/>
      </g>
     </g>
    </g>
    <g id="xtick_6">
     <g id="line2d_6">
      <g>
       <use xlink:href="#ma7c69c7220" x="283.23534" y="378" style="stroke: #000000; stroke-width: 0.6"/>
      </g>
     </g>
    </g>
    <g id="xtick_7">
     <g id="line2d_7">
      <g>
       <use xlink:href="#ma7c69c7220" x="307.16466" y="378" style="stroke: #000000; stroke-width: 0.6"/>
      </g>
     </g>
    </g>
    <g id="xtick_8">
     <g id="line2d_8">
      <g>
       <use xlink:href="#ma7c69c7220" x="327.396613" y="378" style="stroke: #000000; stroke-width: 0.6"/>
      </g>
     </g>
    </g>
    <g id="xtick_9">
     <g id="line2d_9">
      <g>
       <use xlink:href="#ma7c69c7220" x="344.922327" y="378" style="stroke: #000000; stroke-width: 0.6"/>
      </g>
     </g>
    </g>
    <g id="xtick_10">
     <g id="line2d_10">
      <g>
       <use xlink:href="#ma7c69c7220" x="360.381103" y="378" style="stroke: #000000; stroke-width: 0.6"/>
      </g>
     </g>
    </g>
    <g id="xtick_11">
     <g id="line2d_11">
      <g>
       <use xlink:href="#ma7c69c7220" x="465.183558" y="378" style="stroke: #000000; stroke-width: 0.6"/>
      </g>
     </g>
    </g>
    <g id="xtick_12">
     <g id="line2d_12">
      <g>
       <use xlink:href="#ma7c69c7220" x="518.4" y="378" style="stroke: #000000; stroke-width: 0.6"/>
      </g>
     </g>
    </g>
    <g id="text_3">
     <!-- t -->
     <g transform="translate(292.847812 409.731875)scale(0.12 -0.12)">
      <defs>
       <path id="DejaVuSans-74" d="M 1172 4494 
L 1172 3500 
L 2356 3500 
L 2356 3053 
L 1172 3053 
L 1172 1153 
Q 1172 725 1289 603 
Q 1406 481 1766 481 
L 2356 481 
L 2356 0 
L 1766 0 
Q 1100 0 847 248 
Q 594 497 594 1153 
L 594 3053 
L 172 3053 
L 172 3500 
L 594 3500 
L 594 4494 
L 1172 4494 
z
" transform="scale(0.015625)"/>
      </defs>
      <use xlink:href="#DejaVuSans-74"/>
     </g>
    </g>
   </g>
   <g id="matplotlib.axis_2">
    <g id="ytick_1">
     <g id="line2d_13">
      <defs>
       <path id="mc16aa2f688" d="M 0 0 
L -3.5 0 
" style="stroke: #000000; stroke-width: 0.8"/>
      </defs>
      <g>
       <use xlink:href="#mc16aa2f688" x="72" y="243.815137" style="stroke: #000000; stroke-width: 0.8"/>
      </g>
     </g>
     <g id="text_4">
      <!-- $\mathdefault{10^{0}}$ -->
      <g transform="translate(43.88 248.3742)scale(0.12 -0.12)">
       <use xlink:href="#DejaVuSans-31" transform="translate(0 0.765625)"/>
       <use xlink:href="#DejaVuSans-30" transform="translate(63.623047 0.765625)"/>
       <use xlink:href="#DejaVuSans-30" transform="translate(128.203125 39.046875)scale(0.7)"/>
      </g>
     </g>
    </g>
    <g id="ytick_2">
     <g id="line2d_14">
      <g>
       <use xlink:href="#mc16aa2f688" x="72" y="51.84" style="stroke: #000000; stroke-width: 0.8"/>
      </g>
     </g>
     <g id="text_5">
      <!-- $\mathdefault{10^{1}}$ -->
      <g transform="translate(43.88 56.399062)scale(0.12 -0.12)">
       <use xlink:href="#DejaVuSans-31" transform="translate(0 0.684375)"/>
       <use xlink:href="#DejaVuSans-30" transform="translate(63.623047 0.684375)"/>
       <use xlink:href="#DejaVuSans-31" transform="translate(128.203125 38.965625)scale(0.7)"/>
      </g>
     </g>
    </g>
    <g id="ytick_3">
     <g id="line2d_15">
      <defs>
       <path id="mb2081a1995" d="M 0 0 
L -2 0 
" style="stroke: #000000; stroke-width: 0.6"/>
      </defs>
      <g>
       <use xlink:href="#mb2081a1995" x="72" y="378" style="stroke: #000000; stroke-width: 0.6"/>
      </g>
     </g>
    </g>
    <g id="ytick_4">
     <g id="line2d_16">
      <g>
       <use xlink:href="#mb2081a1995" x="72" y="344.194856" style="stroke: #000000; stroke-width: 0.6"/>
      </g>
     </g>
    </g>
    <g id="ytick_5">
     <g id="line2d_17">
      <g>
       <use xlink:href="#mb2081a1995" x="72" y="320.209725" style="stroke: #000000; stroke-width: 0.6"/>
      </g>
     </g>
    </g>
    <g id="ytick_6">
     <g id="line2d_18">
      <g>
       <use xlink:href="#mb2081a1995" x="72" y="301.605412" style="stroke: #000000; stroke-width: 0.6"/>
      </g>
     </g>
    </g>
    <g id="ytick_7">
     <g id="line2d_19">
      <g>
       <use xlink:href="#mb2081a1995" x="72" y="286.404582" style="stroke: #000000; stroke-width: 0.6"/>
      </g>
     </g>
    </g>
    <g id="ytick_8">
     <g id="line2d_20">
      <g>
       <use xlink:href="#mb2081a1995" x="72" y="273.552462" style="stroke: #000000; stroke-width: 0.6"/>
      </g>
     </g>
    </g>
    <g id="ytick_9">
     <g id="line2d_21">
      <g>
       <use xlink:href="#mb2081a1995" x="72" y="262.41945" style="stroke: #000000; stroke-width: 0.6"/>
      </g>
     </g>
    </g>
    <g id="ytick_10">
     <g id="line2d_22">
      <g>
       <use xlink:href="#mb2081a1995" x="72" y="252.599438" style="stroke: #000000; stroke-width: 0.6"/>
      </g>
     </g>
    </g>
    <g id="ytick_11">
     <g id="line2d_23">
      <g>
       <use xlink:href="#mb2081a1995" x="72" y="186.024863" style="stroke: #000000; stroke-width: 0.6"/>
      </g>
     </g>
    </g>
    <g id="ytick_12">
     <g id="line2d_24">
      <g>
       <use xlink:href="#mb2081a1995" x="72" y="152.219719" style="stroke: #000000; stroke-width: 0.6"/>
      </g>
     </g>
    </g>
    <g id="ytick_13">
     <g id="line2d_25">
      <g>
       <use xlink:href="#mb2081a1995" x="72" y="128.234588" style="stroke: #000000; stroke-width: 0.6"/>
      </g>
     </g>
    </g>
    <g id="ytick_14">
     <g id="line2d_26">
      <g>
       <use xlink:href="#mb2081a1995" x="72" y="109.630275" style="stroke: #000000; stroke-width: 0.6"/>
      </g>
     </g>
    </g>
    <g id="ytick_15">
     <g id="line2d_27">
      <g>
       <use xlink:href="#mb2081a1995" x="72" y="94.429444" style="stroke: #000000; stroke-width: 0.6"/>
      </g>
     </g>
    </g>
    <g id="ytick_16">
     <g id="line2d_28">
      <g>
       <use xlink:href="#mb2081a1995" x="72" y="81.577325" style="stroke: #000000; stroke-width: 0.6"/>
      </g>
     </g>
    </g>
    <g id="ytick_17">
     <g id="line2d_29">
      <g>
       <use xlink:href="#mb2081a1995" x="72" y="70.444313" style="stroke: #000000; stroke-width: 0.6"/>
      </g>
     </g>
    </g>
    <g id="ytick_18">
     <g id="line2d_30">
      <g>
       <use xlink:href="#mb2081a1995" x="72" y="60.624301" style="stroke: #000000; stroke-width: 0.6"/>
      </g>
     </g>
    </g>
    <g id="text_6">
     <!-- MSD -->
     <g transform="translate(37.384375 228.525937)rotate(-90)scale(0.12 -0.12)">
      <defs>
       <path id="DejaVuSans-4d" d="M 628 4666 
L 1569 4666 
L 2759 1491 
L 3956 4666 
L 4897 4666 
L 4897 0 
L 4281 0 
L 4281 4097 
L 3078 897 
L 2444 897 
L 1241 4097 
L 1241 0 
L 628 0 
L 628 4666 
z
" transform="scale(0.015625)"/>
       <path id="DejaVuSans-53" d="M 3425 4513 
L 3425 3897 
Q 3066 4069 2747 4153 
Q 2428 4238 2131 4238 
Q 1616 4238 1336 4038 
Q 1056 3838 1056 3469 
Q 1056 3159 1242 3001 
Q 1428 2844 1947 2747 
L 2328 2669 
Q 3034 2534 3370 2195 
Q 3706 1856 3706 1288 
Q 3706 609 3251 259 
Q 2797 -91 1919 -91 
Q 1588 -91 1214 -16 
Q 841 59 441 206 
L 441 856 
Q 825 641 1194 531 
Q 1563 422 1919 422 
Q 2459 422 2753 634 
Q 3047 847 3047 1241 
Q 3047 1584 2836 1778 
Q 2625 1972 2144 2069 
L 1759 2144 
Q 1053 2284 737 2584 
Q 422 2884 422 3419 
Q 422 4038 858 4394 
Q 1294 4750 2059 4750 
Q 2388 4750 2728 4690 
Q 3069 4631 3425 4513 
z
" transform="scale(0.015625)"/>
       <path id="DejaVuSans-44" d="M 1259 4147 
L 1259 519 
L 2022 519 
Q 2988 519 3436 956 
Q 3884 1394 3884 2338 
Q 3884 3275 3436 3711 
Q 2988 4147 2022 4147 
L 1259 4147 
z
M 628 4666 
L 1925 4666 
Q 3281 4666 3915 4102 
Q 4550 3538 4550 2338 
Q 4550 1131 3912 565 
Q 3275 0 1925 0 
L 628 0 
L 628 4666 
z
" transform="scale(0.015625)"/>
      </defs>
      <use xlink:href="#DejaVuSans-4d"/>
      <use xlink:href="#DejaVuSans-53" x="86.279297"/>
      <use xlink:href="#DejaVuSans-44" x="149.755859"/>
     </g>
    </g>
   </g>
   <g id="line2d_31">
    <path d="M 72 379.093062 
L 169.377715 255.536887 
L 192.261231 226.784537 
L 207.135382 208.352062 
L 220.494147 192.131372 
L 228.699812 182.414787 
L 236.422504 173.514801 
L 243.71593 165.396393 
L 250.625309 158.036208 
L 257.189071 151.419922 
L 263.440153 145.540164 
L 269.406994 140.39485 
L 275.114323 135.985815 
L 277.877539 134.058765 
L 280.583777 132.317677 
L 283.23534 130.763399 
L 285.834393 129.396831 
L 288.382976 128.218895 
L 290.883011 127.230509 
L 293.336314 126.43255 
L 295.7446 125.825821 
L 298.109491 125.411016 
L 300.432523 125.188673 
L 302.715153 125.159129 
L 304.958761 125.322465 
L 307.16466 125.67844 
L 309.334096 126.226419 
L 311.468256 126.96529 
L 313.568267 127.893363 
L 315.635205 129.008258 
L 317.670097 130.306772 
L 319.673921 131.78473 
L 321.647611 133.43681 
L 323.59206 135.256346 
L 325.508121 137.235114 
L 329.258316 141.62815 
L 332.904326 146.509129 
L 336.451782 151.729022 
L 346.552757 167.149568 
L 348.163181 169.29295 
L 349.754084 171.200287 
L 351.325933 172.828836 
L 352.879181 174.139001 
L 354.414262 175.096198 
L 355.931595 175.672677 
L 357.431588 175.849102 
L 358.91463 175.615717 
L 360.381103 174.97295 
L 361.83137 173.931381 
L 363.265788 172.51108 
L 364.684698 170.740393 
L 366.088432 168.654327 
L 367.477312 166.292718 
L 370.211742 160.91524 
L 372.890363 154.955841 
L 383.089504 131.05066 
L 385.52009 126.036666 
L 387.906481 121.631734 
L 390.250256 117.885836 
L 392.55291 114.825451 
L 394.81586 112.45903 
L 395.93287 111.5348 
L 397.040454 110.781088 
L 398.138769 110.195514 
L 399.22797 109.775144 
L 400.308205 109.516542 
L 401.379623 109.41581 
L 402.442365 109.468623 
L 403.49657 109.670261 
L 404.542376 110.015638 
L 405.579914 110.499326 
L 406.609314 111.115582 
L 408.644206 112.72143 
L 410.64803 114.782057 
L 412.62172 117.243346 
L 414.566169 120.049564 
L 416.48223 123.145054 
L 419.304874 128.214492 
L 422.06809 133.654055 
L 425.664148 141.272693 
L 429.164299 149.159547 
L 433.412175 159.314601 
L 442.300042 181.278067 
L 443.85329 184.43922 
L 445.388371 186.941571 
L 446.14923 187.879184 
L 446.905704 188.57269 
L 447.657843 188.997737 
L 448.405697 189.132826 
L 449.149313 188.960372 
L 449.888739 188.467684 
L 450.624024 187.647738 
L 451.355212 186.499706 
L 452.082349 185.029165 
L 452.805479 183.247967 
L 454.239897 178.829457 
L 455.658807 173.441368 
L 457.758818 164.087999 
L 465.183558 128.934834 
L 467.137657 121.593566 
L 468.424411 117.547211 
L 469.698673 114.231298 
L 470.960681 111.67595 
L 472.210671 109.9018 
L 472.831229 109.312123 
L 473.448868 108.922357 
L 474.063613 108.733362 
L 474.675492 108.745739 
L 475.284532 108.959857 
L 475.890759 109.375871 
L 476.494199 109.993737 
L 477.094877 110.813221 
L 478.288048 113.055134 
L 479.470469 116.095791 
L 480.642333 119.925784 
L 481.803827 124.531294 
L 482.955131 129.892804 
L 484.663371 139.290802 
L 486.349663 150.190083 
L 488.014563 162.377336 
L 490.202079 180.050091 
L 494.470679 215.177653 
L 496.036279 225.841694 
L 497.069732 231.527593 
L 498.095112 235.886275 
L 499.112543 238.857728 
L 499.618315 239.831934 
L 500.122147 240.481553 
L 500.624051 240.825124 
L 501.124044 240.88506 
L 501.622139 240.686618 
L 502.118351 240.256863 
L 503.105182 238.81498 
L 504.084648 236.778147 
L 505.540278 233.034665 
L 510.743578 218.637786 
L 512.585684 214.474674 
L 513.950493 211.85306 
L 515.301255 209.633432 
L 516.638257 207.766359 
L 518.4 205.71305 
L 518.4 205.71305 
" clip-path="url(#p1061735c9d)" style="fill: none; stroke: #1f77b4; stroke-width: 1.5; stroke-linecap: square"/>
   </g>
   <g id="line2d_32">
    <path d="M 72 378.208695 
L 84.509261 362.366058 
L 95.929321 348.764424 
L 106.434758 334.994726 
L 116.161273 327.672885 
L 125.216442 308.875037 
L 133.686987 302.696378 
L 141.643841 289.591227 
L 149.145763 279.060423 
L 156.241972 270.828258 
L 162.974109 264.050671 
L 169.377715 255.06734 
L 175.48337 249.018281 
L 181.31757 239.450086 
L 186.90343 230.707334 
L 192.261231 225.144152 
L 197.408867 219.523131 
L 202.362205 211.411266 
L 207.135382 205.138789 
L 211.741044 198.635894 
L 216.190551 194.901852 
L 220.494147 191.106074 
L 224.661096 184.999444 
L 228.699812 182.564705 
L 232.61795 176.167803 
L 236.422504 170.824032 
L 240.119872 165.361834 
L 243.71593 161.235935 
L 247.216081 157.645015 
L 250.625309 155.139707 
L 253.948218 151.603645 
L 257.189071 145.77746 
L 260.351824 144.901012 
L 266.457479 139.052567 
L 269.406994 139.195076 
L 272.291679 134.565704 
L 275.114323 131.05929 
L 277.877539 132.934529 
L 280.583777 131.648927 
L 283.23534 127.198876 
L 285.834393 126.983001 
L 288.382976 125.760042 
L 290.883011 125.300987 
L 293.336314 124.151882 
L 295.7446 122.705718 
L 298.109491 121.977431 
L 300.432523 122.06449 
L 302.715153 123.126156 
L 304.958761 122.652093 
L 307.16466 124.345619 
L 309.334096 123.165374 
L 311.468256 125.280867 
L 313.568267 125.300987 
L 315.635205 128.265859 
L 317.670097 130.190582 
L 319.673921 132.395994 
L 321.647611 133.398915 
L 323.59206 136.580017 
L 325.508121 136.868488 
L 327.396613 140.670013 
L 329.258316 142.189992 
L 331.093981 144.412425 
L 332.904326 144.729363 
L 334.690039 145.315697 
L 336.451782 153.861568 
L 338.19019 153.500963 
L 339.905873 155.391929 
L 341.599418 159.587952 
L 343.271388 160.442371 
L 344.922327 160.741959 
L 346.552757 163.60721 
L 348.163181 165.859492 
L 351.325933 165.78588 
L 352.879181 168.098627 
L 354.414262 168.612943 
L 355.931595 167.212375 
L 357.431588 165.38624 
L 358.91463 164.915659 
L 360.381103 161.081253 
L 361.83137 160.182067 
L 363.265788 158.210465 
L 364.684698 154.709093 
L 366.088432 152.261416 
L 367.477312 149.607023 
L 368.851648 145.559087 
L 370.211742 142.622333 
L 371.557886 141.65576 
L 372.890363 137.326316 
L 374.209449 136.023215 
L 375.515409 129.807377 
L 376.808502 127.513407 
L 378.088979 126.788167 
L 379.357085 120.858626 
L 380.613055 119.070241 
L 381.85712 116.346822 
L 383.089504 112.790938 
L 384.310423 111.540405 
L 385.52009 107.461822 
L 386.718709 105.904593 
L 387.906481 105.036088 
L 389.0836 101.961018 
L 390.250256 100.775553 
L 391.406632 98.925652 
L 392.55291 97.91982 
L 393.689262 96.575922 
L 394.81586 98.206483 
L 395.93287 94.023985 
L 397.040454 93.641132 
L 398.138769 92.720547 
L 399.22797 93.017172 
L 400.308205 91.5512 
L 401.379623 91.813382 
L 402.442365 91.12607 
L 403.49657 89.725521 
L 404.542376 90.809471 
L 405.579914 92.106791 
L 406.609314 92.032498 
L 407.630704 91.309915 
L 408.644206 92.421582 
L 409.649942 92.201442 
L 410.64803 93.627368 
L 411.638585 92.441932 
L 412.62172 92.608309 
L 413.597545 94.645105 
L 414.566169 94.788027 
L 415.527696 96.191842 
L 416.48223 95.390284 
L 417.429873 96.793641 
L 418.370722 98.439442 
L 419.304874 98.454024 
L 420.232425 98.958656 
L 421.153467 100.215143 
L 422.06809 99.2931 
L 422.976384 100.693124 
L 423.878435 102.844016 
L 424.774328 101.824246 
L 425.664148 104.016596 
L 426.547975 102.920908 
L 427.425891 104.772178 
L 428.297973 107.534964 
L 429.164299 105.146626 
L 430.024944 107.534964 
L 430.879982 107.291407 
L 431.729486 108.986619 
L 432.573527 108.664585 
L 433.412175 108.163371 
L 434.245497 110.190759 
L 435.073563 110.044 
L 435.896436 110.119443 
L 436.714183 109.76378 
L 437.526866 110.409279 
L 438.334548 111.963742 
L 439.13729 110.186562 
L 439.935152 109.596932 
L 440.728193 110.023055 
L 441.516471 111.030134 
L 442.300042 109.476176 
L 443.078964 109.363905 
L 443.85329 108.693435 
L 444.623075 108.356105 
L 445.388371 108.41771 
L 446.14923 108.048763 
L 446.905704 106.975842 
L 447.657843 106.508738 
L 448.405697 103.647178 
L 449.149313 103.47276 
L 449.888739 103.674342 
L 451.355212 101.968623 
L 452.082349 98.348365 
L 452.805479 98.742534 
L 453.524648 97.70637 
L 454.239897 97.709983 
L 454.951269 95.904938 
L 455.658807 95.509851 
L 456.362551 94.648588 
L 457.062541 94.186625 
L 457.758818 91.786453 
L 458.451421 92.418191 
L 459.140388 91.497521 
L 459.825757 91.219614 
L 460.507566 89.975429 
L 461.185851 91.12607 
L 461.860649 91.407015 
L 462.531995 89.735372 
L 463.199925 90.355009 
L 463.864472 91.129409 
L 464.525672 91.71917 
L 465.183558 92.029123 
L 465.838162 90.839413 
L 466.489518 91.651941 
L 467.137657 93.937603 
L 467.782611 95.113125 
L 468.424411 95.767151 
L 469.063088 96.875879 
L 469.698673 98.86701 
L 470.331194 99.651078 
L 470.960681 101.188928 
L 471.587164 100.768056 
L 472.210671 102.62143 
L 473.448868 106.838661 
L 474.063613 108.652224 
L 474.675492 111.30189 
L 475.284532 111.706918 
L 475.890759 113.13804 
L 476.494199 114.029746 
L 477.094877 116.319716 
L 477.692818 119.196384 
L 478.288048 119.332085 
L 478.88059 120.553924 
L 480.057709 124.032883 
L 480.642333 124.271052 
L 481.224365 123.953645 
L 482.380741 127.927713 
L 482.955131 125.33621 
L 483.527019 127.415311 
L 484.096425 127.948482 
L 484.663371 127.08059 
L 485.227879 127.039486 
L 485.789969 127.147426 
L 487.46194 121.687888 
L 488.56487 123.258593 
L 489.112878 118.211022 
L 489.658608 119.538397 
L 490.202079 115.761488 
L 490.743308 116.736314 
L 491.282315 114.359992 
L 491.819116 114.082497 
L 492.353732 111.69837 
L 492.886178 111.021656 
L 493.416474 111.013179 
L 493.944635 108.800678 
L 494.470679 108.097861 
L 495.516485 105.824901 
L 496.036279 106.560956 
L 497.069732 103.705398 
L 497.583424 103.345085 
L 498.095112 101.736981 
L 498.604813 100.801798 
L 499.112543 102.828646 
L 499.618315 101.286935 
L 500.624051 100.629484 
L 501.124044 101.600576 
L 501.622139 99.554974 
L 502.118351 100.196528 
L 502.612694 101.52111 
L 503.105182 100.479934 
L 503.595829 101.453056 
L 504.084648 101.809063 
L 505.056859 101.630869 
L 505.540278 101.56651 
L 506.021922 103.098028 
L 506.501805 102.529499 
L 507.456339 105.285006 
L 507.931016 104.145305 
L 508.403982 104.78791 
L 508.875249 104.540469 
L 509.344831 105.194045 
L 509.812738 108.085584 
L 510.278983 108.368423 
L 510.743578 109.28499 
L 511.206534 109.202002 
L 511.667863 110.860735 
L 512.127576 110.447158 
L 512.585684 113.399318 
L 513.497132 113.639544 
L 514.852544 117.865196 
L 515.301255 117.750239 
L 515.748437 119.834691 
L 516.194101 119.430488 
L 516.638257 121.279416 
L 517.080915 123.834928 
L 517.522084 123.312609 
L 517.961776 126.42535 
L 518.4 127.673706 
L 518.4 127.673706 
" clip-path="url(#p1061735c9d)" style="fill: none; stroke: #ff7f0e; stroke-width: 1.5; stroke-linecap: square"/>
   </g>
   <g id="patch_3">
    <path d="M 72 378 
L 72 51.84 
" style="fill: none; stroke: #000000; stroke-width: 0.8; stroke-linejoin: miter; stroke-linecap: square"/>
   </g>
   <g id="patch_4">
    <path d="M 518.4 378 
L 518.4 51.84 
" style="fill: none; stroke: #000000; stroke-width: 0.8; stroke-linejoin: miter; stroke-linecap: square"/>
   </g>
   <g id="patch_5">
    <path d="M 72 378 
L 518.4 378 
" style="fill: none; stroke: #000000; stroke-width: 0.8; stroke-linejoin: miter; stroke-linecap: square"/>
   </g>
   <g id="patch_6">
    <path d="M 72 51.84 
L 518.4 51.84 
" style="fill: none; stroke: #000000; stroke-width: 0.8; stroke-linejoin: miter; stroke-linecap: square"/>
   </g>
   <g id="legend_1">
    <g id="patch_7">
     <path d="M 381.9375 372 
L 510 372 
Q 512.4 372 512.4 369.6 
L 512.4 335.5725 
Q 512.4 333.1725 510 333.1725 
L 381.9375 333.1725 
Q 379.5375 333.1725 379.5375 335.5725 
L 379.5375 369.6 
Q 379.5375 372 381.9375 372 
z
" style="fill: #ffffff; opacity: 0.8; stroke: #cccccc; stroke-linejoin: miter"/>
    </g>
    <g id="line2d_33">
     <path d="M 384.3375 342.890625 
L 396.3375 342.890625 
L 408.3375 342.890625 
" style="fill: none; stroke: #1f77b4; stroke-width: 1.5; stroke-linecap: square"/>
    </g>
    <g id="text_7">
     <!-- Exact solution -->
     <g transform="translate(417.9375 347.090625)scale(0.12 -0.12)">
      <defs>
       <path id="DejaVuSans-45" d="M 628 4666 
L 3578 4666 
L 3578 4134 
L 1259 4134 
L 1259 2753 
L 3481 2753 
L 3481 2222 
L 1259 2222 
L 1259 531 
L 3634 531 
L 3634 0 
L 628 0 
L 628 4666 
z
" transform="scale(0.015625)"/>
       <path id="DejaVuSans-78" d="M 3513 3500 
L 2247 1797 
L 3578 0 
L 2900 0 
L 1881 1375 
L 863 0 
L 184 0 
L 1544 1831 
L 300 3500 
L 978 3500 
L 1906 2253 
L 2834 3500 
L 3513 3500 
z
" transform="scale(0.015625)"/>
       <path id="DejaVuSans-61" d="M 2194 1759 
Q 1497 1759 1228 1600 
Q 959 1441 959 1056 
Q 959 750 1161 570 
Q 1363 391 1709 391 
Q 2188 391 2477 730 
Q 2766 1069 2766 1631 
L 2766 1759 
L 2194 1759 
z
M 3341 1997 
L 3341 0 
L 2766 0 
L 2766 531 
Q 2569 213 2275 61 
Q 1981 -91 1556 -91 
Q 1019 -91 701 211 
Q 384 513 384 1019 
Q 384 1609 779 1909 
Q 1175 2209 1959 2209 
L 2766 2209 
L 2766 2266 
Q 2766 2663 2505 2880 
Q 2244 3097 1772 3097 
Q 1472 3097 1187 3025 
Q 903 2953 641 2809 
L 641 3341 
Q 956 3463 1253 3523 
Q 1550 3584 1831 3584 
Q 2591 3584 2966 3190 
Q 3341 2797 3341 1997 
z
" transform="scale(0.015625)"/>
       <path id="DejaVuSans-63" d="M 3122 3366 
L 3122 2828 
Q 2878 2963 2633 3030 
Q 2388 3097 2138 3097 
Q 1578 3097 1268 2742 
Q 959 2388 959 1747 
Q 959 1106 1268 751 
Q 1578 397 2138 397 
Q 2388 397 2633 464 
Q 2878 531 3122 666 
L 3122 134 
Q 2881 22 2623 -34 
Q 2366 -91 2075 -91 
Q 1284 -91 818 406 
Q 353 903 353 1747 
Q 353 2603 823 3093 
Q 1294 3584 2113 3584 
Q 2378 3584 2631 3529 
Q 2884 3475 3122 3366 
z
" transform="scale(0.015625)"/>
       <path id="DejaVuSans-20" transform="scale(0.015625)"/>
       <path id="DejaVuSans-73" d="M 2834 3397 
L 2834 2853 
Q 2591 2978 2328 3040 
Q 2066 3103 1784 3103 
Q 1356 3103 1142 2972 
Q 928 2841 928 2578 
Q 928 2378 1081 2264 
Q 1234 2150 1697 2047 
L 1894 2003 
Q 2506 1872 2764 1633 
Q 3022 1394 3022 966 
Q 3022 478 2636 193 
Q 2250 -91 1575 -91 
Q 1294 -91 989 -36 
Q 684 19 347 128 
L 347 722 
Q 666 556 975 473 
Q 1284 391 1588 391 
Q 1994 391 2212 530 
Q 2431 669 2431 922 
Q 2431 1156 2273 1281 
Q 2116 1406 1581 1522 
L 1381 1569 
Q 847 1681 609 1914 
Q 372 2147 372 2553 
Q 372 3047 722 3315 
Q 1072 3584 1716 3584 
Q 2034 3584 2315 3537 
Q 2597 3491 2834 3397 
z
" transform="scale(0.015625)"/>
       <path id="DejaVuSans-6f" d="M 1959 3097 
Q 1497 3097 1228 2736 
Q 959 2375 959 1747 
Q 959 1119 1226 758 
Q 1494 397 1959 397 
Q 2419 397 2687 759 
Q 2956 1122 2956 1747 
Q 2956 2369 2687 2733 
Q 2419 3097 1959 3097 
z
M 1959 3584 
Q 2709 3584 3137 3096 
Q 3566 2609 3566 1747 
Q 3566 888 3137 398 
Q 2709 -91 1959 -91 
Q 1206 -91 779 398 
Q 353 888 353 1747 
Q 353 2609 779 3096 
Q 1206 3584 1959 3584 
z
" transform="scale(0.015625)"/>
       <path id="DejaVuSans-6c" d="M 603 4863 
L 1178 4863 
L 1178 0 
L 603 0 
L 603 4863 
z
" transform="scale(0.015625)"/>
       <path id="DejaVuSans-75" d="M 544 1381 
L 544 3500 
L 1119 3500 
L 1119 1403 
Q 1119 906 1312 657 
Q 1506 409 1894 409 
Q 2359 409 2629 706 
Q 2900 1003 2900 1516 
L 2900 3500 
L 3475 3500 
L 3475 0 
L 2900 0 
L 2900 538 
Q 2691 219 2414 64 
Q 2138 -91 1772 -91 
Q 1169 -91 856 284 
Q 544 659 544 1381 
z
M 1991 3584 
L 1991 3584 
z
" transform="scale(0.015625)"/>
       <path id="DejaVuSans-69" d="M 603 3500 
L 1178 3500 
L 1178 0 
L 603 0 
L 603 3500 
z
M 603 4863 
L 1178 4863 
L 1178 4134 
L 603 4134 
L 603 4863 
z
" transform="scale(0.015625)"/>
       <path id="DejaVuSans-6e" d="M 3513 2113 
L 3513 0 
L 2938 0 
L 2938 2094 
Q 2938 2591 2744 2837 
Q 2550 3084 2163 3084 
Q 1697 3084 1428 2787 
Q 1159 2491 1159 1978 
L 1159 0 
L 581 0 
L 581 3500 
L 1159 3500 
L 1159 2956 
Q 1366 3272 1645 3428 
Q 1925 3584 2291 3584 
Q 2894 3584 3203 3211 
Q 3513 2838 3513 2113 
z
" transform="scale(0.015625)"/>
      </defs>
      <use xlink:href="#DejaVuSans-45"/>
      <use xlink:href="#DejaVuSans-78" x="63.183594"/>
      <use xlink:href="#DejaVuSans-61" x="122.363281"/>
      <use xlink:href="#DejaVuSans-63" x="183.642578"/>
      <use xlink:href="#DejaVuSans-74" x="238.623047"/>
      <use xlink:href="#DejaVuSans-20" x="277.832031"/>
      <use xlink:href="#DejaVuSans-73" x="309.619141"/>
      <use xlink:href="#DejaVuSans-6f" x="361.71875"/>
      <use xlink:href="#DejaVuSans-6c" x="422.900391"/>
      <use xlink:href="#DejaVuSans-75" x="450.683594"/>
      <use xlink:href="#DejaVuSans-74" x="514.0625"/>
      <use xlink:href="#DejaVuSans-69" x="553.271484"/>
      <use xlink:href="#DejaVuSans-6f" x="581.054688"/>
      <use xlink:href="#DejaVuSans-6e" x="642.236328"/>
     </g>
    </g>
    <g id="line2d_34">
     <path d="M 384.3375 360.504375 
L 396.3375 360.504375 
L 408.3375 360.504375 
" style="fill: none; stroke: #ff7f0e; stroke-width: 1.5; stroke-linecap: square"/>
    </g>
    <g id="text_8">
     <!-- QASM-10-layer -->
     <g transform="translate(417.9375 364.704375)scale(0.12 -0.12)">
      <defs>
       <path id="DejaVuSans-51" d="M 2522 4238 
Q 1834 4238 1429 3725 
Q 1025 3213 1025 2328 
Q 1025 1447 1429 934 
Q 1834 422 2522 422 
Q 3209 422 3611 934 
Q 4013 1447 4013 2328 
Q 4013 3213 3611 3725 
Q 3209 4238 2522 4238 
z
M 3406 84 
L 4238 -825 
L 3475 -825 
L 2784 -78 
Q 2681 -84 2626 -87 
Q 2572 -91 2522 -91 
Q 1538 -91 948 567 
Q 359 1225 359 2328 
Q 359 3434 948 4092 
Q 1538 4750 2522 4750 
Q 3503 4750 4090 4092 
Q 4678 3434 4678 2328 
Q 4678 1516 4351 937 
Q 4025 359 3406 84 
z
" transform="scale(0.015625)"/>
       <path id="DejaVuSans-41" d="M 2188 4044 
L 1331 1722 
L 3047 1722 
L 2188 4044 
z
M 1831 4666 
L 2547 4666 
L 4325 0 
L 3669 0 
L 3244 1197 
L 1141 1197 
L 716 0 
L 50 0 
L 1831 4666 
z
" transform="scale(0.015625)"/>
       <path id="DejaVuSans-2d" d="M 313 2009 
L 1997 2009 
L 1997 1497 
L 313 1497 
L 313 2009 
z
" transform="scale(0.015625)"/>
       <path id="DejaVuSans-79" d="M 2059 -325 
Q 1816 -950 1584 -1140 
Q 1353 -1331 966 -1331 
L 506 -1331 
L 506 -850 
L 844 -850 
Q 1081 -850 1212 -737 
Q 1344 -625 1503 -206 
L 1606 56 
L 191 3500 
L 800 3500 
L 1894 763 
L 2988 3500 
L 3597 3500 
L 2059 -325 
z
" transform="scale(0.015625)"/>
       <path id="DejaVuSans-65" d="M 3597 1894 
L 3597 1613 
L 953 1613 
Q 991 1019 1311 708 
Q 1631 397 2203 397 
Q 2534 397 2845 478 
Q 3156 559 3463 722 
L 3463 178 
Q 3153 47 2828 -22 
Q 2503 -91 2169 -91 
Q 1331 -91 842 396 
Q 353 884 353 1716 
Q 353 2575 817 3079 
Q 1281 3584 2069 3584 
Q 2775 3584 3186 3129 
Q 3597 2675 3597 1894 
z
M 3022 2063 
Q 3016 2534 2758 2815 
Q 2500 3097 2075 3097 
Q 1594 3097 1305 2825 
Q 1016 2553 972 2059 
L 3022 2063 
z
" transform="scale(0.015625)"/>
       <path id="DejaVuSans-72" d="M 2631 2963 
Q 2534 3019 2420 3045 
Q 2306 3072 2169 3072 
Q 1681 3072 1420 2755 
Q 1159 2438 1159 1844 
L 1159 0 
L 581 0 
L 581 3500 
L 1159 3500 
L 1159 2956 
Q 1341 3275 1631 3429 
Q 1922 3584 2338 3584 
Q 2397 3584 2469 3576 
Q 2541 3569 2628 3553 
L 2631 2963 
z
" transform="scale(0.015625)"/>
      </defs>
      <use xlink:href="#DejaVuSans-51"/>
      <use xlink:href="#DejaVuSans-41" x="78.710938"/>
      <use xlink:href="#DejaVuSans-53" x="147.119141"/>
      <use xlink:href="#DejaVuSans-4d" x="210.595703"/>
      <use xlink:href="#DejaVuSans-2d" x="296.875"/>
      <use xlink:href="#DejaVuSans-31" x="332.958984"/>
      <use xlink:href="#DejaVuSans-30" x="396.582031"/>
      <use xlink:href="#DejaVuSans-2d" x="460.205078"/>
      <use xlink:href="#DejaVuSans-6c" x="496.289062"/>
      <use xlink:href="#DejaVuSans-61" x="524.072266"/>
      <use xlink:href="#DejaVuSans-79" x="585.351562"/>
      <use xlink:href="#DejaVuSans-65" x="644.53125"/>
      <use xlink:href="#DejaVuSans-72" x="706.054688"/>
     </g>
    </g>
   </g>
  </g>
 </g>
 <defs>
  <clipPath id="p1061735c9d">
   <rect x="72" y="51.84" width="446.4" height="326.16"/>
  </clipPath>
 </defs>
</svg>
