<?xml version="1.0" encoding="utf-8" standalone="no"?>
<!DOCTYPE svg PUBLIC "-//W3C//DTD SVG 1.1//EN"
  "http://www.w3.org/Graphics/SVG/1.1/DTD/svg11.dtd">
<svg xmlns:xlink="http://www.w3.org/1999/xlink" width="576pt" height="432pt" viewBox="0 0 576 432" xmlns="http://www.w3.org/2000/svg" version="1.1">
 <metadata>
  <rdf:RDF xmlns:dc="http://purl.org/dc/elements/1.1/" xmlns:cc="http://creativecommons.org/ns#" xmlns:rdf="http://www.w3.org/1999/02/22-rdf-syntax-ns#">
   <cc:Work>
    <dc:type rdf:resource="http://purl.org/dc/dcmitype/StillImage"/>
    <dc:date>2022-06-14T15:41:57.176007</dc:date>
    <dc:format>image/svg+xml</dc:format>
    <dc:creator>
     <cc:Agent>
      <dc:title>Matplotlib v3.5.1, https://matplotlib.org/</dc:title>
     </cc:Agent>
    </dc:creator>
   </cc:Work>
  </rdf:RDF>
 </metadata>
 <defs>
  <style type="text/css">*{stroke-linejoin: round; stroke-linecap: butt}</style>
 </defs>
 <g id="figure_1">
  <g id="patch_1">
   <path d="M 0 432 
L 576 432 
L 576 0 
L 0 0 
L 0 432 
z
" style="fill: none"/>
  </g>
  <g id="axes_1">
   <g id="patch_2">
    <path d="M 72 378 
L 518.4 378 
L 518.4 51.84 
L 72 51.84 
z
" style="fill: #ffffff"/>
   </g>
   <g id="matplotlib.axis_1">
    <g id="xtick_1">
     <g id="line2d_1">
      <defs>
       <path id="m7c18e6a5b5" d="M 0 0 
L 0 3.5 
" style="stroke: #000000; stroke-width: 0.8"/>
      </defs>
      <g>
       <use xlink:href="#m7c18e6a5b5" x="72" y="378" style="stroke: #000000; stroke-width: 0.8"/>
      </g>
     </g>
     <g id="text_1">
      <!-- 0 -->
      <g transform="translate(68.1825 394.118125)scale(0.12 -0.12)">
       <defs>
        <path id="DejaVuSans-30" d="M 2034 4250 
Q 1547 4250 1301 3770 
Q 1056 3291 1056 2328 
Q 1056 1369 1301 889 
Q 1547 409 2034 409 
Q 2525 409 2770 889 
Q 3016 1369 3016 2328 
Q 3016 3291 2770 3770 
Q 2525 4250 2034 4250 
z
M 2034 4750 
Q 2819 4750 3233 4129 
Q 3647 3509 3647 2328 
Q 3647 1150 3233 529 
Q 2819 -91 2034 -91 
Q 1250 -91 836 529 
Q 422 1150 422 2328 
Q 422 3509 836 4129 
Q 1250 4750 2034 4750 
z
" transform="scale(0.015625)"/>
       </defs>
       <use xlink:href="#DejaVuSans-30"/>
      </g>
     </g>
    </g>
    <g id="xtick_2">
     <g id="line2d_2">
      <g>
       <use xlink:href="#m7c18e6a5b5" x="131.52" y="378" style="stroke: #000000; stroke-width: 0.8"/>
      </g>
     </g>
     <g id="text_2">
      <!-- 2 -->
      <g transform="translate(127.7025 394.118125)scale(0.12 -0.12)">
       <defs>
        <path id="DejaVuSans-32" d="M 1228 531 
L 3431 531 
L 3431 0 
L 469 0 
L 469 531 
Q 828 903 1448 1529 
Q 2069 2156 2228 2338 
Q 2531 2678 2651 2914 
Q 2772 3150 2772 3378 
Q 2772 3750 2511 3984 
Q 2250 4219 1831 4219 
Q 1534 4219 1204 4116 
Q 875 4013 500 3803 
L 500 4441 
Q 881 4594 1212 4672 
Q 1544 4750 1819 4750 
Q 2544 4750 2975 4387 
Q 3406 4025 3406 3419 
Q 3406 3131 3298 2873 
Q 3191 2616 2906 2266 
Q 2828 2175 2409 1742 
Q 1991 1309 1228 531 
z
" transform="scale(0.015625)"/>
       </defs>
       <use xlink:href="#DejaVuSans-32"/>
      </g>
     </g>
    </g>
    <g id="xtick_3">
     <g id="line2d_3">
      <g>
       <use xlink:href="#m7c18e6a5b5" x="191.04" y="378" style="stroke: #000000; stroke-width: 0.8"/>
      </g>
     </g>
     <g id="text_3">
      <!-- 4 -->
      <g transform="translate(187.2225 394.118125)scale(0.12 -0.12)">
       <defs>
        <path id="DejaVuSans-34" d="M 2419 4116 
L 825 1625 
L 2419 1625 
L 2419 4116 
z
M 2253 4666 
L 3047 4666 
L 3047 1625 
L 3713 1625 
L 3713 1100 
L 3047 1100 
L 3047 0 
L 2419 0 
L 2419 1100 
L 313 1100 
L 313 1709 
L 2253 4666 
z
" transform="scale(0.015625)"/>
       </defs>
       <use xlink:href="#DejaVuSans-34"/>
      </g>
     </g>
    </g>
    <g id="xtick_4">
     <g id="line2d_4">
      <g>
       <use xlink:href="#m7c18e6a5b5" x="250.56" y="378" style="stroke: #000000; stroke-width: 0.8"/>
      </g>
     </g>
     <g id="text_4">
      <!-- 6 -->
      <g transform="translate(246.7425 394.118125)scale(0.12 -0.12)">
       <defs>
        <path id="DejaVuSans-36" d="M 2113 2584 
Q 1688 2584 1439 2293 
Q 1191 2003 1191 1497 
Q 1191 994 1439 701 
Q 1688 409 2113 409 
Q 2538 409 2786 701 
Q 3034 994 3034 1497 
Q 3034 2003 2786 2293 
Q 2538 2584 2113 2584 
z
M 3366 4563 
L 3366 3988 
Q 3128 4100 2886 4159 
Q 2644 4219 2406 4219 
Q 1781 4219 1451 3797 
Q 1122 3375 1075 2522 
Q 1259 2794 1537 2939 
Q 1816 3084 2150 3084 
Q 2853 3084 3261 2657 
Q 3669 2231 3669 1497 
Q 3669 778 3244 343 
Q 2819 -91 2113 -91 
Q 1303 -91 875 529 
Q 447 1150 447 2328 
Q 447 3434 972 4092 
Q 1497 4750 2381 4750 
Q 2619 4750 2861 4703 
Q 3103 4656 3366 4563 
z
" transform="scale(0.015625)"/>
       </defs>
       <use xlink:href="#DejaVuSans-36"/>
      </g>
     </g>
    </g>
    <g id="xtick_5">
     <g id="line2d_5">
      <g>
       <use xlink:href="#m7c18e6a5b5" x="310.08" y="378" style="stroke: #000000; stroke-width: 0.8"/>
      </g>
     </g>
     <g id="text_5">
      <!-- 8 -->
      <g transform="translate(306.2625 394.118125)scale(0.12 -0.12)">
       <defs>
        <path id="DejaVuSans-38" d="M 2034 2216 
Q 1584 2216 1326 1975 
Q 1069 1734 1069 1313 
Q 1069 891 1326 650 
Q 1584 409 2034 409 
Q 2484 409 2743 651 
Q 3003 894 3003 1313 
Q 3003 1734 2745 1975 
Q 2488 2216 2034 2216 
z
M 1403 2484 
Q 997 2584 770 2862 
Q 544 3141 544 3541 
Q 544 4100 942 4425 
Q 1341 4750 2034 4750 
Q 2731 4750 3128 4425 
Q 3525 4100 3525 3541 
Q 3525 3141 3298 2862 
Q 3072 2584 2669 2484 
Q 3125 2378 3379 2068 
Q 3634 1759 3634 1313 
Q 3634 634 3220 271 
Q 2806 -91 2034 -91 
Q 1263 -91 848 271 
Q 434 634 434 1313 
Q 434 1759 690 2068 
Q 947 2378 1403 2484 
z
M 1172 3481 
Q 1172 3119 1398 2916 
Q 1625 2713 2034 2713 
Q 2441 2713 2670 2916 
Q 2900 3119 2900 3481 
Q 2900 3844 2670 4047 
Q 2441 4250 2034 4250 
Q 1625 4250 1398 4047 
Q 1172 3844 1172 3481 
z
" transform="scale(0.015625)"/>
       </defs>
       <use xlink:href="#DejaVuSans-38"/>
      </g>
     </g>
    </g>
    <g id="xtick_6">
     <g id="line2d_6">
      <g>
       <use xlink:href="#m7c18e6a5b5" x="369.6" y="378" style="stroke: #000000; stroke-width: 0.8"/>
      </g>
     </g>
     <g id="text_6">
      <!-- 10 -->
      <g transform="translate(361.965 394.118125)scale(0.12 -0.12)">
       <defs>
        <path id="DejaVuSans-31" d="M 794 531 
L 1825 531 
L 1825 4091 
L 703 3866 
L 703 4441 
L 1819 4666 
L 2450 4666 
L 2450 531 
L 3481 531 
L 3481 0 
L 794 0 
L 794 531 
z
" transform="scale(0.015625)"/>
       </defs>
       <use xlink:href="#DejaVuSans-31"/>
       <use xlink:href="#DejaVuSans-30" x="63.623047"/>
      </g>
     </g>
    </g>
    <g id="xtick_7">
     <g id="line2d_7">
      <g>
       <use xlink:href="#m7c18e6a5b5" x="429.12" y="378" style="stroke: #000000; stroke-width: 0.8"/>
      </g>
     </g>
     <g id="text_7">
      <!-- 12 -->
      <g transform="translate(421.485 394.118125)scale(0.12 -0.12)">
       <use xlink:href="#DejaVuSans-31"/>
       <use xlink:href="#DejaVuSans-32" x="63.623047"/>
      </g>
     </g>
    </g>
    <g id="xtick_8">
     <g id="line2d_8">
      <g>
       <use xlink:href="#m7c18e6a5b5" x="488.64" y="378" style="stroke: #000000; stroke-width: 0.8"/>
      </g>
     </g>
     <g id="text_8">
      <!-- 14 -->
      <g transform="translate(481.005 394.118125)scale(0.12 -0.12)">
       <use xlink:href="#DejaVuSans-31"/>
       <use xlink:href="#DejaVuSans-34" x="63.623047"/>
      </g>
     </g>
    </g>
    <g id="text_9">
     <!-- t -->
     <g transform="translate(292.847812 409.731875)scale(0.12 -0.12)">
      <defs>
       <path id="DejaVuSans-74" d="M 1172 4494 
L 1172 3500 
L 2356 3500 
L 2356 3053 
L 1172 3053 
L 1172 1153 
Q 1172 725 1289 603 
Q 1406 481 1766 481 
L 2356 481 
L 2356 0 
L 1766 0 
Q 1100 0 847 248 
Q 594 497 594 1153 
L 594 3053 
L 172 3053 
L 172 3500 
L 594 3500 
L 594 4494 
L 1172 4494 
z
" transform="scale(0.015625)"/>
      </defs>
      <use xlink:href="#DejaVuSans-74"/>
     </g>
    </g>
   </g>
   <g id="matplotlib.axis_2">
    <g id="ytick_1">
     <g id="line2d_9">
      <defs>
       <path id="mb273ef3b8e" d="M 0 0 
L -3.5 0 
" style="stroke: #000000; stroke-width: 0.8"/>
      </defs>
      <g>
       <use xlink:href="#mb273ef3b8e" x="72" y="378" style="stroke: #000000; stroke-width: 0.8"/>
      </g>
     </g>
     <g id="text_10">
      <!-- 0 -->
      <g transform="translate(57.365 382.559062)scale(0.12 -0.12)">
       <use xlink:href="#DejaVuSans-30"/>
      </g>
     </g>
    </g>
    <g id="ytick_2">
     <g id="line2d_10">
      <g>
       <use xlink:href="#mb273ef3b8e" x="72" y="334.512" style="stroke: #000000; stroke-width: 0.8"/>
      </g>
     </g>
     <g id="text_11">
      <!-- 20 -->
      <g transform="translate(49.73 339.071062)scale(0.12 -0.12)">
       <use xlink:href="#DejaVuSans-32"/>
       <use xlink:href="#DejaVuSans-30" x="63.623047"/>
      </g>
     </g>
    </g>
    <g id="ytick_3">
     <g id="line2d_11">
      <g>
       <use xlink:href="#mb273ef3b8e" x="72" y="291.024" style="stroke: #000000; stroke-width: 0.8"/>
      </g>
     </g>
     <g id="text_12">
      <!-- 40 -->
      <g transform="translate(49.73 295.583062)scale(0.12 -0.12)">
       <use xlink:href="#DejaVuSans-34"/>
       <use xlink:href="#DejaVuSans-30" x="63.623047"/>
      </g>
     </g>
    </g>
    <g id="ytick_4">
     <g id="line2d_12">
      <g>
       <use xlink:href="#mb273ef3b8e" x="72" y="247.536" style="stroke: #000000; stroke-width: 0.8"/>
      </g>
     </g>
     <g id="text_13">
      <!-- 60 -->
      <g transform="translate(49.73 252.095062)scale(0.12 -0.12)">
       <use xlink:href="#DejaVuSans-36"/>
       <use xlink:href="#DejaVuSans-30" x="63.623047"/>
      </g>
     </g>
    </g>
    <g id="ytick_5">
     <g id="line2d_13">
      <g>
       <use xlink:href="#mb273ef3b8e" x="72" y="204.048" style="stroke: #000000; stroke-width: 0.8"/>
      </g>
     </g>
     <g id="text_14">
      <!-- 80 -->
      <g transform="translate(49.73 208.607062)scale(0.12 -0.12)">
       <use xlink:href="#DejaVuSans-38"/>
       <use xlink:href="#DejaVuSans-30" x="63.623047"/>
      </g>
     </g>
    </g>
    <g id="ytick_6">
     <g id="line2d_14">
      <g>
       <use xlink:href="#mb273ef3b8e" x="72" y="160.56" style="stroke: #000000; stroke-width: 0.8"/>
      </g>
     </g>
     <g id="text_15">
      <!-- 100 -->
      <g transform="translate(42.095 165.119062)scale(0.12 -0.12)">
       <use xlink:href="#DejaVuSans-31"/>
       <use xlink:href="#DejaVuSans-30" x="63.623047"/>
       <use xlink:href="#DejaVuSans-30" x="127.246094"/>
      </g>
     </g>
    </g>
    <g id="ytick_7">
     <g id="line2d_15">
      <g>
       <use xlink:href="#mb273ef3b8e" x="72" y="117.072" style="stroke: #000000; stroke-width: 0.8"/>
      </g>
     </g>
     <g id="text_16">
      <!-- 120 -->
      <g transform="translate(42.095 121.631062)scale(0.12 -0.12)">
       <use xlink:href="#DejaVuSans-31"/>
       <use xlink:href="#DejaVuSans-32" x="63.623047"/>
       <use xlink:href="#DejaVuSans-30" x="127.246094"/>
      </g>
     </g>
    </g>
    <g id="ytick_8">
     <g id="line2d_16">
      <g>
       <use xlink:href="#mb273ef3b8e" x="72" y="73.584" style="stroke: #000000; stroke-width: 0.8"/>
      </g>
     </g>
     <g id="text_17">
      <!-- 140 -->
      <g transform="translate(42.095 78.143062)scale(0.12 -0.12)">
       <use xlink:href="#DejaVuSans-31"/>
       <use xlink:href="#DejaVuSans-34" x="63.623047"/>
       <use xlink:href="#DejaVuSans-30" x="127.246094"/>
      </g>
     </g>
    </g>
    <g id="text_18">
     <!-- MSD -->
     <g transform="translate(35.599375 228.525937)rotate(-90)scale(0.12 -0.12)">
      <defs>
       <path id="DejaVuSans-4d" d="M 628 4666 
L 1569 4666 
L 2759 1491 
L 3956 4666 
L 4897 4666 
L 4897 0 
L 4281 0 
L 4281 4097 
L 3078 897 
L 2444 897 
L 1241 4097 
L 1241 0 
L 628 0 
L 628 4666 
z
" transform="scale(0.015625)"/>
       <path id="DejaVuSans-53" d="M 3425 4513 
L 3425 3897 
Q 3066 4069 2747 4153 
Q 2428 4238 2131 4238 
Q 1616 4238 1336 4038 
Q 1056 3838 1056 3469 
Q 1056 3159 1242 3001 
Q 1428 2844 1947 2747 
L 2328 2669 
Q 3034 2534 3370 2195 
Q 3706 1856 3706 1288 
Q 3706 609 3251 259 
Q 2797 -91 1919 -91 
Q 1588 -91 1214 -16 
Q 841 59 441 206 
L 441 856 
Q 825 641 1194 531 
Q 1563 422 1919 422 
Q 2459 422 2753 634 
Q 3047 847 3047 1241 
Q 3047 1584 2836 1778 
Q 2625 1972 2144 2069 
L 1759 2144 
Q 1053 2284 737 2584 
Q 422 2884 422 3419 
Q 422 4038 858 4394 
Q 1294 4750 2059 4750 
Q 2388 4750 2728 4690 
Q 3069 4631 3425 4513 
z
" transform="scale(0.015625)"/>
       <path id="DejaVuSans-44" d="M 1259 4147 
L 1259 519 
L 2022 519 
Q 2988 519 3436 956 
Q 3884 1394 3884 2338 
Q 3884 3275 3436 3711 
Q 2988 4147 2022 4147 
L 1259 4147 
z
M 628 4666 
L 1925 4666 
Q 3281 4666 3915 4102 
Q 4550 3538 4550 2338 
Q 4550 1131 3912 565 
Q 3275 0 1925 0 
L 628 0 
L 628 4666 
z
" transform="scale(0.015625)"/>
      </defs>
      <use xlink:href="#DejaVuSans-4d"/>
      <use xlink:href="#DejaVuSans-53" x="86.279297"/>
      <use xlink:href="#DejaVuSans-44" x="149.755859"/>
     </g>
    </g>
   </g>
   <g id="line2d_17">
    <path d="M 72.2976 377.995705 
L 73.7856 377.841415 
L 75.2736 377.435957 
L 76.464 376.884996 
L 77.6544 376.083472 
L 78.8448 374.984615 
L 80.0352 373.547658 
L 81.2256 371.742276 
L 82.416 369.549319 
L 83.904 366.247294 
L 85.392 362.31047 
L 86.88 357.726177 
L 88.368 352.480125 
L 90.1536 345.295479 
L 91.9392 337.133095 
L 93.7248 327.991685 
L 95.808 316.08307 
L 97.8912 302.821968 
L 99.9744 288.201713 
L 102.3552 269.836721 
L 104.736 249.735198 
L 107.4144 225.176849 
L 110.688 192.979847 
L 116.9376 130.939939 
L 119.3184 109.898716 
L 121.104 96.063144 
L 122.592 86.222122 
L 123.7824 79.664503 
L 124.9728 74.401795 
L 125.8656 71.342848 
L 126.7584 69.047335 
L 127.6512 67.493206 
L 128.2464 66.849044 
L 128.8416 66.499777 
L 129.4368 66.426807 
L 130.032 66.610044 
L 130.6272 67.028589 
L 131.52 68.05128 
L 132.4128 69.484652 
L 133.6032 71.913126 
L 135.0912 75.544045 
L 140.7456 90.130822 
L 143.7216 96.611615 
L 149.376 108.514412 
L 150.864 110.977994 
L 152.352 112.961569 
L 153.84 114.516132 
L 155.328 115.713372 
L 156.816 116.585686 
L 158.0064 117.040588 
L 159.1968 117.259272 
L 160.3872 117.220266 
L 161.5776 116.900856 
L 162.768 116.277097 
L 163.9584 115.329759 
L 165.1488 114.057974 
L 166.6368 112.064754 
L 168.72 108.794003 
L 172.8864 102.164149 
L 177.648 95.118396 
L 179.7312 92.350148 
L 181.5168 90.35041 
L 183.0048 89.053122 
L 184.1952 88.334353 
L 185.088 88.029377 
L 185.9808 87.964266 
L 186.8736 88.174625 
L 187.7664 88.693109 
L 188.6592 89.546898 
L 189.552 90.755899 
L 190.4448 92.331495 
L 191.6352 95.004264 
L 192.8256 98.306149 
L 194.3136 103.225392 
L 196.0992 110.049821 
L 198.48 120.156104 
L 201.456 133.746763 
L 204.7296 149.739522 
L 209.7888 174.614179 
L 211.872 183.705645 
L 213.9552 191.766079 
L 216.0384 198.871542 
L 218.1216 205.19237 
L 220.2048 210.847531 
L 222.288 215.917052 
L 224.6688 221.142724 
L 227.0496 225.889266 
L 229.1328 229.608881 
L 231.216 232.854199 
L 233.2992 235.664864 
L 235.3824 238.12083 
L 237.168 239.920455 
L 238.656 241.124501 
L 239.8464 241.83474 
L 241.0368 242.273861 
L 241.9296 242.400766 
L 242.8224 242.335711 
L 243.7152 242.062802 
L 244.608 241.567579 
L 245.5008 240.838359 
L 246.3936 239.867784 
L 247.584 238.196117 
L 248.7744 236.105687 
L 250.2624 232.949298 
L 251.7504 229.260625 
L 253.536 224.236049 
L 255.6192 217.675277 
L 258 209.404736 
L 260.6784 199.288205 
L 263.6544 187.111722 
L 266.6304 173.929977 
L 273.7728 141.69095 
L 275.856 133.639741 
L 277.6416 127.605059 
L 279.4272 122.35441 
L 281.5104 116.989168 
L 288.0576 100.802918 
L 291.6288 91.517704 
L 293.1168 88.333494 
L 294.3072 86.275756 
L 295.4976 84.644096 
L 296.9856 83.045746 
L 300.2592 79.797856 
L 301.7472 77.948444 
L 306.2112 72.058223 
L 307.4016 71.046468 
L 308.2944 70.582444 
L 309.1872 70.393132 
L 310.08 70.477761 
L 310.9728 70.816361 
L 312.1632 71.59546 
L 313.6512 72.909653 
L 316.3296 75.324586 
L 317.52 76.095257 
L 318.7104 76.565608 
L 319.6032 76.705687 
L 320.496 76.665591 
L 321.6864 76.349578 
L 322.8768 75.765304 
L 324.3648 74.719236 
L 326.1504 73.119963 
L 331.2096 68.315558 
L 332.4 67.580749 
L 333.2928 67.240852 
L 334.1856 67.122282 
L 335.0784 67.25849 
L 335.9712 67.677913 
L 336.864 68.401636 
L 337.7568 69.441661 
L 338.6496 70.800391 
L 339.84 73.096296 
L 341.0304 75.917947 
L 342.5184 80.135055 
L 344.0064 85.081269 
L 345.4944 90.745185 
L 347.28 98.468136 
L 349.3632 108.57233 
L 356.5056 144.371928 
L 358.5888 153.169741 
L 360.3744 159.829103 
L 362.16 165.619855 
L 363.648 169.769357 
L 365.136 173.330738 
L 366.624 176.364089 
L 368.112 178.949308 
L 369.8976 181.572761 
L 371.6832 183.781254 
L 373.4688 185.664275 
L 375.552 187.561096 
L 378.2304 189.707131 
L 380.9088 191.575537 
L 382.992 192.760032 
L 388.3488 195.579395 
L 390.432 197.125323 
L 395.7888 201.346339 
L 397.2768 202.128193 
L 398.4672 202.465144 
L 399.36 202.506428 
L 400.2528 202.349329 
L 401.1456 201.995899 
L 402.336 201.257301 
L 403.824 200.041248 
L 407.0976 197.25585 
L 408.8832 196.061517 
L 413.9424 193.010273 
L 415.1328 191.950757 
L 416.3232 190.623458 
L 417.5136 188.994952 
L 419.0016 186.528219 
L 420.4896 183.609586 
L 422.2752 179.547307 
L 424.0608 174.850482 
L 425.8464 169.456043 
L 427.9296 162.316419 
L 431.2032 150.041753 
L 434.1792 139.128928 
L 435.9648 133.297668 
L 437.4528 129.143437 
L 438.6432 126.414748 
L 439.8336 124.289487 
L 440.7264 123.112967 
L 441.6192 122.296756 
L 442.512 121.833298 
L 443.4048 121.708529 
L 444.2976 121.903871 
L 445.1904 122.397159 
L 446.0832 123.162429 
L 447.2736 124.552187 
L 448.7616 126.757455 
L 450.8448 130.355469 
L 454.416 136.536855 
L 456.2016 139.190846 
L 457.6896 141.075069 
L 459.1776 142.621469 
L 460.368 143.594096 
L 461.5584 144.317754 
L 462.7488 144.784137 
L 463.9392 144.990207 
L 465.1296 144.939441 
L 466.32 144.643333 
L 467.5104 144.122474 
L 468.9984 143.201249 
L 470.784 141.801653 
L 475.5456 137.874722 
L 477.0336 137.070985 
L 478.224 136.668591 
L 479.712 136.412509 
L 482.688 136.030904 
L 483.8784 135.627878 
L 485.0688 134.964825 
L 486.2592 134.010887 
L 487.4496 132.76248 
L 488.9376 130.810138 
L 490.4256 128.477851 
L 492.8064 124.240467 
L 495.1872 120.052708 
L 496.6752 117.848407 
L 497.8656 116.444019 
L 499.056 115.39598 
L 500.2464 114.697388 
L 501.4368 114.308931 
L 502.6272 114.169425 
L 504.1152 114.240484 
L 505.9008 114.547516 
L 507.6864 115.062219 
L 508.8768 115.591992 
L 510.0672 116.36256 
L 511.2576 117.450898 
L 512.448 118.901073 
L 513.6384 120.705012 
L 515.1264 123.357341 
L 518.4 129.741934 
L 518.4 129.741934 
" clip-path="url(#pf636e03232)" style="fill: none; stroke: #1f77b4; stroke-width: 1.5; stroke-linecap: square"/>
   </g>
   <g id="line2d_18">
    <path d="M 72.2976 377.995708 
L 73.7856 377.845484 
L 75.2736 377.480641 
L 76.7616 376.901321 
L 78.2496 376.109191 
L 80.0352 374.888838 
L 82.1184 373.146676 
L 87.7728 368.1628 
L 89.2608 367.28623 
L 90.4512 366.817427 
L 91.6416 366.552022 
L 93.1296 366.452371 
L 97.5936 366.380312 
L 98.784 366.061432 
L 99.9744 365.525779 
L 101.1648 364.773504 
L 102.6528 363.573844 
L 105.0336 361.296209 
L 108.9024 357.569863 
L 113.9616 353.153373 
L 117.5328 350.177619 
L 119.0208 349.193519 
L 120.5088 348.486371 
L 121.9968 348.079774 
L 123.7824 347.894011 
L 126.1632 347.692452 
L 127.3536 347.372843 
L 128.544 346.788709 
L 129.7344 345.900747 
L 130.9248 344.726124 
L 132.7104 342.604837 
L 135.0912 339.810842 
L 136.2816 338.747717 
L 137.1744 338.180051 
L 138.0672 337.826099 
L 138.96 337.676778 
L 140.1504 337.740208 
L 141.936 338.138268 
L 143.424 338.41927 
L 144.6144 338.417805 
L 145.5072 338.228028 
L 146.6976 337.707216 
L 147.888 336.922112 
L 152.0544 333.822889 
L 152.9472 333.465467 
L 153.84 333.302441 
L 154.7328 333.33894 
L 155.6256 333.560372 
L 156.816 334.086167 
L 159.1968 335.495127 
L 160.6848 336.266906 
L 161.8752 336.675441 
L 163.0656 336.854945 
L 164.256 336.813638 
L 165.744 336.52397 
L 170.8032 335.285375 
L 172.8864 335.142558 
L 176.4576 334.948945 
L 178.2432 334.595403 
L 180.3264 333.92179 
L 183.8976 332.685084 
L 185.3856 332.403764 
L 186.8736 332.34614 
L 188.3616 332.49896 
L 191.04 333.06767 
L 193.1232 333.436995 
L 194.6112 333.499697 
L 196.0992 333.335619 
L 197.5872 332.942043 
L 199.3728 332.221295 
L 202.6464 330.565229 
L 205.6224 329.161606 
L 208.5984 328.045345 
L 212.4672 326.602919 
L 214.848 325.427234 
L 220.8 322.259692 
L 222.5856 321.708095 
L 224.6688 321.326986 
L 227.3472 320.830487 
L 228.8352 320.315707 
L 230.3232 319.53407 
L 231.8112 318.492325 
L 234.192 316.496729 
L 236.8704 314.328975 
L 238.656 313.196199 
L 240.4416 312.36117 
L 242.2272 311.768889 
L 244.3104 311.302595 
L 246.096 311.091689 
L 247.8816 311.11668 
L 249.3696 311.361219 
L 251.1552 311.908806 
L 255.024 313.259532 
L 256.2144 313.408268 
L 257.4048 313.3204 
L 258.5952 312.981464 
L 259.7856 312.421041 
L 261.8688 311.140525 
L 263.6544 310.11899 
L 264.8448 309.676305 
L 265.7376 309.531154 
L 266.6304 309.569222 
L 267.5232 309.795817 
L 268.7136 310.37362 
L 269.904 311.212573 
L 271.9872 313.041667 
L 274.368 315.109761 
L 275.856 316.125607 
L 277.344 316.844599 
L 278.832 317.281098 
L 280.6176 317.533054 
L 286.272 318.072589 
L 288.9504 318.667572 
L 293.712 319.760718 
L 295.7952 319.98842 
L 297.5808 319.938227 
L 299.0688 319.661513 
L 300.5568 319.13286 
L 302.0448 318.348263 
L 303.8304 317.135312 
L 307.6992 314.395427 
L 309.1872 313.678638 
L 310.3776 313.320056 
L 311.8656 313.114353 
L 314.544 313.079102 
L 316.3296 312.961597 
L 318.1152 312.607591 
L 322.2816 311.583837 
L 323.472 311.589695 
L 324.6624 311.832027 
L 325.8528 312.302092 
L 327.6384 313.300236 
L 330.0192 314.655933 
L 331.2096 315.125846 
L 332.4 315.383413 
L 333.5904 315.432676 
L 335.376 315.235596 
L 338.0544 314.916755 
L 339.5424 315.012371 
L 341.0304 315.379146 
L 342.816 316.103678 
L 346.9824 317.937396 
L 348.768 318.430346 
L 350.8512 318.750413 
L 353.232 318.876054 
L 355.3152 318.771573 
L 356.8032 318.495899 
L 358.2912 317.965351 
L 359.4816 317.309025 
L 360.672 316.422101 
L 362.16 314.990094 
L 363.9456 312.876413 
L 368.4096 307.273729 
L 369.6 306.167964 
L 370.7904 305.374402 
L 371.6832 305.000987 
L 372.576 304.812296 
L 373.7664 304.810032 
L 375.2544 305.0819 
L 377.9328 305.656184 
L 379.1232 305.690822 
L 380.3136 305.511564 
L 381.8016 305.014331 
L 385.6704 303.446893 
L 386.8608 303.263944 
L 388.0512 303.304364 
L 389.5392 303.606981 
L 392.5152 304.322275 
L 393.7056 304.358377 
L 394.896 304.166763 
L 396.384 303.649779 
L 399.36 302.446389 
L 400.5504 302.257484 
L 401.4432 302.3183 
L 402.336 302.568914 
L 403.5264 303.181664 
L 405.0144 304.285094 
L 408.288 306.895192 
L 409.4784 307.5403 
L 410.6688 307.925188 
L 411.8592 308.06324 
L 413.3472 307.984209 
L 416.6208 307.701761 
L 417.8112 307.829946 
L 419.0016 308.147297 
L 420.4896 308.781149 
L 424.9536 310.922091 
L 426.144 311.153992 
L 427.3344 311.145472 
L 428.5248 310.912039 
L 430.3104 310.28399 
L 432.3936 309.561428 
L 433.584 309.382274 
L 434.4768 309.430762 
L 435.3696 309.658023 
L 436.56 310.237211 
L 437.7504 311.083387 
L 440.1312 313.155309 
L 441.9168 314.545515 
L 443.1072 315.210946 
L 444.2976 315.631922 
L 445.7856 315.876742 
L 449.0592 316.252375 
L 450.2496 316.680964 
L 451.44 317.370716 
L 452.6304 318.314022 
L 454.416 320.065855 
L 457.392 323.053479 
L 458.88 324.220186 
L 460.368 325.075891 
L 461.856 325.666034 
L 464.5344 326.414042 
L 466.6176 327.0855 
L 468.4032 327.901727 
L 470.1888 328.987821 
L 471.9744 330.331998 
L 474.3552 332.438319 
L 479.1168 336.795803 
L 480.6048 337.856515 
L 482.0928 338.644906 
L 483.2832 339.058919 
L 484.7712 339.311314 
L 486.2592 339.30493 
L 488.0448 339.037199 
L 490.4256 338.420167 
L 494.2944 337.395703 
L 495.7824 337.20685 
L 497.2704 337.247266 
L 498.4608 337.487153 
L 499.6512 337.930756 
L 501.1392 338.765355 
L 502.9248 340.098659 
L 507.6864 343.922824 
L 509.1744 344.735239 
L 510.3648 345.167987 
L 511.5552 345.408518 
L 513.0432 345.471469 
L 514.8288 345.28917 
L 518.1024 344.642188 
L 518.4 344.581594 
L 518.4 344.581594 
" clip-path="url(#pf636e03232)" style="fill: none; stroke: #ff7f0e; stroke-width: 1.5; stroke-linecap: square"/>
   </g>
   <g id="patch_3">
    <path d="M 72 378 
L 72 51.84 
" style="fill: none; stroke: #000000; stroke-width: 0.8; stroke-linejoin: miter; stroke-linecap: square"/>
   </g>
   <g id="patch_4">
    <path d="M 518.4 378 
L 518.4 51.84 
" style="fill: none; stroke: #000000; stroke-width: 0.8; stroke-linejoin: miter; stroke-linecap: square"/>
   </g>
   <g id="patch_5">
    <path d="M 72 378 
L 518.4 378 
" style="fill: none; stroke: #000000; stroke-width: 0.8; stroke-linejoin: miter; stroke-linecap: square"/>
   </g>
   <g id="patch_6">
    <path d="M 72 51.84 
L 518.4 51.84 
" style="fill: none; stroke: #000000; stroke-width: 0.8; stroke-linejoin: miter; stroke-linecap: square"/>
   </g>
   <g id="legend_1">
    <g id="patch_7">
     <path d="M 336.575625 372 
L 510 372 
Q 512.4 372 512.4 369.6 
L 512.4 335.5725 
Q 512.4 333.1725 510 333.1725 
L 336.575625 333.1725 
Q 334.175625 333.1725 334.175625 335.5725 
L 334.175625 369.6 
Q 334.175625 372 336.575625 372 
z
" style="fill: #ffffff; opacity: 0.8; stroke: #cccccc; stroke-linejoin: miter"/>
    </g>
    <g id="line2d_19">
     <path d="M 338.975625 342.890625 
L 350.975625 342.890625 
L 362.975625 342.890625 
" style="fill: none; stroke: #1f77b4; stroke-width: 1.5; stroke-linecap: square"/>
    </g>
    <g id="text_19">
     <!-- Triangular Network -->
     <g transform="translate(372.575625 347.090625)scale(0.12 -0.12)">
      <defs>
       <path id="DejaVuSans-54" d="M -19 4666 
L 3928 4666 
L 3928 4134 
L 2272 4134 
L 2272 0 
L 1638 0 
L 1638 4134 
L -19 4134 
L -19 4666 
z
" transform="scale(0.015625)"/>
       <path id="DejaVuSans-72" d="M 2631 2963 
Q 2534 3019 2420 3045 
Q 2306 3072 2169 3072 
Q 1681 3072 1420 2755 
Q 1159 2438 1159 1844 
L 1159 0 
L 581 0 
L 581 3500 
L 1159 3500 
L 1159 2956 
Q 1341 3275 1631 3429 
Q 1922 3584 2338 3584 
Q 2397 3584 2469 3576 
Q 2541 3569 2628 3553 
L 2631 2963 
z
" transform="scale(0.015625)"/>
       <path id="DejaVuSans-69" d="M 603 3500 
L 1178 3500 
L 1178 0 
L 603 0 
L 603 3500 
z
M 603 4863 
L 1178 4863 
L 1178 4134 
L 603 4134 
L 603 4863 
z
" transform="scale(0.015625)"/>
       <path id="DejaVuSans-61" d="M 2194 1759 
Q 1497 1759 1228 1600 
Q 959 1441 959 1056 
Q 959 750 1161 570 
Q 1363 391 1709 391 
Q 2188 391 2477 730 
Q 2766 1069 2766 1631 
L 2766 1759 
L 2194 1759 
z
M 3341 1997 
L 3341 0 
L 2766 0 
L 2766 531 
Q 2569 213 2275 61 
Q 1981 -91 1556 -91 
Q 1019 -91 701 211 
Q 384 513 384 1019 
Q 384 1609 779 1909 
Q 1175 2209 1959 2209 
L 2766 2209 
L 2766 2266 
Q 2766 2663 2505 2880 
Q 2244 3097 1772 3097 
Q 1472 3097 1187 3025 
Q 903 2953 641 2809 
L 641 3341 
Q 956 3463 1253 3523 
Q 1550 3584 1831 3584 
Q 2591 3584 2966 3190 
Q 3341 2797 3341 1997 
z
" transform="scale(0.015625)"/>
       <path id="DejaVuSans-6e" d="M 3513 2113 
L 3513 0 
L 2938 0 
L 2938 2094 
Q 2938 2591 2744 2837 
Q 2550 3084 2163 3084 
Q 1697 3084 1428 2787 
Q 1159 2491 1159 1978 
L 1159 0 
L 581 0 
L 581 3500 
L 1159 3500 
L 1159 2956 
Q 1366 3272 1645 3428 
Q 1925 3584 2291 3584 
Q 2894 3584 3203 3211 
Q 3513 2838 3513 2113 
z
" transform="scale(0.015625)"/>
       <path id="DejaVuSans-67" d="M 2906 1791 
Q 2906 2416 2648 2759 
Q 2391 3103 1925 3103 
Q 1463 3103 1205 2759 
Q 947 2416 947 1791 
Q 947 1169 1205 825 
Q 1463 481 1925 481 
Q 2391 481 2648 825 
Q 2906 1169 2906 1791 
z
M 3481 434 
Q 3481 -459 3084 -895 
Q 2688 -1331 1869 -1331 
Q 1566 -1331 1297 -1286 
Q 1028 -1241 775 -1147 
L 775 -588 
Q 1028 -725 1275 -790 
Q 1522 -856 1778 -856 
Q 2344 -856 2625 -561 
Q 2906 -266 2906 331 
L 2906 616 
Q 2728 306 2450 153 
Q 2172 0 1784 0 
Q 1141 0 747 490 
Q 353 981 353 1791 
Q 353 2603 747 3093 
Q 1141 3584 1784 3584 
Q 2172 3584 2450 3431 
Q 2728 3278 2906 2969 
L 2906 3500 
L 3481 3500 
L 3481 434 
z
" transform="scale(0.015625)"/>
       <path id="DejaVuSans-75" d="M 544 1381 
L 544 3500 
L 1119 3500 
L 1119 1403 
Q 1119 906 1312 657 
Q 1506 409 1894 409 
Q 2359 409 2629 706 
Q 2900 1003 2900 1516 
L 2900 3500 
L 3475 3500 
L 3475 0 
L 2900 0 
L 2900 538 
Q 2691 219 2414 64 
Q 2138 -91 1772 -91 
Q 1169 -91 856 284 
Q 544 659 544 1381 
z
M 1991 3584 
L 1991 3584 
z
" transform="scale(0.015625)"/>
       <path id="DejaVuSans-6c" d="M 603 4863 
L 1178 4863 
L 1178 0 
L 603 0 
L 603 4863 
z
" transform="scale(0.015625)"/>
       <path id="DejaVuSans-20" transform="scale(0.015625)"/>
       <path id="DejaVuSans-4e" d="M 628 4666 
L 1478 4666 
L 3547 763 
L 3547 4666 
L 4159 4666 
L 4159 0 
L 3309 0 
L 1241 3903 
L 1241 0 
L 628 0 
L 628 4666 
z
" transform="scale(0.015625)"/>
       <path id="DejaVuSans-65" d="M 3597 1894 
L 3597 1613 
L 953 1613 
Q 991 1019 1311 708 
Q 1631 397 2203 397 
Q 2534 397 2845 478 
Q 3156 559 3463 722 
L 3463 178 
Q 3153 47 2828 -22 
Q 2503 -91 2169 -91 
Q 1331 -91 842 396 
Q 353 884 353 1716 
Q 353 2575 817 3079 
Q 1281 3584 2069 3584 
Q 2775 3584 3186 3129 
Q 3597 2675 3597 1894 
z
M 3022 2063 
Q 3016 2534 2758 2815 
Q 2500 3097 2075 3097 
Q 1594 3097 1305 2825 
Q 1016 2553 972 2059 
L 3022 2063 
z
" transform="scale(0.015625)"/>
       <path id="DejaVuSans-77" d="M 269 3500 
L 844 3500 
L 1563 769 
L 2278 3500 
L 2956 3500 
L 3675 769 
L 4391 3500 
L 4966 3500 
L 4050 0 
L 3372 0 
L 2619 2869 
L 1863 0 
L 1184 0 
L 269 3500 
z
" transform="scale(0.015625)"/>
       <path id="DejaVuSans-6f" d="M 1959 3097 
Q 1497 3097 1228 2736 
Q 959 2375 959 1747 
Q 959 1119 1226 758 
Q 1494 397 1959 397 
Q 2419 397 2687 759 
Q 2956 1122 2956 1747 
Q 2956 2369 2687 2733 
Q 2419 3097 1959 3097 
z
M 1959 3584 
Q 2709 3584 3137 3096 
Q 3566 2609 3566 1747 
Q 3566 888 3137 398 
Q 2709 -91 1959 -91 
Q 1206 -91 779 398 
Q 353 888 353 1747 
Q 353 2609 779 3096 
Q 1206 3584 1959 3584 
z
" transform="scale(0.015625)"/>
       <path id="DejaVuSans-6b" d="M 581 4863 
L 1159 4863 
L 1159 1991 
L 2875 3500 
L 3609 3500 
L 1753 1863 
L 3688 0 
L 2938 0 
L 1159 1709 
L 1159 0 
L 581 0 
L 581 4863 
z
" transform="scale(0.015625)"/>
      </defs>
      <use xlink:href="#DejaVuSans-54"/>
      <use xlink:href="#DejaVuSans-72" x="46.333984"/>
      <use xlink:href="#DejaVuSans-69" x="87.447266"/>
      <use xlink:href="#DejaVuSans-61" x="115.230469"/>
      <use xlink:href="#DejaVuSans-6e" x="176.509766"/>
      <use xlink:href="#DejaVuSans-67" x="239.888672"/>
      <use xlink:href="#DejaVuSans-75" x="303.365234"/>
      <use xlink:href="#DejaVuSans-6c" x="366.744141"/>
      <use xlink:href="#DejaVuSans-61" x="394.527344"/>
      <use xlink:href="#DejaVuSans-72" x="455.806641"/>
      <use xlink:href="#DejaVuSans-20" x="496.919922"/>
      <use xlink:href="#DejaVuSans-4e" x="528.707031"/>
      <use xlink:href="#DejaVuSans-65" x="603.511719"/>
      <use xlink:href="#DejaVuSans-74" x="665.035156"/>
      <use xlink:href="#DejaVuSans-77" x="704.244141"/>
      <use xlink:href="#DejaVuSans-6f" x="786.03125"/>
      <use xlink:href="#DejaVuSans-72" x="847.212891"/>
      <use xlink:href="#DejaVuSans-6b" x="888.326172"/>
     </g>
    </g>
    <g id="line2d_20">
     <path d="M 338.975625 360.504375 
L 350.975625 360.504375 
L 362.975625 360.504375 
" style="fill: none; stroke: #ff7f0e; stroke-width: 1.5; stroke-linecap: square"/>
    </g>
    <g id="text_20">
     <!-- Dual Sierpinski Gasket -->
     <g transform="translate(372.575625 364.704375)scale(0.12 -0.12)">
      <defs>
       <path id="DejaVuSans-70" d="M 1159 525 
L 1159 -1331 
L 581 -1331 
L 581 3500 
L 1159 3500 
L 1159 2969 
Q 1341 3281 1617 3432 
Q 1894 3584 2278 3584 
Q 2916 3584 3314 3078 
Q 3713 2572 3713 1747 
Q 3713 922 3314 415 
Q 2916 -91 2278 -91 
Q 1894 -91 1617 61 
Q 1341 213 1159 525 
z
M 3116 1747 
Q 3116 2381 2855 2742 
Q 2594 3103 2138 3103 
Q 1681 3103 1420 2742 
Q 1159 2381 1159 1747 
Q 1159 1113 1420 752 
Q 1681 391 2138 391 
Q 2594 391 2855 752 
Q 3116 1113 3116 1747 
z
" transform="scale(0.015625)"/>
       <path id="DejaVuSans-73" d="M 2834 3397 
L 2834 2853 
Q 2591 2978 2328 3040 
Q 2066 3103 1784 3103 
Q 1356 3103 1142 2972 
Q 928 2841 928 2578 
Q 928 2378 1081 2264 
Q 1234 2150 1697 2047 
L 1894 2003 
Q 2506 1872 2764 1633 
Q 3022 1394 3022 966 
Q 3022 478 2636 193 
Q 2250 -91 1575 -91 
Q 1294 -91 989 -36 
Q 684 19 347 128 
L 347 722 
Q 666 556 975 473 
Q 1284 391 1588 391 
Q 1994 391 2212 530 
Q 2431 669 2431 922 
Q 2431 1156 2273 1281 
Q 2116 1406 1581 1522 
L 1381 1569 
Q 847 1681 609 1914 
Q 372 2147 372 2553 
Q 372 3047 722 3315 
Q 1072 3584 1716 3584 
Q 2034 3584 2315 3537 
Q 2597 3491 2834 3397 
z
" transform="scale(0.015625)"/>
       <path id="DejaVuSans-47" d="M 3809 666 
L 3809 1919 
L 2778 1919 
L 2778 2438 
L 4434 2438 
L 4434 434 
Q 4069 175 3628 42 
Q 3188 -91 2688 -91 
Q 1594 -91 976 548 
Q 359 1188 359 2328 
Q 359 3472 976 4111 
Q 1594 4750 2688 4750 
Q 3144 4750 3555 4637 
Q 3966 4525 4313 4306 
L 4313 3634 
Q 3963 3931 3569 4081 
Q 3175 4231 2741 4231 
Q 1884 4231 1454 3753 
Q 1025 3275 1025 2328 
Q 1025 1384 1454 906 
Q 1884 428 2741 428 
Q 3075 428 3337 486 
Q 3600 544 3809 666 
z
" transform="scale(0.015625)"/>
      </defs>
      <use xlink:href="#DejaVuSans-44"/>
      <use xlink:href="#DejaVuSans-75" x="77.001953"/>
      <use xlink:href="#DejaVuSans-61" x="140.380859"/>
      <use xlink:href="#DejaVuSans-6c" x="201.660156"/>
      <use xlink:href="#DejaVuSans-20" x="229.443359"/>
      <use xlink:href="#DejaVuSans-53" x="261.230469"/>
      <use xlink:href="#DejaVuSans-69" x="324.707031"/>
      <use xlink:href="#DejaVuSans-65" x="352.490234"/>
      <use xlink:href="#DejaVuSans-72" x="414.013672"/>
      <use xlink:href="#DejaVuSans-70" x="455.126953"/>
      <use xlink:href="#DejaVuSans-69" x="518.603516"/>
      <use xlink:href="#DejaVuSans-6e" x="546.386719"/>
      <use xlink:href="#DejaVuSans-73" x="609.765625"/>
      <use xlink:href="#DejaVuSans-6b" x="661.865234"/>
      <use xlink:href="#DejaVuSans-69" x="719.775391"/>
      <use xlink:href="#DejaVuSans-20" x="747.558594"/>
      <use xlink:href="#DejaVuSans-47" x="779.345703"/>
      <use xlink:href="#DejaVuSans-61" x="856.835938"/>
      <use xlink:href="#DejaVuSans-73" x="918.115234"/>
      <use xlink:href="#DejaVuSans-6b" x="970.214844"/>
      <use xlink:href="#DejaVuSans-65" x="1024.5"/>
      <use xlink:href="#DejaVuSans-74" x="1086.023438"/>
     </g>
    </g>
   </g>
  </g>
 </g>
 <defs>
  <clipPath id="pf636e03232">
   <rect x="72" y="51.84" width="446.4" height="326.16"/>
  </clipPath>
 </defs>
</svg>
