<?xml version="1.0" encoding="utf-8" standalone="no"?>
<!DOCTYPE svg PUBLIC "-//W3C//DTD SVG 1.1//EN"
  "http://www.w3.org/Graphics/SVG/1.1/DTD/svg11.dtd">
<svg xmlns:xlink="http://www.w3.org/1999/xlink" width="576pt" height="432pt" viewBox="0 0 576 432" xmlns="http://www.w3.org/2000/svg" version="1.1">
 <metadata>
  <rdf:RDF xmlns:dc="http://purl.org/dc/elements/1.1/" xmlns:cc="http://creativecommons.org/ns#" xmlns:rdf="http://www.w3.org/1999/02/22-rdf-syntax-ns#">
   <cc:Work>
    <dc:type rdf:resource="http://purl.org/dc/dcmitype/StillImage"/>
    <dc:date>2022-06-14T15:27:14.911217</dc:date>
    <dc:format>image/svg+xml</dc:format>
    <dc:creator>
     <cc:Agent>
      <dc:title>Matplotlib v3.5.1, https://matplotlib.org/</dc:title>
     </cc:Agent>
    </dc:creator>
   </cc:Work>
  </rdf:RDF>
 </metadata>
 <defs>
  <style type="text/css">*{stroke-linejoin: round; stroke-linecap: butt}</style>
 </defs>
 <g id="figure_1">
  <g id="patch_1">
   <path d="M 0 432 
L 576 432 
L 576 0 
L 0 0 
L 0 432 
z
" style="fill: none"/>
  </g>
  <g id="axes_1">
   <g id="patch_2">
    <path d="M 72 378 
L 518.4 378 
L 518.4 51.84 
L 72 51.84 
z
" style="fill: #ffffff"/>
   </g>
   <g id="matplotlib.axis_1">
    <g id="xtick_1">
     <g id="line2d_1">
      <defs>
       <path id="m398e1587a2" d="M 0 0 
L 0 3.5 
" style="stroke: #000000; stroke-width: 0.8"/>
      </defs>
      <g>
       <use xlink:href="#m398e1587a2" x="72" y="378" style="stroke: #000000; stroke-width: 0.8"/>
      </g>
     </g>
     <g id="text_1">
      <!-- 0 -->
      <g transform="translate(68.1825 394.118125)scale(0.12 -0.12)">
       <defs>
        <path id="DejaVuSans-30" d="M 2034 4250 
Q 1547 4250 1301 3770 
Q 1056 3291 1056 2328 
Q 1056 1369 1301 889 
Q 1547 409 2034 409 
Q 2525 409 2770 889 
Q 3016 1369 3016 2328 
Q 3016 3291 2770 3770 
Q 2525 4250 2034 4250 
z
M 2034 4750 
Q 2819 4750 3233 4129 
Q 3647 3509 3647 2328 
Q 3647 1150 3233 529 
Q 2819 -91 2034 -91 
Q 1250 -91 836 529 
Q 422 1150 422 2328 
Q 422 3509 836 4129 
Q 1250 4750 2034 4750 
z
" transform="scale(0.015625)"/>
       </defs>
       <use xlink:href="#DejaVuSans-30"/>
      </g>
     </g>
    </g>
    <g id="xtick_2">
     <g id="line2d_2">
      <g>
       <use xlink:href="#m398e1587a2" x="131.52" y="378" style="stroke: #000000; stroke-width: 0.8"/>
      </g>
     </g>
     <g id="text_2">
      <!-- 2 -->
      <g transform="translate(127.7025 394.118125)scale(0.12 -0.12)">
       <defs>
        <path id="DejaVuSans-32" d="M 1228 531 
L 3431 531 
L 3431 0 
L 469 0 
L 469 531 
Q 828 903 1448 1529 
Q 2069 2156 2228 2338 
Q 2531 2678 2651 2914 
Q 2772 3150 2772 3378 
Q 2772 3750 2511 3984 
Q 2250 4219 1831 4219 
Q 1534 4219 1204 4116 
Q 875 4013 500 3803 
L 500 4441 
Q 881 4594 1212 4672 
Q 1544 4750 1819 4750 
Q 2544 4750 2975 4387 
Q 3406 4025 3406 3419 
Q 3406 3131 3298 2873 
Q 3191 2616 2906 2266 
Q 2828 2175 2409 1742 
Q 1991 1309 1228 531 
z
" transform="scale(0.015625)"/>
       </defs>
       <use xlink:href="#DejaVuSans-32"/>
      </g>
     </g>
    </g>
    <g id="xtick_3">
     <g id="line2d_3">
      <g>
       <use xlink:href="#m398e1587a2" x="191.04" y="378" style="stroke: #000000; stroke-width: 0.8"/>
      </g>
     </g>
     <g id="text_3">
      <!-- 4 -->
      <g transform="translate(187.2225 394.118125)scale(0.12 -0.12)">
       <defs>
        <path id="DejaVuSans-34" d="M 2419 4116 
L 825 1625 
L 2419 1625 
L 2419 4116 
z
M 2253 4666 
L 3047 4666 
L 3047 1625 
L 3713 1625 
L 3713 1100 
L 3047 1100 
L 3047 0 
L 2419 0 
L 2419 1100 
L 313 1100 
L 313 1709 
L 2253 4666 
z
" transform="scale(0.015625)"/>
       </defs>
       <use xlink:href="#DejaVuSans-34"/>
      </g>
     </g>
    </g>
    <g id="xtick_4">
     <g id="line2d_4">
      <g>
       <use xlink:href="#m398e1587a2" x="250.56" y="378" style="stroke: #000000; stroke-width: 0.8"/>
      </g>
     </g>
     <g id="text_4">
      <!-- 6 -->
      <g transform="translate(246.7425 394.118125)scale(0.12 -0.12)">
       <defs>
        <path id="DejaVuSans-36" d="M 2113 2584 
Q 1688 2584 1439 2293 
Q 1191 2003 1191 1497 
Q 1191 994 1439 701 
Q 1688 409 2113 409 
Q 2538 409 2786 701 
Q 3034 994 3034 1497 
Q 3034 2003 2786 2293 
Q 2538 2584 2113 2584 
z
M 3366 4563 
L 3366 3988 
Q 3128 4100 2886 4159 
Q 2644 4219 2406 4219 
Q 1781 4219 1451 3797 
Q 1122 3375 1075 2522 
Q 1259 2794 1537 2939 
Q 1816 3084 2150 3084 
Q 2853 3084 3261 2657 
Q 3669 2231 3669 1497 
Q 3669 778 3244 343 
Q 2819 -91 2113 -91 
Q 1303 -91 875 529 
Q 447 1150 447 2328 
Q 447 3434 972 4092 
Q 1497 4750 2381 4750 
Q 2619 4750 2861 4703 
Q 3103 4656 3366 4563 
z
" transform="scale(0.015625)"/>
       </defs>
       <use xlink:href="#DejaVuSans-36"/>
      </g>
     </g>
    </g>
    <g id="xtick_5">
     <g id="line2d_5">
      <g>
       <use xlink:href="#m398e1587a2" x="310.08" y="378" style="stroke: #000000; stroke-width: 0.8"/>
      </g>
     </g>
     <g id="text_5">
      <!-- 8 -->
      <g transform="translate(306.2625 394.118125)scale(0.12 -0.12)">
       <defs>
        <path id="DejaVuSans-38" d="M 2034 2216 
Q 1584 2216 1326 1975 
Q 1069 1734 1069 1313 
Q 1069 891 1326 650 
Q 1584 409 2034 409 
Q 2484 409 2743 651 
Q 3003 894 3003 1313 
Q 3003 1734 2745 1975 
Q 2488 2216 2034 2216 
z
M 1403 2484 
Q 997 2584 770 2862 
Q 544 3141 544 3541 
Q 544 4100 942 4425 
Q 1341 4750 2034 4750 
Q 2731 4750 3128 4425 
Q 3525 4100 3525 3541 
Q 3525 3141 3298 2862 
Q 3072 2584 2669 2484 
Q 3125 2378 3379 2068 
Q 3634 1759 3634 1313 
Q 3634 634 3220 271 
Q 2806 -91 2034 -91 
Q 1263 -91 848 271 
Q 434 634 434 1313 
Q 434 1759 690 2068 
Q 947 2378 1403 2484 
z
M 1172 3481 
Q 1172 3119 1398 2916 
Q 1625 2713 2034 2713 
Q 2441 2713 2670 2916 
Q 2900 3119 2900 3481 
Q 2900 3844 2670 4047 
Q 2441 4250 2034 4250 
Q 1625 4250 1398 4047 
Q 1172 3844 1172 3481 
z
" transform="scale(0.015625)"/>
       </defs>
       <use xlink:href="#DejaVuSans-38"/>
      </g>
     </g>
    </g>
    <g id="xtick_6">
     <g id="line2d_6">
      <g>
       <use xlink:href="#m398e1587a2" x="369.6" y="378" style="stroke: #000000; stroke-width: 0.8"/>
      </g>
     </g>
     <g id="text_6">
      <!-- 10 -->
      <g transform="translate(361.965 394.118125)scale(0.12 -0.12)">
       <defs>
        <path id="DejaVuSans-31" d="M 794 531 
L 1825 531 
L 1825 4091 
L 703 3866 
L 703 4441 
L 1819 4666 
L 2450 4666 
L 2450 531 
L 3481 531 
L 3481 0 
L 794 0 
L 794 531 
z
" transform="scale(0.015625)"/>
       </defs>
       <use xlink:href="#DejaVuSans-31"/>
       <use xlink:href="#DejaVuSans-30" x="63.623047"/>
      </g>
     </g>
    </g>
    <g id="xtick_7">
     <g id="line2d_7">
      <g>
       <use xlink:href="#m398e1587a2" x="429.12" y="378" style="stroke: #000000; stroke-width: 0.8"/>
      </g>
     </g>
     <g id="text_7">
      <!-- 12 -->
      <g transform="translate(421.485 394.118125)scale(0.12 -0.12)">
       <use xlink:href="#DejaVuSans-31"/>
       <use xlink:href="#DejaVuSans-32" x="63.623047"/>
      </g>
     </g>
    </g>
    <g id="xtick_8">
     <g id="line2d_8">
      <g>
       <use xlink:href="#m398e1587a2" x="488.64" y="378" style="stroke: #000000; stroke-width: 0.8"/>
      </g>
     </g>
     <g id="text_8">
      <!-- 14 -->
      <g transform="translate(481.005 394.118125)scale(0.12 -0.12)">
       <use xlink:href="#DejaVuSans-31"/>
       <use xlink:href="#DejaVuSans-34" x="63.623047"/>
      </g>
     </g>
    </g>
    <g id="text_9">
     <!-- t -->
     <g transform="translate(292.847812 409.731875)scale(0.12 -0.12)">
      <defs>
       <path id="DejaVuSans-74" d="M 1172 4494 
L 1172 3500 
L 2356 3500 
L 2356 3053 
L 1172 3053 
L 1172 1153 
Q 1172 725 1289 603 
Q 1406 481 1766 481 
L 2356 481 
L 2356 0 
L 1766 0 
Q 1100 0 847 248 
Q 594 497 594 1153 
L 594 3053 
L 172 3053 
L 172 3500 
L 594 3500 
L 594 4494 
L 1172 4494 
z
" transform="scale(0.015625)"/>
      </defs>
      <use xlink:href="#DejaVuSans-74"/>
     </g>
    </g>
   </g>
   <g id="matplotlib.axis_2">
    <g id="ytick_1">
     <g id="line2d_9">
      <defs>
       <path id="m613d27266d" d="M 0 0 
L -3.5 0 
" style="stroke: #000000; stroke-width: 0.8"/>
      </defs>
      <g>
       <use xlink:href="#m613d27266d" x="72" y="378" style="stroke: #000000; stroke-width: 0.8"/>
      </g>
     </g>
     <g id="text_10">
      <!-- 0 -->
      <g transform="translate(57.365 382.559062)scale(0.12 -0.12)">
       <use xlink:href="#DejaVuSans-30"/>
      </g>
     </g>
    </g>
    <g id="ytick_2">
     <g id="line2d_10">
      <g>
       <use xlink:href="#m613d27266d" x="72" y="331.405714" style="stroke: #000000; stroke-width: 0.8"/>
      </g>
     </g>
     <g id="text_11">
      <!-- 10 -->
      <g transform="translate(49.73 335.964777)scale(0.12 -0.12)">
       <use xlink:href="#DejaVuSans-31"/>
       <use xlink:href="#DejaVuSans-30" x="63.623047"/>
      </g>
     </g>
    </g>
    <g id="ytick_3">
     <g id="line2d_11">
      <g>
       <use xlink:href="#m613d27266d" x="72" y="284.811429" style="stroke: #000000; stroke-width: 0.8"/>
      </g>
     </g>
     <g id="text_12">
      <!-- 20 -->
      <g transform="translate(49.73 289.370491)scale(0.12 -0.12)">
       <use xlink:href="#DejaVuSans-32"/>
       <use xlink:href="#DejaVuSans-30" x="63.623047"/>
      </g>
     </g>
    </g>
    <g id="ytick_4">
     <g id="line2d_12">
      <g>
       <use xlink:href="#m613d27266d" x="72" y="238.217143" style="stroke: #000000; stroke-width: 0.8"/>
      </g>
     </g>
     <g id="text_13">
      <!-- 30 -->
      <g transform="translate(49.73 242.776205)scale(0.12 -0.12)">
       <defs>
        <path id="DejaVuSans-33" d="M 2597 2516 
Q 3050 2419 3304 2112 
Q 3559 1806 3559 1356 
Q 3559 666 3084 287 
Q 2609 -91 1734 -91 
Q 1441 -91 1130 -33 
Q 819 25 488 141 
L 488 750 
Q 750 597 1062 519 
Q 1375 441 1716 441 
Q 2309 441 2620 675 
Q 2931 909 2931 1356 
Q 2931 1769 2642 2001 
Q 2353 2234 1838 2234 
L 1294 2234 
L 1294 2753 
L 1863 2753 
Q 2328 2753 2575 2939 
Q 2822 3125 2822 3475 
Q 2822 3834 2567 4026 
Q 2313 4219 1838 4219 
Q 1578 4219 1281 4162 
Q 984 4106 628 3988 
L 628 4550 
Q 988 4650 1302 4700 
Q 1616 4750 1894 4750 
Q 2613 4750 3031 4423 
Q 3450 4097 3450 3541 
Q 3450 3153 3228 2886 
Q 3006 2619 2597 2516 
z
" transform="scale(0.015625)"/>
       </defs>
       <use xlink:href="#DejaVuSans-33"/>
       <use xlink:href="#DejaVuSans-30" x="63.623047"/>
      </g>
     </g>
    </g>
    <g id="ytick_5">
     <g id="line2d_13">
      <g>
       <use xlink:href="#m613d27266d" x="72" y="191.622857" style="stroke: #000000; stroke-width: 0.8"/>
      </g>
     </g>
     <g id="text_14">
      <!-- 40 -->
      <g transform="translate(49.73 196.18192)scale(0.12 -0.12)">
       <use xlink:href="#DejaVuSans-34"/>
       <use xlink:href="#DejaVuSans-30" x="63.623047"/>
      </g>
     </g>
    </g>
    <g id="ytick_6">
     <g id="line2d_14">
      <g>
       <use xlink:href="#m613d27266d" x="72" y="145.028571" style="stroke: #000000; stroke-width: 0.8"/>
      </g>
     </g>
     <g id="text_15">
      <!-- 50 -->
      <g transform="translate(49.73 149.587634)scale(0.12 -0.12)">
       <defs>
        <path id="DejaVuSans-35" d="M 691 4666 
L 3169 4666 
L 3169 4134 
L 1269 4134 
L 1269 2991 
Q 1406 3038 1543 3061 
Q 1681 3084 1819 3084 
Q 2600 3084 3056 2656 
Q 3513 2228 3513 1497 
Q 3513 744 3044 326 
Q 2575 -91 1722 -91 
Q 1428 -91 1123 -41 
Q 819 9 494 109 
L 494 744 
Q 775 591 1075 516 
Q 1375 441 1709 441 
Q 2250 441 2565 725 
Q 2881 1009 2881 1497 
Q 2881 1984 2565 2268 
Q 2250 2553 1709 2553 
Q 1456 2553 1204 2497 
Q 953 2441 691 2322 
L 691 4666 
z
" transform="scale(0.015625)"/>
       </defs>
       <use xlink:href="#DejaVuSans-35"/>
       <use xlink:href="#DejaVuSans-30" x="63.623047"/>
      </g>
     </g>
    </g>
    <g id="ytick_7">
     <g id="line2d_15">
      <g>
       <use xlink:href="#m613d27266d" x="72" y="98.434286" style="stroke: #000000; stroke-width: 0.8"/>
      </g>
     </g>
     <g id="text_16">
      <!-- 60 -->
      <g transform="translate(49.73 102.993348)scale(0.12 -0.12)">
       <use xlink:href="#DejaVuSans-36"/>
       <use xlink:href="#DejaVuSans-30" x="63.623047"/>
      </g>
     </g>
    </g>
    <g id="ytick_8">
     <g id="line2d_16">
      <g>
       <use xlink:href="#m613d27266d" x="72" y="51.84" style="stroke: #000000; stroke-width: 0.8"/>
      </g>
     </g>
     <g id="text_17">
      <!-- 70 -->
      <g transform="translate(49.73 56.399063)scale(0.12 -0.12)">
       <defs>
        <path id="DejaVuSans-37" d="M 525 4666 
L 3525 4666 
L 3525 4397 
L 1831 0 
L 1172 0 
L 2766 4134 
L 525 4134 
L 525 4666 
z
" transform="scale(0.015625)"/>
       </defs>
       <use xlink:href="#DejaVuSans-37"/>
       <use xlink:href="#DejaVuSans-30" x="63.623047"/>
      </g>
     </g>
    </g>
    <g id="text_18">
     <!-- MSD -->
     <g transform="translate(43.234375 228.525937)rotate(-90)scale(0.12 -0.12)">
      <defs>
       <path id="DejaVuSans-4d" d="M 628 4666 
L 1569 4666 
L 2759 1491 
L 3956 4666 
L 4897 4666 
L 4897 0 
L 4281 0 
L 4281 4097 
L 3078 897 
L 2444 897 
L 1241 4097 
L 1241 0 
L 628 0 
L 628 4666 
z
" transform="scale(0.015625)"/>
       <path id="DejaVuSans-53" d="M 3425 4513 
L 3425 3897 
Q 3066 4069 2747 4153 
Q 2428 4238 2131 4238 
Q 1616 4238 1336 4038 
Q 1056 3838 1056 3469 
Q 1056 3159 1242 3001 
Q 1428 2844 1947 2747 
L 2328 2669 
Q 3034 2534 3370 2195 
Q 3706 1856 3706 1288 
Q 3706 609 3251 259 
Q 2797 -91 1919 -91 
Q 1588 -91 1214 -16 
Q 841 59 441 206 
L 441 856 
Q 825 641 1194 531 
Q 1563 422 1919 422 
Q 2459 422 2753 634 
Q 3047 847 3047 1241 
Q 3047 1584 2836 1778 
Q 2625 1972 2144 2069 
L 1759 2144 
Q 1053 2284 737 2584 
Q 422 2884 422 3419 
Q 422 4038 858 4394 
Q 1294 4750 2059 4750 
Q 2388 4750 2728 4690 
Q 3069 4631 3425 4513 
z
" transform="scale(0.015625)"/>
       <path id="DejaVuSans-44" d="M 1259 4147 
L 1259 519 
L 2022 519 
Q 2988 519 3436 956 
Q 3884 1394 3884 2338 
Q 3884 3275 3436 3711 
Q 2988 4147 2022 4147 
L 1259 4147 
z
M 628 4666 
L 1925 4666 
Q 3281 4666 3915 4102 
Q 4550 3538 4550 2338 
Q 4550 1131 3912 565 
Q 3275 0 1925 0 
L 628 0 
L 628 4666 
z
" transform="scale(0.015625)"/>
      </defs>
      <use xlink:href="#DejaVuSans-4d"/>
      <use xlink:href="#DejaVuSans-53" x="86.279297"/>
      <use xlink:href="#DejaVuSans-44" x="149.755859"/>
     </g>
    </g>
   </g>
   <g id="line2d_17">
    <path d="M 72.2976 377.707104 
L 76.1664 373.738321 
L 83.3088 365.926535 
L 93.7248 354.696084 
L 110.688 336.766095 
L 123.4848 323.548235 
L 135.0912 311.880709 
L 146.9952 300.233861 
L 159.4944 288.317436 
L 172.8864 275.85756 
L 187.1712 262.875254 
L 201.7536 249.925153 
L 216.336 237.273361 
L 230.6208 225.173618 
L 244.608 213.617797 
L 258.2976 202.598634 
L 271.6896 192.107416 
L 284.784 182.133127 
L 297.5808 172.66236 
L 310.3776 163.468995 
L 322.8768 154.759114 
L 335.376 146.316061 
L 347.8752 138.138795 
L 360.3744 130.225092 
L 372.8736 122.571716 
L 385.3728 115.174583 
L 398.1696 107.861804 
L 410.9664 100.806877 
L 423.7632 94.003601 
L 436.8576 87.295766 
L 449.952 80.837264 
L 463.344 74.482089 
L 476.736 68.3718 
L 490.4256 62.370375 
L 504.4128 56.485018 
L 518.4 50.839786 
L 518.4 50.839786 
" clip-path="url(#pdc1390c875)" style="fill: none; stroke: #1f77b4; stroke-width: 1.5; stroke-linecap: square"/>
   </g>
   <g id="line2d_18">
    <path d="M 72.2976 377.990803 
L 73.488 377.770066 
L 74.6784 377.255 
L 75.8688 376.445613 
L 77.0592 375.342439 
L 78.2496 373.948267 
L 79.7376 371.810496 
L 81.2256 369.275966 
L 83.3088 365.244854 
L 86.5824 358.855572 
L 88.0704 356.492454 
L 89.2608 355.041922 
L 90.1536 354.246167 
L 91.0464 353.70158 
L 91.9392 353.387393 
L 93.1296 353.255081 
L 95.2128 353.394557 
L 96.4032 353.38498 
L 97.296 353.205199 
L 98.1888 352.814502 
L 99.0816 352.175059 
L 99.9744 351.269526 
L 101.1648 349.657508 
L 102.3552 347.642068 
L 104.1408 344.098074 
L 109.4976 333.077357 
L 115.7472 321.444749 
L 117.5328 318.380611 
L 119.0208 316.271825 
L 120.2112 315.007247 
L 121.104 314.333747 
L 121.9968 313.88523 
L 123.1872 313.568339 
L 126.1632 313.055253 
L 127.056 312.589096 
L 127.9488 311.823257 
L 128.8416 310.704755 
L 129.7344 309.215886 
L 130.9248 306.698837 
L 132.4128 302.944676 
L 134.7936 296.834757 
L 135.984 294.391586 
L 136.8768 293.02657 
L 137.7696 292.115213 
L 138.3648 291.760034 
L 138.96 291.593096 
L 139.8528 291.645814 
L 140.7456 291.966518 
L 143.424 293.18415 
L 144.3168 293.23583 
L 144.912 293.086581 
L 145.5072 292.774345 
L 146.4 291.996344 
L 147.2928 290.876916 
L 148.4832 288.986483 
L 151.1616 284.463659 
L 152.0544 283.334763 
L 152.9472 282.568858 
L 153.5424 282.288106 
L 154.1376 282.198787 
L 154.7328 282.297729 
L 155.328 282.573571 
L 156.2208 283.27623 
L 157.4112 284.608655 
L 160.3872 288.283554 
L 161.28 289.068372 
L 162.1728 289.590458 
L 163.0656 289.832025 
L 163.9584 289.805743 
L 164.8512 289.550198 
L 166.0416 288.953696 
L 169.9104 286.75922 
L 171.1008 286.396162 
L 172.5888 286.183493 
L 176.16 285.826708 
L 177.3504 285.431245 
L 178.5408 284.816205 
L 180.0288 283.779121 
L 183.8976 280.896608 
L 185.088 280.377319 
L 185.9808 280.185627 
L 186.8736 280.170301 
L 188.064 280.401662 
L 189.552 280.991153 
L 192.8256 282.430068 
L 194.016 282.643174 
L 194.9088 282.612344 
L 195.8016 282.401457 
L 196.992 281.840134 
L 198.1824 280.987767 
L 199.6704 279.603879 
L 202.3488 276.682426 
L 204.7296 274.182072 
L 206.8128 272.327759 
L 209.7888 270.073937 
L 211.872 268.403066 
L 213.6576 266.67557 
L 215.4432 264.633218 
L 219.6096 259.656111 
L 221.0976 258.320207 
L 222.288 257.533579 
L 223.776 256.859686 
L 227.3472 255.4939 
L 228.5376 254.654726 
L 229.728 253.457241 
L 230.9184 251.883524 
L 232.4064 249.467768 
L 237.4656 240.680668 
L 238.9536 238.793925 
L 240.144 237.603132 
L 241.632 236.451319 
L 243.12 235.590468 
L 244.608 234.973182 
L 245.7984 234.669641 
L 246.9888 234.578654 
L 248.1792 234.747116 
L 249.3696 235.202612 
L 250.56 235.930219 
L 252.3456 237.359461 
L 254.1312 238.763526 
L 255.3216 239.392684 
L 256.2144 239.589146 
L 257.1072 239.498726 
L 258 239.103251 
L 258.8928 238.414271 
L 260.0832 237.115505 
L 262.464 233.93592 
L 263.6544 232.540692 
L 264.5472 231.776574 
L 265.44 231.342565 
L 266.0352 231.263405 
L 266.6304 231.362619 
L 267.2256 231.642024 
L 268.1184 232.387928 
L 269.0112 233.489647 
L 270.2016 235.400315 
L 271.9872 238.803573 
L 274.0704 242.731707 
L 275.2608 244.614268 
L 276.4512 246.106169 
L 277.6416 247.184781 
L 278.832 247.888067 
L 280.0224 248.298981 
L 281.808 248.603091 
L 284.4864 249.026144 
L 286.272 249.584119 
L 288.0576 250.392107 
L 293.712 253.201538 
L 295.2 253.606897 
L 296.3904 253.717253 
L 297.5808 253.581916 
L 298.4736 253.287716 
L 299.3664 252.807098 
L 300.2592 252.127608 
L 301.4496 250.909695 
L 302.64 249.36615 
L 304.4256 246.624993 
L 307.104 242.480575 
L 308.2944 241.016062 
L 309.4848 239.937813 
L 310.3776 239.400119 
L 311.2704 239.07624 
L 312.4608 238.902273 
L 316.032 238.706924 
L 317.2224 238.316418 
L 318.7104 237.523443 
L 321.3888 235.956329 
L 322.2816 235.679651 
L 323.1744 235.643171 
L 324.0672 235.887158 
L 324.96 236.420641 
L 325.8528 237.218768 
L 327.0432 238.59304 
L 330.0192 242.262713 
L 330.912 243.058547 
L 331.8048 243.604499 
L 332.6976 243.887162 
L 333.5904 243.927164 
L 334.7808 243.694283 
L 337.7568 242.846003 
L 338.6496 242.834992 
L 339.5424 243.026509 
L 340.4352 243.431134 
L 341.6256 244.271551 
L 343.1136 245.662585 
L 346.3872 248.834528 
L 347.8752 249.883106 
L 349.0656 250.481215 
L 350.5536 250.968085 
L 352.0416 251.230926 
L 353.5296 251.304787 
L 355.0176 251.149712 
L 356.208 250.783375 
L 357.1008 250.312982 
L 357.9936 249.633367 
L 358.8864 248.710878 
L 359.7792 247.520027 
L 360.9696 245.493645 
L 362.16 242.978772 
L 363.648 239.253583 
L 368.7072 225.794866 
L 369.8976 223.582688 
L 370.7904 222.373719 
L 371.6832 221.573544 
L 372.576 221.169205 
L 373.4688 221.116022 
L 374.3616 221.340532 
L 375.552 221.904189 
L 377.3376 222.791579 
L 378.2304 223.036226 
L 379.1232 223.051761 
L 380.016 222.806965 
L 380.9088 222.308974 
L 382.0992 221.332426 
L 385.0752 218.609652 
L 385.968 218.100779 
L 386.8608 217.851309 
L 387.7536 217.873716 
L 388.6464 218.140215 
L 389.8368 218.759712 
L 391.92 219.918547 
L 392.8128 220.181898 
L 393.7056 220.196522 
L 394.5984 219.933827 
L 395.4912 219.408581 
L 396.6816 218.404242 
L 399.0624 216.286804 
L 399.9552 215.821748 
L 400.5504 215.694608 
L 401.1456 215.736755 
L 401.7408 215.958668 
L 402.336 216.361958 
L 403.2288 217.288658 
L 404.1216 218.545728 
L 405.6096 221.110009 
L 407.6928 224.755229 
L 408.8832 226.390705 
L 409.776 227.274228 
L 410.6688 227.839689 
L 411.5616 228.105505 
L 412.4544 228.122525 
L 413.6448 227.89084 
L 415.728 227.391328 
L 416.6208 227.360916 
L 417.5136 227.52952 
L 418.4064 227.925077 
L 419.2992 228.546754 
L 420.4896 229.67389 
L 424.656 234.062341 
L 425.5488 234.572674 
L 426.4416 234.802706 
L 427.3344 234.740297 
L 428.2272 234.404748 
L 429.4176 233.623877 
L 432.3936 231.345917 
L 433.2864 231.006688 
L 433.8816 230.95578 
L 434.4768 231.065918 
L 435.072 231.347124 
L 435.9648 232.092523 
L 436.8576 233.20039 
L 438.048 235.12706 
L 441.9168 242.026104 
L 442.8096 243.14498 
L 443.7024 243.966466 
L 444.5952 244.504551 
L 445.488 244.812896 
L 447.2736 245.103821 
L 448.464 245.406707 
L 449.3568 245.864438 
L 450.2496 246.602067 
L 451.1424 247.656986 
L 452.0352 249.028454 
L 453.2256 251.280137 
L 455.3088 255.866183 
L 457.392 260.257455 
L 458.5824 262.310735 
L 459.7728 263.935338 
L 460.9632 265.154489 
L 462.1536 266.059289 
L 464.2368 267.285958 
L 466.0224 268.431812 
L 467.5104 269.702015 
L 468.7008 270.993836 
L 470.1888 272.973902 
L 471.6768 275.339295 
L 473.4624 278.605442 
L 476.736 285.218859 
L 478.8192 289.191759 
L 480.3072 291.566892 
L 481.4976 293.067772 
L 482.688 294.163361 
L 483.5808 294.712038 
L 484.4736 295.035233 
L 485.3664 295.150491 
L 486.2592 295.081993 
L 487.4496 294.753868 
L 488.9376 294.062865 
L 491.3184 292.625072 
L 493.6992 291.2539 
L 494.8896 290.780168 
L 496.08 290.559189 
L 496.9728 290.608958 
L 497.8656 290.876554 
L 498.7584 291.382918 
L 499.6512 292.137334 
L 500.8416 293.518472 
L 502.032 295.276132 
L 503.8176 298.390044 
L 506.7936 303.656294 
L 507.984 305.37463 
L 509.1744 306.718369 
L 510.0672 307.453397 
L 510.96 307.95294 
L 511.8528 308.230049 
L 512.7456 308.308623 
L 513.936 308.159929 
L 515.424 307.688104 
L 518.4 306.38913 
L 518.4 306.38913 
" clip-path="url(#pdc1390c875)" style="fill: none; stroke: #ff7f0e; stroke-width: 1.5; stroke-linecap: square"/>
   </g>
   <g id="patch_3">
    <path d="M 72 378 
L 72 51.84 
" style="fill: none; stroke: #000000; stroke-width: 0.8; stroke-linejoin: miter; stroke-linecap: square"/>
   </g>
   <g id="patch_4">
    <path d="M 518.4 378 
L 518.4 51.84 
" style="fill: none; stroke: #000000; stroke-width: 0.8; stroke-linejoin: miter; stroke-linecap: square"/>
   </g>
   <g id="patch_5">
    <path d="M 72 378 
L 518.4 378 
" style="fill: none; stroke: #000000; stroke-width: 0.8; stroke-linejoin: miter; stroke-linecap: square"/>
   </g>
   <g id="patch_6">
    <path d="M 72 51.84 
L 518.4 51.84 
" style="fill: none; stroke: #000000; stroke-width: 0.8; stroke-linejoin: miter; stroke-linecap: square"/>
   </g>
   <g id="legend_1">
    <g id="patch_7">
     <path d="M 356.18625 372 
L 510 372 
Q 512.4 372 512.4 369.6 
L 512.4 335.5725 
Q 512.4 333.1725 510 333.1725 
L 356.18625 333.1725 
Q 353.78625 333.1725 353.78625 335.5725 
L 353.78625 369.6 
Q 353.78625 372 356.18625 372 
z
" style="fill: #ffffff; opacity: 0.8; stroke: #cccccc; stroke-linejoin: miter"/>
    </g>
    <g id="line2d_19">
     <path d="M 358.58625 342.890625 
L 370.58625 342.890625 
L 382.58625 342.890625 
" style="fill: none; stroke: #1f77b4; stroke-width: 1.5; stroke-linecap: square"/>
    </g>
    <g id="text_19">
     <!-- DSG random walk -->
     <g transform="translate(392.18625 347.090625)scale(0.12 -0.12)">
      <defs>
       <path id="DejaVuSans-47" d="M 3809 666 
L 3809 1919 
L 2778 1919 
L 2778 2438 
L 4434 2438 
L 4434 434 
Q 4069 175 3628 42 
Q 3188 -91 2688 -91 
Q 1594 -91 976 548 
Q 359 1188 359 2328 
Q 359 3472 976 4111 
Q 1594 4750 2688 4750 
Q 3144 4750 3555 4637 
Q 3966 4525 4313 4306 
L 4313 3634 
Q 3963 3931 3569 4081 
Q 3175 4231 2741 4231 
Q 1884 4231 1454 3753 
Q 1025 3275 1025 2328 
Q 1025 1384 1454 906 
Q 1884 428 2741 428 
Q 3075 428 3337 486 
Q 3600 544 3809 666 
z
" transform="scale(0.015625)"/>
       <path id="DejaVuSans-20" transform="scale(0.015625)"/>
       <path id="DejaVuSans-72" d="M 2631 2963 
Q 2534 3019 2420 3045 
Q 2306 3072 2169 3072 
Q 1681 3072 1420 2755 
Q 1159 2438 1159 1844 
L 1159 0 
L 581 0 
L 581 3500 
L 1159 3500 
L 1159 2956 
Q 1341 3275 1631 3429 
Q 1922 3584 2338 3584 
Q 2397 3584 2469 3576 
Q 2541 3569 2628 3553 
L 2631 2963 
z
" transform="scale(0.015625)"/>
       <path id="DejaVuSans-61" d="M 2194 1759 
Q 1497 1759 1228 1600 
Q 959 1441 959 1056 
Q 959 750 1161 570 
Q 1363 391 1709 391 
Q 2188 391 2477 730 
Q 2766 1069 2766 1631 
L 2766 1759 
L 2194 1759 
z
M 3341 1997 
L 3341 0 
L 2766 0 
L 2766 531 
Q 2569 213 2275 61 
Q 1981 -91 1556 -91 
Q 1019 -91 701 211 
Q 384 513 384 1019 
Q 384 1609 779 1909 
Q 1175 2209 1959 2209 
L 2766 2209 
L 2766 2266 
Q 2766 2663 2505 2880 
Q 2244 3097 1772 3097 
Q 1472 3097 1187 3025 
Q 903 2953 641 2809 
L 641 3341 
Q 956 3463 1253 3523 
Q 1550 3584 1831 3584 
Q 2591 3584 2966 3190 
Q 3341 2797 3341 1997 
z
" transform="scale(0.015625)"/>
       <path id="DejaVuSans-6e" d="M 3513 2113 
L 3513 0 
L 2938 0 
L 2938 2094 
Q 2938 2591 2744 2837 
Q 2550 3084 2163 3084 
Q 1697 3084 1428 2787 
Q 1159 2491 1159 1978 
L 1159 0 
L 581 0 
L 581 3500 
L 1159 3500 
L 1159 2956 
Q 1366 3272 1645 3428 
Q 1925 3584 2291 3584 
Q 2894 3584 3203 3211 
Q 3513 2838 3513 2113 
z
" transform="scale(0.015625)"/>
       <path id="DejaVuSans-64" d="M 2906 2969 
L 2906 4863 
L 3481 4863 
L 3481 0 
L 2906 0 
L 2906 525 
Q 2725 213 2448 61 
Q 2172 -91 1784 -91 
Q 1150 -91 751 415 
Q 353 922 353 1747 
Q 353 2572 751 3078 
Q 1150 3584 1784 3584 
Q 2172 3584 2448 3432 
Q 2725 3281 2906 2969 
z
M 947 1747 
Q 947 1113 1208 752 
Q 1469 391 1925 391 
Q 2381 391 2643 752 
Q 2906 1113 2906 1747 
Q 2906 2381 2643 2742 
Q 2381 3103 1925 3103 
Q 1469 3103 1208 2742 
Q 947 2381 947 1747 
z
" transform="scale(0.015625)"/>
       <path id="DejaVuSans-6f" d="M 1959 3097 
Q 1497 3097 1228 2736 
Q 959 2375 959 1747 
Q 959 1119 1226 758 
Q 1494 397 1959 397 
Q 2419 397 2687 759 
Q 2956 1122 2956 1747 
Q 2956 2369 2687 2733 
Q 2419 3097 1959 3097 
z
M 1959 3584 
Q 2709 3584 3137 3096 
Q 3566 2609 3566 1747 
Q 3566 888 3137 398 
Q 2709 -91 1959 -91 
Q 1206 -91 779 398 
Q 353 888 353 1747 
Q 353 2609 779 3096 
Q 1206 3584 1959 3584 
z
" transform="scale(0.015625)"/>
       <path id="DejaVuSans-6d" d="M 3328 2828 
Q 3544 3216 3844 3400 
Q 4144 3584 4550 3584 
Q 5097 3584 5394 3201 
Q 5691 2819 5691 2113 
L 5691 0 
L 5113 0 
L 5113 2094 
Q 5113 2597 4934 2840 
Q 4756 3084 4391 3084 
Q 3944 3084 3684 2787 
Q 3425 2491 3425 1978 
L 3425 0 
L 2847 0 
L 2847 2094 
Q 2847 2600 2669 2842 
Q 2491 3084 2119 3084 
Q 1678 3084 1418 2786 
Q 1159 2488 1159 1978 
L 1159 0 
L 581 0 
L 581 3500 
L 1159 3500 
L 1159 2956 
Q 1356 3278 1631 3431 
Q 1906 3584 2284 3584 
Q 2666 3584 2933 3390 
Q 3200 3197 3328 2828 
z
" transform="scale(0.015625)"/>
       <path id="DejaVuSans-77" d="M 269 3500 
L 844 3500 
L 1563 769 
L 2278 3500 
L 2956 3500 
L 3675 769 
L 4391 3500 
L 4966 3500 
L 4050 0 
L 3372 0 
L 2619 2869 
L 1863 0 
L 1184 0 
L 269 3500 
z
" transform="scale(0.015625)"/>
       <path id="DejaVuSans-6c" d="M 603 4863 
L 1178 4863 
L 1178 0 
L 603 0 
L 603 4863 
z
" transform="scale(0.015625)"/>
       <path id="DejaVuSans-6b" d="M 581 4863 
L 1159 4863 
L 1159 1991 
L 2875 3500 
L 3609 3500 
L 1753 1863 
L 3688 0 
L 2938 0 
L 1159 1709 
L 1159 0 
L 581 0 
L 581 4863 
z
" transform="scale(0.015625)"/>
      </defs>
      <use xlink:href="#DejaVuSans-44"/>
      <use xlink:href="#DejaVuSans-53" x="77.001953"/>
      <use xlink:href="#DejaVuSans-47" x="140.478516"/>
      <use xlink:href="#DejaVuSans-20" x="217.96875"/>
      <use xlink:href="#DejaVuSans-72" x="249.755859"/>
      <use xlink:href="#DejaVuSans-61" x="290.869141"/>
      <use xlink:href="#DejaVuSans-6e" x="352.148438"/>
      <use xlink:href="#DejaVuSans-64" x="415.527344"/>
      <use xlink:href="#DejaVuSans-6f" x="479.003906"/>
      <use xlink:href="#DejaVuSans-6d" x="540.185547"/>
      <use xlink:href="#DejaVuSans-20" x="637.597656"/>
      <use xlink:href="#DejaVuSans-77" x="669.384766"/>
      <use xlink:href="#DejaVuSans-61" x="751.171875"/>
      <use xlink:href="#DejaVuSans-6c" x="812.451172"/>
      <use xlink:href="#DejaVuSans-6b" x="840.234375"/>
     </g>
    </g>
    <g id="line2d_20">
     <path d="M 358.58625 360.504375 
L 370.58625 360.504375 
L 382.58625 360.504375 
" style="fill: none; stroke: #ff7f0e; stroke-width: 1.5; stroke-linecap: square"/>
    </g>
    <g id="text_20">
     <!-- DSG quantum walk -->
     <g transform="translate(392.18625 364.704375)scale(0.12 -0.12)">
      <defs>
       <path id="DejaVuSans-71" d="M 947 1747 
Q 947 1113 1208 752 
Q 1469 391 1925 391 
Q 2381 391 2643 752 
Q 2906 1113 2906 1747 
Q 2906 2381 2643 2742 
Q 2381 3103 1925 3103 
Q 1469 3103 1208 2742 
Q 947 2381 947 1747 
z
M 2906 525 
Q 2725 213 2448 61 
Q 2172 -91 1784 -91 
Q 1150 -91 751 415 
Q 353 922 353 1747 
Q 353 2572 751 3078 
Q 1150 3584 1784 3584 
Q 2172 3584 2448 3432 
Q 2725 3281 2906 2969 
L 2906 3500 
L 3481 3500 
L 3481 -1331 
L 2906 -1331 
L 2906 525 
z
" transform="scale(0.015625)"/>
       <path id="DejaVuSans-75" d="M 544 1381 
L 544 3500 
L 1119 3500 
L 1119 1403 
Q 1119 906 1312 657 
Q 1506 409 1894 409 
Q 2359 409 2629 706 
Q 2900 1003 2900 1516 
L 2900 3500 
L 3475 3500 
L 3475 0 
L 2900 0 
L 2900 538 
Q 2691 219 2414 64 
Q 2138 -91 1772 -91 
Q 1169 -91 856 284 
Q 544 659 544 1381 
z
M 1991 3584 
L 1991 3584 
z
" transform="scale(0.015625)"/>
      </defs>
      <use xlink:href="#DejaVuSans-44"/>
      <use xlink:href="#DejaVuSans-53" x="77.001953"/>
      <use xlink:href="#DejaVuSans-47" x="140.478516"/>
      <use xlink:href="#DejaVuSans-20" x="217.96875"/>
      <use xlink:href="#DejaVuSans-71" x="249.755859"/>
      <use xlink:href="#DejaVuSans-75" x="313.232422"/>
      <use xlink:href="#DejaVuSans-61" x="376.611328"/>
      <use xlink:href="#DejaVuSans-6e" x="437.890625"/>
      <use xlink:href="#DejaVuSans-74" x="501.269531"/>
      <use xlink:href="#DejaVuSans-75" x="540.478516"/>
      <use xlink:href="#DejaVuSans-6d" x="603.857422"/>
      <use xlink:href="#DejaVuSans-20" x="701.269531"/>
      <use xlink:href="#DejaVuSans-77" x="733.056641"/>
      <use xlink:href="#DejaVuSans-61" x="814.84375"/>
      <use xlink:href="#DejaVuSans-6c" x="876.123047"/>
      <use xlink:href="#DejaVuSans-6b" x="903.90625"/>
     </g>
    </g>
   </g>
  </g>
 </g>
 <defs>
  <clipPath id="pdc1390c875">
   <rect x="72" y="51.84" width="446.4" height="326.16"/>
  </clipPath>
 </defs>
</svg>
